<?xml version="1.0" encoding="utf-8"?>
<!-- Generator: Adobe Illustrator 16.2.1, SVG Export Plug-In . SVG Version: 6.00 Build 0)  -->
<!DOCTYPE svg PUBLIC "-//W3C//DTD SVG 1.1//EN" "http://www.w3.org/Graphics/SVG/1.1/DTD/svg11.dtd" [
	<!ENTITY ns_flows "http://ns.adobe.com/Flows/1.0/">
	<!ENTITY ns_extend "http://ns.adobe.com/Extensibility/1.0/">
	<!ENTITY ns_ai "http://ns.adobe.com/AdobeIllustrator/10.0/">
	<!ENTITY ns_graphs "http://ns.adobe.com/Graphs/1.0/">
]>
<svg version="1.1" id="Layer_1" xmlns:x="&ns_extend;" xmlns:i="&ns_ai;" xmlns:graph="&ns_graphs;"
	 xmlns="http://www.w3.org/2000/svg" xmlns:xlink="http://www.w3.org/1999/xlink" xmlns:a="http://ns.adobe.com/AdobeSVGViewerExtensions/3.0/"
	 x="0px" y="0px" width="64px" height="64px" viewBox="0 0 64 64" enable-background="new 0 0 64 64" xml:space="preserve">
<g id="Layer_1_6_">
	<g id="Layer_1_5_">
		<g id="Layer_1_4_" display="none">
			<g id="Layer_1_3_" display="inline">
				<g id="Layer_1_2_">
					<g id="Layer_1_1_">
						<g>
							
								<rect x="-0.062" y="0.181" fill="#C30823" stroke="#D1D3D4" stroke-width="0.25" stroke-miterlimit="10" width="8" height="8"/>
							
								<rect x="7.938" y="0.181" fill="#C30823" stroke="#D1D3D4" stroke-width="0.25" stroke-miterlimit="10" width="8" height="8"/>
							
								<rect x="15.938" y="0.181" fill="#C30823" stroke="#D1D3D4" stroke-width="0.25" stroke-miterlimit="10" width="8" height="8"/>
							
								<rect x="23.938" y="0.181" fill="#C30823" stroke="#D1D3D4" stroke-width="0.25" stroke-miterlimit="10" width="8" height="8"/>
							
								<rect x="31.937" y="0.181" fill="#C30823" stroke="#D1D3D4" stroke-width="0.25" stroke-miterlimit="10" width="8" height="8"/>
							
								<rect x="39.938" y="0.181" fill="#C30823" stroke="#D1D3D4" stroke-width="0.25" stroke-miterlimit="10" width="8" height="8"/>
							
								<rect x="47.938" y="0.181" fill="#C30823" stroke="#D1D3D4" stroke-width="0.25" stroke-miterlimit="10" width="8" height="8"/>
							
								<rect x="55.938" y="0.181" fill="#C30823" stroke="#D1D3D4" stroke-width="0.25" stroke-miterlimit="10" width="8" height="8"/>
							
								<rect x="-0.062" y="8.181" fill="#C30823" stroke="#D1D3D4" stroke-width="0.25" stroke-miterlimit="10" width="8" height="8"/>
							
								<rect x="7.938" y="8.181" fill="#C30823" stroke="#D1D3D4" stroke-width="0.25" stroke-miterlimit="10" width="8" height="8"/>
							
								<rect x="15.938" y="8.181" fill="#C30823" stroke="#D1D3D4" stroke-width="0.25" stroke-miterlimit="10" width="8" height="8"/>
							
								<rect x="23.938" y="8.181" fill="#C30823" stroke="#D1D3D4" stroke-width="0.25" stroke-miterlimit="10" width="8" height="8"/>
							
								<rect x="31.937" y="8.181" fill="#C30823" stroke="#D1D3D4" stroke-width="0.25" stroke-miterlimit="10" width="8" height="8"/>
							
								<rect x="39.938" y="8.181" fill="#C30823" stroke="#D1D3D4" stroke-width="0.25" stroke-miterlimit="10" width="8" height="8"/>
							
								<rect x="47.938" y="8.181" fill="#C30823" stroke="#D1D3D4" stroke-width="0.25" stroke-miterlimit="10" width="8" height="8"/>
							
								<rect x="55.938" y="8.181" fill="#C30823" stroke="#D1D3D4" stroke-width="0.25" stroke-miterlimit="10" width="8" height="8"/>
							
								<rect x="-0.062" y="16.181" fill="#C30823" stroke="#D1D3D4" stroke-width="0.25" stroke-miterlimit="10" width="8" height="8"/>
							
								<rect x="7.938" y="16.181" fill="#C30823" stroke="#D1D3D4" stroke-width="0.25" stroke-miterlimit="10" width="8" height="8"/>
							
								<rect x="15.938" y="16.181" fill="#C30823" stroke="#D1D3D4" stroke-width="0.25" stroke-miterlimit="10" width="8" height="8"/>
							
								<rect x="23.938" y="16.181" fill="#C30823" stroke="#D1D3D4" stroke-width="0.25" stroke-miterlimit="10" width="8" height="8"/>
							
								<rect x="31.937" y="16.181" fill="#C30823" stroke="#D1D3D4" stroke-width="0.25" stroke-miterlimit="10" width="8" height="8"/>
							
								<rect x="39.938" y="16.181" fill="#C30823" stroke="#D1D3D4" stroke-width="0.25" stroke-miterlimit="10" width="8" height="8"/>
							
								<rect x="47.938" y="16.181" fill="#C30823" stroke="#D1D3D4" stroke-width="0.25" stroke-miterlimit="10" width="8" height="8"/>
							
								<rect x="55.938" y="16.181" fill="#C30823" stroke="#D1D3D4" stroke-width="0.25" stroke-miterlimit="10" width="8" height="8"/>
							
								<rect x="-0.062" y="24.181" fill="#C30823" stroke="#D1D3D4" stroke-width="0.25" stroke-miterlimit="10" width="8" height="8"/>
							
								<rect x="7.938" y="24.181" fill="#C30823" stroke="#D1D3D4" stroke-width="0.25" stroke-miterlimit="10" width="8" height="8"/>
							
								<rect x="15.938" y="24.181" fill="#C30823" stroke="#D1D3D4" stroke-width="0.25" stroke-miterlimit="10" width="8" height="8"/>
							
								<rect x="23.938" y="24.181" fill="#C30823" stroke="#D1D3D4" stroke-width="0.25" stroke-miterlimit="10" width="8" height="8"/>
							
								<rect x="31.937" y="24.181" fill="#C30823" stroke="#D1D3D4" stroke-width="0.25" stroke-miterlimit="10" width="8" height="8"/>
							
								<rect x="39.938" y="24.181" fill="#C30823" stroke="#D1D3D4" stroke-width="0.25" stroke-miterlimit="10" width="8" height="8"/>
							
								<rect x="47.938" y="24.181" fill="#C30823" stroke="#D1D3D4" stroke-width="0.25" stroke-miterlimit="10" width="8" height="8"/>
							
								<rect x="55.938" y="24.181" fill="#C30823" stroke="#D1D3D4" stroke-width="0.25" stroke-miterlimit="10" width="8" height="8"/>
							
								<rect x="-0.062" y="32.181" fill="#C30823" stroke="#D1D3D4" stroke-width="0.25" stroke-miterlimit="10" width="8" height="8"/>
							
								<rect x="7.938" y="32.181" fill="#C30823" stroke="#D1D3D4" stroke-width="0.25" stroke-miterlimit="10" width="8" height="8"/>
							
								<rect x="15.938" y="32.181" fill="#C30823" stroke="#D1D3D4" stroke-width="0.25" stroke-miterlimit="10" width="8" height="8"/>
							
								<rect x="23.938" y="32.181" fill="#C30823" stroke="#D1D3D4" stroke-width="0.25" stroke-miterlimit="10" width="8" height="8"/>
							
								<rect x="31.937" y="32.181" fill="#C30823" stroke="#D1D3D4" stroke-width="0.25" stroke-miterlimit="10" width="8" height="8"/>
							
								<rect x="39.938" y="32.181" fill="#C30823" stroke="#D1D3D4" stroke-width="0.25" stroke-miterlimit="10" width="8" height="8"/>
							
								<rect x="47.938" y="32.181" fill="#C30823" stroke="#D1D3D4" stroke-width="0.25" stroke-miterlimit="10" width="8" height="8"/>
							
								<rect x="55.938" y="32.181" fill="#C30823" stroke="#D1D3D4" stroke-width="0.25" stroke-miterlimit="10" width="8" height="8"/>
							
								<rect x="-0.062" y="40.182" fill="#C30823" stroke="#D1D3D4" stroke-width="0.25" stroke-miterlimit="10" width="8" height="8"/>
							
								<rect x="7.938" y="40.182" fill="#C30823" stroke="#D1D3D4" stroke-width="0.25" stroke-miterlimit="10" width="8" height="8"/>
							
								<rect x="15.938" y="40.182" fill="#C30823" stroke="#D1D3D4" stroke-width="0.25" stroke-miterlimit="10" width="8" height="8"/>
							
								<rect x="23.938" y="40.182" fill="#C30823" stroke="#D1D3D4" stroke-width="0.25" stroke-miterlimit="10" width="8" height="8"/>
							
								<rect x="31.937" y="40.182" fill="#C30823" stroke="#D1D3D4" stroke-width="0.25" stroke-miterlimit="10" width="8" height="8"/>
							
								<rect x="39.938" y="40.182" fill="#C30823" stroke="#D1D3D4" stroke-width="0.25" stroke-miterlimit="10" width="8" height="8"/>
							
								<rect x="47.938" y="40.182" fill="#C30823" stroke="#D1D3D4" stroke-width="0.25" stroke-miterlimit="10" width="8" height="8"/>
							
								<rect x="55.938" y="40.182" fill="#C30823" stroke="#D1D3D4" stroke-width="0.25" stroke-miterlimit="10" width="8" height="8"/>
							
								<rect x="-0.062" y="48.182" fill="#C30823" stroke="#D1D3D4" stroke-width="0.25" stroke-miterlimit="10" width="8" height="8"/>
							
								<rect x="7.938" y="48.182" fill="#C30823" stroke="#D1D3D4" stroke-width="0.25" stroke-miterlimit="10" width="8" height="8"/>
							
								<rect x="15.938" y="48.182" fill="#C30823" stroke="#D1D3D4" stroke-width="0.25" stroke-miterlimit="10" width="8" height="8"/>
							
								<rect x="23.938" y="48.182" fill="#C30823" stroke="#D1D3D4" stroke-width="0.25" stroke-miterlimit="10" width="8" height="8"/>
							
								<rect x="31.937" y="48.182" fill="#C30823" stroke="#D1D3D4" stroke-width="0.25" stroke-miterlimit="10" width="8" height="8"/>
							
								<rect x="39.938" y="48.182" fill="#C30823" stroke="#D1D3D4" stroke-width="0.25" stroke-miterlimit="10" width="8" height="8"/>
							
								<rect x="47.938" y="48.182" fill="#C30823" stroke="#D1D3D4" stroke-width="0.25" stroke-miterlimit="10" width="8" height="8"/>
							
								<rect x="55.938" y="48.182" fill="#C30823" stroke="#D1D3D4" stroke-width="0.25" stroke-miterlimit="10" width="8" height="8"/>
							
								<rect x="-0.062" y="56.182" fill="#C30823" stroke="#D1D3D4" stroke-width="0.25" stroke-miterlimit="10" width="8" height="8"/>
							
								<rect x="7.938" y="56.182" fill="#C30823" stroke="#D1D3D4" stroke-width="0.25" stroke-miterlimit="10" width="8" height="8"/>
							
								<rect x="15.938" y="56.182" fill="#C30823" stroke="#D1D3D4" stroke-width="0.25" stroke-miterlimit="10" width="8" height="8"/>
							
								<rect x="23.938" y="56.182" fill="#C30823" stroke="#D1D3D4" stroke-width="0.25" stroke-miterlimit="10" width="8" height="8"/>
							
								<rect x="31.937" y="56.182" fill="#C30823" stroke="#D1D3D4" stroke-width="0.25" stroke-miterlimit="10" width="8" height="8"/>
							
								<rect x="39.938" y="56.182" fill="#C30823" stroke="#D1D3D4" stroke-width="0.25" stroke-miterlimit="10" width="8" height="8"/>
							
								<rect x="47.938" y="56.182" fill="#C30823" stroke="#D1D3D4" stroke-width="0.25" stroke-miterlimit="10" width="8" height="8"/>
							
								<rect x="55.938" y="56.182" fill="#C30823" stroke="#D1D3D4" stroke-width="0.25" stroke-miterlimit="10" width="8" height="8"/>
						</g>
					</g>
				</g>
			</g>
		</g>
		<g id="Layer_2">
			<g>
				<g>
					<path fill="#C30823" d="M31.986,0.236c-17.535,0-31.75,14.215-31.75,31.75c0,17.534,14.215,31.75,31.75,31.75
						c17.534,0,31.75-14.217,31.75-31.75C63.736,14.451,49.521,0.236,31.986,0.236z"/>
				</g>
			</g>
		</g>
	</g>
</g>
<g id="Layer_3">
	<path fill="#FFFFFF" d="M47.758,40.852l-0.66-0.1c-1.899-0.292-5.259,0.701-7.855,1.661c-0.264-0.28-0.584-0.554-0.969-0.864
		c-0.268-0.216-1.062-0.855-5.709-1.885c-0.098-0.396-0.239-0.807-0.453-1.178c-0.242-0.424-0.649-0.801-1.191-1.139
		c1.393-0.281,1.741-1.921,1.815-3.179c0.139,0.006,0.277,0.017,0.416,0.017c1.809,0,3.522-0.582,4.828-1.639
		c1.609-1.303,3.062-2.909,2.771-5.809c-0.25-2.51-6.989-12.629-9.246-13.881c-0.345-0.192-0.745-0.29-1.186-0.29
		c-1.874,0-4.369,1.798-6.785,3.538c-0.998,0.72-1.941,1.398-2.616,1.769c-2.001,1.099-3.11,2.187-3.389,3.326
		c-0.083,0.336-0.076,0.62-0.038,0.852c-2.028,1.784-3.78,4.797-4.542,7.085c-0.458,1.372-0.442,2.55,0.047,3.5
		c0.415,0.812,1.059,1.213,1.429,1.387c-0.138,3.168,0.789,6.291,1.217,7.55c0.509,1.489,1.423,2.052,2.192,2.245
		c1.138,2.283,2.823,4.091,5.029,5.361c0.622,0.36,1.265,0.543,1.911,0.543c0.11,0,0.21-0.016,0.313-0.024
		c2.998,2.144,5.843,2.452,8.479,2.452l0.953-0.004c0.188,0,0.361,0.002,0.531,0.008l0.186,0.003c0.863,0,1.566-0.189,2.105-0.558
		c1.877,0.776,4.488,1.28,6.76,1.28c3.121,0,6.233-1.726,7.076-3.274c0.195-0.359,0.223-0.777,0.076-1.176
		c-0.109-0.298-0.339-0.906-2.148-1.83c1.834-0.953,3.131-1.914,3.524-2.338c0.586-0.631,0.455-1.252,0.373-1.49
		C52.607,41.632,51.021,41.345,47.758,40.852 M21.898,19.658c0.784-0.43,1.775-1.145,2.826-1.902
		c1.848-1.331,4.378-3.154,5.596-3.154c0.087,0,0.16,0.013,0.2,0.034c1.657,0.92,8.028,10.467,8.21,12.306
		c0.164,1.65-0.35,2.667-2.028,4.027c-0.548,0.442-1.735,1.185-3.552,1.185c-0.325,0-0.654-0.026-0.984-0.074l-0.252-0.045
		c-0.719-0.128-1.449-0.372-2.179-0.718c-0.044-0.021-0.088-0.042-0.135-0.064c-0.231-0.113-0.462-0.235-0.693-0.371
		c-0.188-0.109-0.382-0.236-0.578-0.369c-0.096-0.066-0.196-0.138-0.295-0.209c-0.089-0.065-0.182-0.132-0.274-0.201
		c-0.14-0.105-0.281-0.214-0.426-0.33c-0.032-0.025-0.063-0.051-0.094-0.076c-0.917-0.741-1.912-1.666-2.912-2.672l-0.161-0.161
		c-0.119-0.121-0.238-0.244-0.359-0.368c-0.167-0.174-0.335-0.348-0.498-0.521c-0.011-0.011-0.021-0.021-0.03-0.032
		c-1.804-1.911-3.301-3.714-3.766-4.284C19.581,21.444,19.948,20.728,21.898,19.658 M15.509,32.285l-0.08-0.048l-0.017-0.006
		l-0.343-0.193c-0.089-0.077-0.188-0.178-0.264-0.326c-0.225-0.44-0.201-1.107,0.074-1.93c0.632-1.896,2.093-4.468,3.741-6.014
		c1.459,1.735,4.556,5.271,7.375,7.537c0.003,0.003,0.007,0.006,0.012,0.009c0.208,0.167,0.414,0.328,0.62,0.48
		c0.007,0.006,0.015,0.013,0.023,0.018c0.192,0.142,0.382,0.276,0.57,0.403c0.038,0.025,0.076,0.051,0.113,0.076
		c0.184,0.121,0.363,0.236,0.541,0.34c0.002,0.001,0.004,0.003,0.007,0.004c0.012,0.008,0.023,0.014,0.035,0.021
		c0.22,0.127,0.439,0.244,0.659,0.355c0.028,0.016,0.057,0.027,0.087,0.043c0.208,0.104,0.417,0.199,0.625,0.289
		c0.012,0.006,0.024,0.012,0.038,0.016c0.463,0.197,0.928,0.357,1.39,0.485c-0.041,1.02-0.213,1.409-0.284,1.528
		c-0.131,0.013-0.362,0.029-0.713,0.038l-0.105,0.001c-0.118,0.003-0.242,0.004-0.373,0.004h-0.065c-0.112,0-0.231-0.002-0.35-0.005
		c-0.669-0.013-1.968-0.062-3.564-0.244c-2.009-0.231-4.265-0.646-6.331-1.333c-0.041-0.012-0.08-0.027-0.12-0.04
		c-0.185-0.062-0.365-0.13-0.547-0.196c-0.792-0.299-1.562-0.643-2.276-1.046L15.509,32.285z M18.55,41.877h-0.002l-0.123-0.005
		c-0.246-0.032-0.595-0.188-0.857-0.955c-0.67-1.96-1.06-4.046-1.115-5.854c4.629,2.037,10.383,2.338,12.251,2.379l-0.016,0.049
		c-0.001,0.007-0.005,0.013-0.007,0.019c-0.033,0.091-0.091,0.197-0.244,0.31l0,0c-0.054,0.039-0.118,0.078-0.197,0.115
		c-2.339,1.133-8.02,3.363-8.077,3.387l-0.193,0.103C19.825,41.518,19.17,41.877,18.55,41.877 M25.106,47.648
		c-0.103,0.023-0.211,0.043-0.331,0.043c-0.283,0-0.584-0.09-0.894-0.271c-1.617-0.933-2.904-2.203-3.843-3.787
		c0.444-0.161,0.791-0.356,0.959-0.462c0.55-0.217,3.27-1.291,5.615-2.291c0.338-0.146,0.671-0.287,0.986-0.426
		c0.022-0.01,0.043-0.021,0.065-0.028c0.55-0.241,1.053-0.471,1.461-0.669c0.168-0.081,0.324-0.173,0.468-0.273
		c0.144-0.102,0.277-0.213,0.396-0.332c0.24,0.168,0.33,0.293,0.357,0.343c0.183,0.319,0.277,0.748,0.327,1.137l0.001,0.011
		c0.027,0.205,0.04,0.395,0.045,0.539l-4.907,6.084C25.757,47.316,25.488,47.553,25.106,47.648 M37.938,45.021
		c-0.002,0.006-0.002,0.01-0.002,0.016c-0.006,0.037-0.018,0.084-0.023,0.123c-0.044,0.262-0.116,0.568-0.229,0.931
		c-0.016,0.05-0.035,0.104-0.052,0.154c-0.049,0.155-0.103,0.313-0.161,0.483c-0.025,0.07-0.052,0.145-0.078,0.217
		c-0.062,0.169-0.129,0.343-0.199,0.523c-0.018,0.045-0.033,0.088-0.051,0.131c-0.232,0.584-0.453,1.076-0.564,1.326
		c-0.027,0.062-0.061,0.131-0.081,0.178l-0.002,0.004l-0.116,0.209l0.003,0.031l-0.003,0.006l0.021,0.237
		c0,0.021-0.008,0.124-0.075,0.222c-0.009,0.012-0.017,0.024-0.027,0.037c-0.161,0.176-0.546,0.275-1.055,0.275l-0.125-0.001
		c-0.188-0.006-0.386-0.007-0.591-0.007l-0.955,0.003c-1.871,0-4.014-0.126-6.307-1.435c0.032-0.03,0.052-0.055,0.062-0.062
		l0.023-0.03c0.005-0.005,0.014-0.015,0.017-0.018l5.297-6.562l0.081-0.101l0.004-0.126c2.833,0.656,4.002,1.143,4.257,1.349
		c0.514,0.416,0.775,0.636,0.898,0.859l0.02,0.043C37.971,44.152,38.021,44.379,37.938,45.021 M49.129,48.967
		c-0.748,0.734-2.751,1.885-5.021,1.885c-1.85,0-4.088-0.408-5.689-1.01c0.002-0.021,0.005-0.043,0.007-0.064
		c0.075-0.163,0.191-0.426,0.328-0.742c0.031,0.003,0.063,0.003,0.097,0.005c0.141,0.011,0.281,0.017,0.426,0.021
		c0.176,0.008,0.35,0.018,0.524,0.02c0.052,0,0.097,0.005,0.146,0.005c0.103,0,0.201-0.009,0.304-0.012
		c0.201-0.005,0.399-0.011,0.604-0.021c0.166-0.011,0.33-0.022,0.492-0.036c0.178-0.019,0.355-0.037,0.537-0.062
		c0.18-0.021,0.355-0.045,0.533-0.073c0.15-0.022,0.305-0.053,0.455-0.081c0.207-0.037,0.413-0.074,0.615-0.119
		c0.1-0.021,0.197-0.048,0.297-0.068c0.262-0.062,0.521-0.125,0.775-0.196c0.021-0.007,0.043-0.015,0.065-0.021
		c0.699-0.197,1.372-0.426,2.017-0.675C48.004,48.268,48.766,48.7,49.129,48.967 M46.542,45.564l-0.292,0.119
		c-1.073,0.436-2.126,0.77-3.146,0.998c-0.033,0.006-0.063,0.012-0.098,0.02c-0.283,0.062-0.562,0.113-0.839,0.158
		c-0.077,0.014-0.153,0.023-0.229,0.035c-0.238,0.037-0.477,0.062-0.709,0.088c-0.086,0.008-0.17,0.018-0.256,0.022
		c-0.23,0.021-0.461,0.029-0.688,0.035c-0.079,0.003-0.158,0.007-0.237,0.009c-0.18,0.001-0.354-0.009-0.529-0.015
		c0.01-0.031,0.019-0.062,0.027-0.091c0.025-0.086,0.055-0.17,0.079-0.254s0.051-0.166,0.071-0.246
		c0.027-0.094,0.054-0.188,0.076-0.277c0.016-0.05,0.025-0.1,0.037-0.146c0.021-0.09,0.041-0.177,0.062-0.262
		c0.007-0.035,0.017-0.072,0.021-0.105c0.023-0.117,0.043-0.232,0.061-0.344c0.021-0.172,0.037-0.332,0.049-0.485
		c0.002-0.033,0.004-0.068,0.007-0.103c0.011-0.152,0.015-0.297,0.011-0.432c2.736-1.012,4.948-1.564,6.281-1.564
		c0.188,0,0.352,0.014,0.493,0.034l0.666,0.101c0.942,0.144,2.229,0.338,3.048,0.547C49.704,43.977,48.287,44.828,46.542,45.564"/>
</g>
</svg>
