<?xml version="1.0" encoding="utf-8"?>
<!-- Generator: Adobe Illustrator 16.2.1, SVG Export Plug-In . SVG Version: 6.00 Build 0)  -->
<!DOCTYPE svg PUBLIC "-//W3C//DTD SVG 1.1//EN" "http://www.w3.org/Graphics/SVG/1.1/DTD/svg11.dtd" [
	<!ENTITY ns_flows "http://ns.adobe.com/Flows/1.0/">
	<!ENTITY ns_extend "http://ns.adobe.com/Extensibility/1.0/">
	<!ENTITY ns_ai "http://ns.adobe.com/AdobeIllustrator/10.0/">
	<!ENTITY ns_graphs "http://ns.adobe.com/Graphs/1.0/">
]>
<svg version="1.1" xmlns:x="&ns_extend;" xmlns:i="&ns_ai;" xmlns:graph="&ns_graphs;"
	 xmlns="http://www.w3.org/2000/svg" xmlns:xlink="http://www.w3.org/1999/xlink" xmlns:a="http://ns.adobe.com/AdobeSVGViewerExtensions/3.0/"
	 x="0px" y="0px" width="64px" height="64px" viewBox="0 0 64 64" enable-background="new 0 0 64 64" xml:space="preserve">
<g id="Layer_1" display="none">
	<g id="Layer_1_2_" display="inline">
		<g id="Layer_1_1_">
			<g>
				<rect x="-0.062" y="0.181" fill="#FFFFFF" stroke="#D1D3D4" stroke-width="0.25" stroke-miterlimit="10" width="8" height="8"/>
				<rect x="7.938" y="0.181" fill="#FFFFFF" stroke="#D1D3D4" stroke-width="0.25" stroke-miterlimit="10" width="8" height="8"/>
				<rect x="15.938" y="0.181" fill="#FFFFFF" stroke="#D1D3D4" stroke-width="0.25" stroke-miterlimit="10" width="8" height="8"/>
				<rect x="23.938" y="0.181" fill="#FFFFFF" stroke="#D1D3D4" stroke-width="0.25" stroke-miterlimit="10" width="8" height="8"/>
				<rect x="31.937" y="0.181" fill="#FFFFFF" stroke="#D1D3D4" stroke-width="0.25" stroke-miterlimit="10" width="8" height="8"/>
				<rect x="39.938" y="0.181" fill="#FFFFFF" stroke="#D1D3D4" stroke-width="0.25" stroke-miterlimit="10" width="8" height="8"/>
				<rect x="47.938" y="0.181" fill="#FFFFFF" stroke="#D1D3D4" stroke-width="0.25" stroke-miterlimit="10" width="8" height="8"/>
				<rect x="55.938" y="0.181" fill="#FFFFFF" stroke="#D1D3D4" stroke-width="0.25" stroke-miterlimit="10" width="8" height="8"/>
				<rect x="-0.062" y="8.181" fill="#FFFFFF" stroke="#D1D3D4" stroke-width="0.25" stroke-miterlimit="10" width="8" height="8"/>
				<rect x="7.938" y="8.181" fill="#FFFFFF" stroke="#D1D3D4" stroke-width="0.25" stroke-miterlimit="10" width="8" height="8"/>
				<rect x="15.938" y="8.181" fill="#FFFFFF" stroke="#D1D3D4" stroke-width="0.25" stroke-miterlimit="10" width="8" height="8"/>
				<rect x="23.938" y="8.181" fill="#FFFFFF" stroke="#D1D3D4" stroke-width="0.25" stroke-miterlimit="10" width="8" height="8"/>
				<rect x="31.937" y="8.181" fill="#FFFFFF" stroke="#D1D3D4" stroke-width="0.25" stroke-miterlimit="10" width="8" height="8"/>
				<rect x="39.938" y="8.181" fill="#FFFFFF" stroke="#D1D3D4" stroke-width="0.25" stroke-miterlimit="10" width="8" height="8"/>
				<rect x="47.938" y="8.181" fill="#FFFFFF" stroke="#D1D3D4" stroke-width="0.25" stroke-miterlimit="10" width="8" height="8"/>
				<rect x="55.938" y="8.181" fill="#FFFFFF" stroke="#D1D3D4" stroke-width="0.25" stroke-miterlimit="10" width="8" height="8"/>
				
					<rect x="-0.062" y="16.181" fill="#FFFFFF" stroke="#D1D3D4" stroke-width="0.25" stroke-miterlimit="10" width="8" height="8"/>
				<rect x="7.938" y="16.181" fill="#FFFFFF" stroke="#D1D3D4" stroke-width="0.25" stroke-miterlimit="10" width="8" height="8"/>
				
					<rect x="15.938" y="16.181" fill="#FFFFFF" stroke="#D1D3D4" stroke-width="0.25" stroke-miterlimit="10" width="8" height="8"/>
				
					<rect x="23.938" y="16.181" fill="#FFFFFF" stroke="#D1D3D4" stroke-width="0.25" stroke-miterlimit="10" width="8" height="8"/>
				
					<rect x="31.937" y="16.181" fill="#FFFFFF" stroke="#D1D3D4" stroke-width="0.25" stroke-miterlimit="10" width="8" height="8"/>
				
					<rect x="39.938" y="16.181" fill="#FFFFFF" stroke="#D1D3D4" stroke-width="0.25" stroke-miterlimit="10" width="8" height="8"/>
				
					<rect x="47.938" y="16.181" fill="#FFFFFF" stroke="#D1D3D4" stroke-width="0.25" stroke-miterlimit="10" width="8" height="8"/>
				
					<rect x="55.938" y="16.181" fill="#FFFFFF" stroke="#D1D3D4" stroke-width="0.25" stroke-miterlimit="10" width="8" height="8"/>
				
					<rect x="-0.062" y="24.181" fill="#FFFFFF" stroke="#D1D3D4" stroke-width="0.25" stroke-miterlimit="10" width="8" height="8"/>
				<rect x="7.938" y="24.181" fill="#FFFFFF" stroke="#D1D3D4" stroke-width="0.25" stroke-miterlimit="10" width="8" height="8"/>
				
					<rect x="15.938" y="24.181" fill="#FFFFFF" stroke="#D1D3D4" stroke-width="0.25" stroke-miterlimit="10" width="8" height="8"/>
				
					<rect x="23.938" y="24.181" fill="#FFFFFF" stroke="#D1D3D4" stroke-width="0.25" stroke-miterlimit="10" width="8" height="8"/>
				
					<rect x="31.937" y="24.181" fill="#FFFFFF" stroke="#D1D3D4" stroke-width="0.25" stroke-miterlimit="10" width="8" height="8"/>
				
					<rect x="39.938" y="24.181" fill="#FFFFFF" stroke="#D1D3D4" stroke-width="0.25" stroke-miterlimit="10" width="8" height="8"/>
				
					<rect x="47.938" y="24.181" fill="#FFFFFF" stroke="#D1D3D4" stroke-width="0.25" stroke-miterlimit="10" width="8" height="8"/>
				
					<rect x="55.938" y="24.181" fill="#FFFFFF" stroke="#D1D3D4" stroke-width="0.25" stroke-miterlimit="10" width="8" height="8"/>
				
					<rect x="-0.062" y="32.181" fill="#FFFFFF" stroke="#D1D3D4" stroke-width="0.25" stroke-miterlimit="10" width="8" height="8"/>
				<rect x="7.938" y="32.181" fill="#FFFFFF" stroke="#D1D3D4" stroke-width="0.25" stroke-miterlimit="10" width="8" height="8"/>
				
					<rect x="15.938" y="32.181" fill="#FFFFFF" stroke="#D1D3D4" stroke-width="0.25" stroke-miterlimit="10" width="8" height="8"/>
				
					<rect x="23.938" y="32.181" fill="#FFFFFF" stroke="#D1D3D4" stroke-width="0.25" stroke-miterlimit="10" width="8" height="8"/>
				
					<rect x="31.937" y="32.181" fill="#FFFFFF" stroke="#D1D3D4" stroke-width="0.25" stroke-miterlimit="10" width="8" height="8"/>
				
					<rect x="39.938" y="32.181" fill="#FFFFFF" stroke="#D1D3D4" stroke-width="0.25" stroke-miterlimit="10" width="8" height="8"/>
				
					<rect x="47.938" y="32.181" fill="#FFFFFF" stroke="#D1D3D4" stroke-width="0.25" stroke-miterlimit="10" width="8" height="8"/>
				
					<rect x="55.938" y="32.181" fill="#FFFFFF" stroke="#D1D3D4" stroke-width="0.25" stroke-miterlimit="10" width="8" height="8"/>
				
					<rect x="-0.062" y="40.182" fill="#FFFFFF" stroke="#D1D3D4" stroke-width="0.25" stroke-miterlimit="10" width="8" height="8"/>
				<rect x="7.938" y="40.182" fill="#FFFFFF" stroke="#D1D3D4" stroke-width="0.25" stroke-miterlimit="10" width="8" height="8"/>
				
					<rect x="15.938" y="40.182" fill="#FFFFFF" stroke="#D1D3D4" stroke-width="0.25" stroke-miterlimit="10" width="8" height="8"/>
				
					<rect x="23.938" y="40.182" fill="#FFFFFF" stroke="#D1D3D4" stroke-width="0.25" stroke-miterlimit="10" width="8" height="8"/>
				
					<rect x="31.937" y="40.182" fill="#FFFFFF" stroke="#D1D3D4" stroke-width="0.25" stroke-miterlimit="10" width="8" height="8"/>
				
					<rect x="39.938" y="40.182" fill="#FFFFFF" stroke="#D1D3D4" stroke-width="0.25" stroke-miterlimit="10" width="8" height="8"/>
				
					<rect x="47.938" y="40.182" fill="#FFFFFF" stroke="#D1D3D4" stroke-width="0.25" stroke-miterlimit="10" width="8" height="8"/>
				
					<rect x="55.938" y="40.182" fill="#FFFFFF" stroke="#D1D3D4" stroke-width="0.25" stroke-miterlimit="10" width="8" height="8"/>
				
					<rect x="-0.062" y="48.182" fill="#FFFFFF" stroke="#D1D3D4" stroke-width="0.25" stroke-miterlimit="10" width="8" height="8"/>
				<rect x="7.938" y="48.182" fill="#FFFFFF" stroke="#D1D3D4" stroke-width="0.25" stroke-miterlimit="10" width="8" height="8"/>
				
					<rect x="15.938" y="48.182" fill="#FFFFFF" stroke="#D1D3D4" stroke-width="0.25" stroke-miterlimit="10" width="8" height="8"/>
				
					<rect x="23.938" y="48.182" fill="#FFFFFF" stroke="#D1D3D4" stroke-width="0.25" stroke-miterlimit="10" width="8" height="8"/>
				
					<rect x="31.937" y="48.182" fill="#FFFFFF" stroke="#D1D3D4" stroke-width="0.25" stroke-miterlimit="10" width="8" height="8"/>
				
					<rect x="39.938" y="48.182" fill="#FFFFFF" stroke="#D1D3D4" stroke-width="0.25" stroke-miterlimit="10" width="8" height="8"/>
				
					<rect x="47.938" y="48.182" fill="#FFFFFF" stroke="#D1D3D4" stroke-width="0.25" stroke-miterlimit="10" width="8" height="8"/>
				
					<rect x="55.938" y="48.182" fill="#FFFFFF" stroke="#D1D3D4" stroke-width="0.25" stroke-miterlimit="10" width="8" height="8"/>
				
					<rect x="-0.062" y="56.182" fill="#FFFFFF" stroke="#D1D3D4" stroke-width="0.25" stroke-miterlimit="10" width="8" height="8"/>
				<rect x="7.938" y="56.182" fill="#FFFFFF" stroke="#D1D3D4" stroke-width="0.25" stroke-miterlimit="10" width="8" height="8"/>
				
					<rect x="15.938" y="56.182" fill="#FFFFFF" stroke="#D1D3D4" stroke-width="0.25" stroke-miterlimit="10" width="8" height="8"/>
				
					<rect x="23.938" y="56.182" fill="#FFFFFF" stroke="#D1D3D4" stroke-width="0.25" stroke-miterlimit="10" width="8" height="8"/>
				
					<rect x="31.937" y="56.182" fill="#FFFFFF" stroke="#D1D3D4" stroke-width="0.25" stroke-miterlimit="10" width="8" height="8"/>
				
					<rect x="39.938" y="56.182" fill="#FFFFFF" stroke="#D1D3D4" stroke-width="0.25" stroke-miterlimit="10" width="8" height="8"/>
				
					<rect x="47.938" y="56.182" fill="#FFFFFF" stroke="#D1D3D4" stroke-width="0.25" stroke-miterlimit="10" width="8" height="8"/>
				
					<rect x="55.938" y="56.182" fill="#FFFFFF" stroke="#D1D3D4" stroke-width="0.25" stroke-miterlimit="10" width="8" height="8"/>
			</g>
		</g>
	</g>
</g>
<g id="Layer_2">
	<g>
		<g>
			<path fill="#BDBDBD" d="M37.343,14.031c-2.178-0.76-4.49-1.155-6.868-1.155c-5.536,0-10.741,2.146-14.656,6.046
				c-8.08,8.051-8.08,21.151,0,29.202c3.916,3.896,9.121,6.047,14.656,6.047c5.535,0,10.74-2.146,14.654-6.047
				c3.915-3.9,6.07-9.084,6.07-14.604c0-2.388-0.404-4.716-1.183-6.904c0,0-11.212,4.557-11.886,4.834
				c-1.656,0.676-3.541,0.262-4.799-1.002c-1.236-1.25-1.576-3.118-0.898-4.732L37.343,14.031z M17.655,38.029
				c-0.023,0.16-0.106,0.301-0.234,0.4c-0.127,0.098-0.289,0.139-0.448,0.117l-3.597-0.479c-0.33-0.047-0.56-0.35-0.516-0.676
				l0.231-1.736c0.044-0.326,0.348-0.562,0.678-0.516l3.597,0.479c0.159,0.021,0.304,0.105,0.4,0.23
				c0.097,0.129,0.141,0.289,0.118,0.445L17.655,38.029z M17.793,28.383c0-2.161,1.677-3.912,3.749-3.912
				c2.069,0,3.746,1.75,3.746,3.912s-1.677,3.912-3.746,3.912C19.47,32.295,17.793,30.544,17.793,28.383z M27.962,45.279
				c0,0.932-0.757,1.684-1.69,1.684h-2.864c-0.932,0-1.688-0.752-1.688-1.684v-2.852c0-0.93,0.756-1.686,1.688-1.686h2.864
				c0.933,0,1.69,0.756,1.69,1.686V45.279z M30.375,19.401l-3.097,2.093c-0.285,0.194-0.672,0.122-0.866-0.164l-1.018-1.492
				c-0.193-0.285-0.119-0.672,0.164-0.862l3.097-2.097c0.137-0.091,0.306-0.125,0.467-0.099c0.162,0.03,0.306,0.129,0.399,0.262
				l1.018,1.497C30.734,18.82,30.661,19.208,30.375,19.401z M42.713,34.277c0.046-0.338,0.357-0.576,0.701-0.531l3.707,0.49
				c0.165,0.021,0.312,0.109,0.413,0.238c0.101,0.133,0.145,0.297,0.122,0.461l-0.239,1.787c-0.021,0.164-0.108,0.312-0.239,0.41
				c-0.131,0.104-0.299,0.145-0.462,0.127l-3.706-0.498c-0.344-0.045-0.583-0.357-0.536-0.699L42.713,34.277z M34.695,35.064
				c0.813-0.457,1.843-0.172,2.3,0.637l4.3,7.6c0.22,0.393,0.275,0.852,0.155,1.281c-0.119,0.428-0.408,0.793-0.798,1.014
				l-2.759,1.549c-0.812,0.457-1.842,0.168-2.3-0.641l-4.299-7.6c-0.221-0.393-0.277-0.852-0.154-1.281
				c0.118-0.428,0.406-0.797,0.795-1.014L34.695,35.064z M53.865,25.053c0.977,2.681,1.485,5.534,1.485,8.469
				c0,6.623-2.588,12.846-7.286,17.527c-4.7,4.684-10.947,7.258-17.59,7.258c-6.645,0-12.892-2.574-17.59-7.258
				c-9.7-9.662-9.7-25.385,0-35.054c4.698-4.679,10.946-7.254,17.59-7.254c2.936,0,5.793,0.505,8.475,1.466l1.842-4.383
				C30.266,1.938,17.968,4.21,9.508,12.633C-2.07,24.171-2.07,42.877,9.508,54.41c11.582,11.539,30.35,11.539,41.931,0
				c8.454-8.42,10.735-20.664,6.843-31.15L53.865,25.053z M62.938,15.493C60.136,9.352,55.242,4.149,48.726,1.058
				c-0.171-0.08-0.357-0.122-0.542-0.122c-0.151,0-0.304,0.026-0.447,0.083c-0.323,0.122-0.582,0.369-0.715,0.688L36.265,27.316
				c-0.036,0.088-0.018,0.187,0.049,0.251c0.044,0.045,0.104,0.072,0.165,0.072c0.029,0,0.06-0.008,0.088-0.019l25.698-10.448
				c0.319-0.129,0.567-0.379,0.695-0.699C63.087,16.158,63.077,15.801,62.938,15.493z M45.525,20.56
				c0,0.342-0.279,0.623-0.623,0.623h-1.812c-0.344,0-0.624-0.281-0.624-0.623V16.83c0-0.345,0.28-0.623,0.624-0.623h1.812
				c0.344,0,0.623,0.277,0.623,0.623V20.56z M48.49,10.108c0-1.516,1.07-2.746,2.391-2.746c1.323,0,2.393,1.23,2.393,2.746
				c0,1.519-1.069,2.753-2.393,2.753C49.561,12.861,48.49,11.627,48.49,10.108z M54.641,16.982l-3.096,2.097
				c-0.137,0.095-0.306,0.129-0.467,0.099c-0.163-0.034-0.306-0.125-0.398-0.262l-1.017-1.497c-0.195-0.281-0.119-0.668,0.163-0.858
				l3.094-2.096c0.285-0.194,0.672-0.118,0.866,0.167l1.018,1.489c0.093,0.137,0.127,0.304,0.097,0.467
				C54.87,16.75,54.775,16.891,54.641,16.982z"/>
		</g>
	</g>
</g>
</svg>
