<?xml version="1.0" encoding="utf-8"?>
<!-- Generator: Adobe Illustrator 16.2.1, SVG Export Plug-In . SVG Version: 6.00 Build 0)  -->
<!DOCTYPE svg PUBLIC "-//W3C//DTD SVG 1.1//EN" "http://www.w3.org/Graphics/SVG/1.1/DTD/svg11.dtd" [
	<!ENTITY ns_flows "http://ns.adobe.com/Flows/1.0/">
	<!ENTITY ns_extend "http://ns.adobe.com/Extensibility/1.0/">
	<!ENTITY ns_ai "http://ns.adobe.com/AdobeIllustrator/10.0/">
	<!ENTITY ns_graphs "http://ns.adobe.com/Graphs/1.0/">
]>
<svg version="1.1" xmlns:x="&ns_extend;" xmlns:i="&ns_ai;" xmlns:graph="&ns_graphs;"
	 xmlns="http://www.w3.org/2000/svg" xmlns:xlink="http://www.w3.org/1999/xlink" xmlns:a="http://ns.adobe.com/AdobeSVGViewerExtensions/3.0/"
	 x="0px" y="0px" width="64px" height="64px" viewBox="0 0 64 64" enable-background="new 0 0 64 64" xml:space="preserve">
<g id="Layer_1" display="none">
	<g id="Layer_1_4_" display="inline">
		<g id="Layer_1_3_">
			<g id="Layer_1_2_">
				<g id="Layer_1_1_">
					<g>
						
							<rect x="-0.062" y="0.181" fill="#FFFFFF" stroke="#D1D3D4" stroke-width="0.25" stroke-miterlimit="10" width="8" height="8"/>
						
							<rect x="7.938" y="0.181" fill="#FFFFFF" stroke="#D1D3D4" stroke-width="0.25" stroke-miterlimit="10" width="8" height="8"/>
						
							<rect x="15.938" y="0.181" fill="#FFFFFF" stroke="#D1D3D4" stroke-width="0.25" stroke-miterlimit="10" width="8" height="8"/>
						
							<rect x="23.938" y="0.181" fill="#FFFFFF" stroke="#D1D3D4" stroke-width="0.25" stroke-miterlimit="10" width="8" height="8"/>
						
							<rect x="31.937" y="0.181" fill="#FFFFFF" stroke="#D1D3D4" stroke-width="0.25" stroke-miterlimit="10" width="8" height="8"/>
						
							<rect x="39.938" y="0.181" fill="#FFFFFF" stroke="#D1D3D4" stroke-width="0.25" stroke-miterlimit="10" width="8" height="8"/>
						
							<rect x="47.938" y="0.181" fill="#FFFFFF" stroke="#D1D3D4" stroke-width="0.25" stroke-miterlimit="10" width="8" height="8"/>
						
							<rect x="55.938" y="0.181" fill="#FFFFFF" stroke="#D1D3D4" stroke-width="0.25" stroke-miterlimit="10" width="8" height="8"/>
						
							<rect x="-0.062" y="8.181" fill="#FFFFFF" stroke="#D1D3D4" stroke-width="0.25" stroke-miterlimit="10" width="8" height="8"/>
						
							<rect x="7.938" y="8.181" fill="#FFFFFF" stroke="#D1D3D4" stroke-width="0.25" stroke-miterlimit="10" width="8" height="8"/>
						
							<rect x="15.938" y="8.181" fill="#FFFFFF" stroke="#D1D3D4" stroke-width="0.25" stroke-miterlimit="10" width="8" height="8"/>
						
							<rect x="23.938" y="8.181" fill="#FFFFFF" stroke="#D1D3D4" stroke-width="0.25" stroke-miterlimit="10" width="8" height="8"/>
						
							<rect x="31.937" y="8.181" fill="#FFFFFF" stroke="#D1D3D4" stroke-width="0.25" stroke-miterlimit="10" width="8" height="8"/>
						
							<rect x="39.938" y="8.181" fill="#FFFFFF" stroke="#D1D3D4" stroke-width="0.25" stroke-miterlimit="10" width="8" height="8"/>
						
							<rect x="47.938" y="8.181" fill="#FFFFFF" stroke="#D1D3D4" stroke-width="0.25" stroke-miterlimit="10" width="8" height="8"/>
						
							<rect x="55.938" y="8.181" fill="#FFFFFF" stroke="#D1D3D4" stroke-width="0.25" stroke-miterlimit="10" width="8" height="8"/>
						
							<rect x="-0.062" y="16.181" fill="#FFFFFF" stroke="#D1D3D4" stroke-width="0.25" stroke-miterlimit="10" width="8" height="8"/>
						
							<rect x="7.938" y="16.181" fill="#FFFFFF" stroke="#D1D3D4" stroke-width="0.25" stroke-miterlimit="10" width="8" height="8"/>
						
							<rect x="15.938" y="16.181" fill="#FFFFFF" stroke="#D1D3D4" stroke-width="0.25" stroke-miterlimit="10" width="8" height="8"/>
						
							<rect x="23.938" y="16.181" fill="#FFFFFF" stroke="#D1D3D4" stroke-width="0.25" stroke-miterlimit="10" width="8" height="8"/>
						
							<rect x="31.937" y="16.181" fill="#FFFFFF" stroke="#D1D3D4" stroke-width="0.25" stroke-miterlimit="10" width="8" height="8"/>
						
							<rect x="39.938" y="16.181" fill="#FFFFFF" stroke="#D1D3D4" stroke-width="0.25" stroke-miterlimit="10" width="8" height="8"/>
						
							<rect x="47.938" y="16.181" fill="#FFFFFF" stroke="#D1D3D4" stroke-width="0.25" stroke-miterlimit="10" width="8" height="8"/>
						
							<rect x="55.938" y="16.181" fill="#FFFFFF" stroke="#D1D3D4" stroke-width="0.25" stroke-miterlimit="10" width="8" height="8"/>
						
							<rect x="-0.062" y="24.181" fill="#FFFFFF" stroke="#D1D3D4" stroke-width="0.25" stroke-miterlimit="10" width="8" height="8"/>
						
							<rect x="7.938" y="24.181" fill="#FFFFFF" stroke="#D1D3D4" stroke-width="0.25" stroke-miterlimit="10" width="8" height="8"/>
						
							<rect x="15.938" y="24.181" fill="#FFFFFF" stroke="#D1D3D4" stroke-width="0.25" stroke-miterlimit="10" width="8" height="8"/>
						
							<rect x="23.938" y="24.181" fill="#FFFFFF" stroke="#D1D3D4" stroke-width="0.25" stroke-miterlimit="10" width="8" height="8"/>
						
							<rect x="31.937" y="24.181" fill="#FFFFFF" stroke="#D1D3D4" stroke-width="0.25" stroke-miterlimit="10" width="8" height="8"/>
						
							<rect x="39.938" y="24.181" fill="#FFFFFF" stroke="#D1D3D4" stroke-width="0.25" stroke-miterlimit="10" width="8" height="8"/>
						
							<rect x="47.938" y="24.181" fill="#FFFFFF" stroke="#D1D3D4" stroke-width="0.25" stroke-miterlimit="10" width="8" height="8"/>
						
							<rect x="55.938" y="24.181" fill="#FFFFFF" stroke="#D1D3D4" stroke-width="0.25" stroke-miterlimit="10" width="8" height="8"/>
						
							<rect x="-0.062" y="32.181" fill="#FFFFFF" stroke="#D1D3D4" stroke-width="0.25" stroke-miterlimit="10" width="8" height="8"/>
						
							<rect x="7.938" y="32.181" fill="#FFFFFF" stroke="#D1D3D4" stroke-width="0.25" stroke-miterlimit="10" width="8" height="8"/>
						
							<rect x="15.938" y="32.181" fill="#FFFFFF" stroke="#D1D3D4" stroke-width="0.25" stroke-miterlimit="10" width="8" height="8"/>
						
							<rect x="23.938" y="32.181" fill="#FFFFFF" stroke="#D1D3D4" stroke-width="0.25" stroke-miterlimit="10" width="8" height="8"/>
						
							<rect x="31.937" y="32.181" fill="#FFFFFF" stroke="#D1D3D4" stroke-width="0.25" stroke-miterlimit="10" width="8" height="8"/>
						
							<rect x="39.938" y="32.181" fill="#FFFFFF" stroke="#D1D3D4" stroke-width="0.25" stroke-miterlimit="10" width="8" height="8"/>
						
							<rect x="47.938" y="32.181" fill="#FFFFFF" stroke="#D1D3D4" stroke-width="0.25" stroke-miterlimit="10" width="8" height="8"/>
						
							<rect x="55.938" y="32.181" fill="#FFFFFF" stroke="#D1D3D4" stroke-width="0.25" stroke-miterlimit="10" width="8" height="8"/>
						
							<rect x="-0.062" y="40.182" fill="#FFFFFF" stroke="#D1D3D4" stroke-width="0.25" stroke-miterlimit="10" width="8" height="8"/>
						
							<rect x="7.938" y="40.182" fill="#FFFFFF" stroke="#D1D3D4" stroke-width="0.25" stroke-miterlimit="10" width="8" height="8"/>
						
							<rect x="15.938" y="40.182" fill="#FFFFFF" stroke="#D1D3D4" stroke-width="0.25" stroke-miterlimit="10" width="8" height="8"/>
						
							<rect x="23.938" y="40.182" fill="#FFFFFF" stroke="#D1D3D4" stroke-width="0.25" stroke-miterlimit="10" width="8" height="8"/>
						
							<rect x="31.937" y="40.182" fill="#FFFFFF" stroke="#D1D3D4" stroke-width="0.25" stroke-miterlimit="10" width="8" height="8"/>
						
							<rect x="39.938" y="40.182" fill="#FFFFFF" stroke="#D1D3D4" stroke-width="0.25" stroke-miterlimit="10" width="8" height="8"/>
						
							<rect x="47.938" y="40.182" fill="#FFFFFF" stroke="#D1D3D4" stroke-width="0.25" stroke-miterlimit="10" width="8" height="8"/>
						
							<rect x="55.938" y="40.182" fill="#FFFFFF" stroke="#D1D3D4" stroke-width="0.25" stroke-miterlimit="10" width="8" height="8"/>
						
							<rect x="-0.062" y="48.182" fill="#FFFFFF" stroke="#D1D3D4" stroke-width="0.25" stroke-miterlimit="10" width="8" height="8"/>
						
							<rect x="7.938" y="48.182" fill="#FFFFFF" stroke="#D1D3D4" stroke-width="0.25" stroke-miterlimit="10" width="8" height="8"/>
						
							<rect x="15.938" y="48.182" fill="#FFFFFF" stroke="#D1D3D4" stroke-width="0.25" stroke-miterlimit="10" width="8" height="8"/>
						
							<rect x="23.938" y="48.182" fill="#FFFFFF" stroke="#D1D3D4" stroke-width="0.25" stroke-miterlimit="10" width="8" height="8"/>
						
							<rect x="31.937" y="48.182" fill="#FFFFFF" stroke="#D1D3D4" stroke-width="0.25" stroke-miterlimit="10" width="8" height="8"/>
						
							<rect x="39.938" y="48.182" fill="#FFFFFF" stroke="#D1D3D4" stroke-width="0.25" stroke-miterlimit="10" width="8" height="8"/>
						
							<rect x="47.938" y="48.182" fill="#FFFFFF" stroke="#D1D3D4" stroke-width="0.25" stroke-miterlimit="10" width="8" height="8"/>
						
							<rect x="55.938" y="48.182" fill="#FFFFFF" stroke="#D1D3D4" stroke-width="0.25" stroke-miterlimit="10" width="8" height="8"/>
						
							<rect x="-0.062" y="56.182" fill="#FFFFFF" stroke="#D1D3D4" stroke-width="0.25" stroke-miterlimit="10" width="8" height="8"/>
						
							<rect x="7.938" y="56.182" fill="#FFFFFF" stroke="#D1D3D4" stroke-width="0.25" stroke-miterlimit="10" width="8" height="8"/>
						
							<rect x="15.938" y="56.182" fill="#FFFFFF" stroke="#D1D3D4" stroke-width="0.25" stroke-miterlimit="10" width="8" height="8"/>
						
							<rect x="23.938" y="56.182" fill="#FFFFFF" stroke="#D1D3D4" stroke-width="0.25" stroke-miterlimit="10" width="8" height="8"/>
						
							<rect x="31.937" y="56.182" fill="#FFFFFF" stroke="#D1D3D4" stroke-width="0.25" stroke-miterlimit="10" width="8" height="8"/>
						
							<rect x="39.938" y="56.182" fill="#FFFFFF" stroke="#D1D3D4" stroke-width="0.25" stroke-miterlimit="10" width="8" height="8"/>
						
							<rect x="47.938" y="56.182" fill="#FFFFFF" stroke="#D1D3D4" stroke-width="0.25" stroke-miterlimit="10" width="8" height="8"/>
						
							<rect x="55.938" y="56.182" fill="#FFFFFF" stroke="#D1D3D4" stroke-width="0.25" stroke-miterlimit="10" width="8" height="8"/>
					</g>
				</g>
			</g>
		</g>
	</g>
</g>
<g id="Layer_2">
	<g>
		<g>
			<path fill-rule="evenodd" clip-rule="evenodd" d="M63.157,43.612L52.509,21.956H39.628c-1.062-3.355-4.817-4.411-4.584-7.321
				c0.265-3.283,3.596-5.912,3.596-5.912c0.935-0.767,0.363-2.083-0.552-2.083s-1.971,0.511-2.762,1.158c0,0-3.068,3.709-3.32,6.837
				c-0.227,2.827,2.709,5.033,4.097,7.321h-3.446c-1.099-1.792-2.39-3.185-2.574-5.196c-0.307-3.354,1.094-6.29,1.094-6.29
				c0.223-0.98,0.368-2.188-0.547-2.188c-0.916,0-1.421,0.154-2.142,1.157c0,0-1.462,2.81-0.858,7.931
				c0.203,1.72,1.086,3.177,1.885,4.586h-0.971c-1.189-3.832-5.527-5.088-5.299-8.478c0.261-3.879,4.102-6.017,4.102-6.017
				C28.274,6.555,27.708,5,26.801,5c-0.906,0-1.951,0.604-2.734,1.367c0,0-3.58,3.415-3.829,7.111
				c-0.22,3.27,3.129,5.836,4.72,8.478H10.119L0.148,43.871L0,58.875h63.447L63.157,43.612z M12.854,26.332h13.002
				c-0.356,4.204-3.156,8.479-3.156,8.479c-0.285,0.977,0.461,2.188,1.368,2.188c0.906,0,1.914-0.188,1.914-1.094
				c0,0,2.312-4.898,2.814-9.573h2.101c-0.112,4.18-1.874,6.08-1.874,6.08c-0.288,0.827,0.466,1.853,1.381,1.853
				c0.915,0,1.933-0.16,1.933-0.928c0,0,2.229-3.073,1.86-7.004h2.538c-0.654,3.271-3.062,6.353-3.062,6.353
				c-0.288,0.827,0.466,1.853,1.381,1.853s1.933-0.16,1.933-0.928c0,0,2.024-3.591,2.715-7.278h9.8l9.024,18.596H5.47L12.854,26.332
				z M35.553,48.758c-1.319,1.891-1.631,2.625-4.102,2.734c-2.308,0.101-4.103-2.734-4.103-2.734S35.53,48.744,35.553,48.758z
				 M60.166,54.228c0,0-10.428,0-22.335,0c-0.674,0.5-4.209,1.641-6.061,1.641c-2.233,0-5.427-1.186-6.108-1.641
				c-11.811,0-22.106,0-22.106,0v-5.47h20.125c0.772,2.065,2.697,5.824,6.676,6.563c4.502,0.834,8.238-3.688,9.293-6.563h20.516
				V54.228z M51.141,34.811c-1.739-1.681-3.554,0-3.554,0l-1.642,1.641h-1.094l-1.915,1.641h-0.819l-0.821,0.547
				c-1.684,0.797-0.819,2.461-0.819,2.461l2.46,2.187c0.101,0.963,1.915,0.275,1.915,0.275l1.913-1.369l1.094-0.272
				c1.105-0.051,1.369-2.734,1.369-2.734l-0.274-1.914l1.641-0.82C51.431,35.761,51.141,34.811,51.141,34.811z"/>
		</g>
	</g>
</g>
</svg>
