<?xml version="1.0" encoding="utf-8"?>
<!-- Generator: Adobe Illustrator 16.2.1, SVG Export Plug-In . SVG Version: 6.00 Build 0)  -->
<!DOCTYPE svg PUBLIC "-//W3C//DTD SVG 1.1//EN" "http://www.w3.org/Graphics/SVG/1.1/DTD/svg11.dtd">
<svg version="1.1" xmlns="http://www.w3.org/2000/svg" xmlns:xlink="http://www.w3.org/1999/xlink" x="0px" y="0px" width="64px"
	 height="64px" viewBox="0 0 64 64" enable-background="new 0 0 64 64" xml:space="preserve">
<g id="Layer_1" display="none">
	<g id="Layer_1_4_">
		<g id="Layer_1_3_" display="inline">
			<g id="Layer_1_2_">
				<g id="Layer_1_1_">
					<g>
						
							<rect x="-0.062" y="0.181" fill="#FFFFFF" stroke="#D1D3D4" stroke-width="0.25" stroke-miterlimit="10" width="8" height="8"/>
						
							<rect x="7.938" y="0.181" fill="#FFFFFF" stroke="#D1D3D4" stroke-width="0.25" stroke-miterlimit="10" width="8" height="8"/>
						
							<rect x="15.938" y="0.181" fill="#FFFFFF" stroke="#D1D3D4" stroke-width="0.25" stroke-miterlimit="10" width="8" height="8"/>
						
							<rect x="23.938" y="0.181" fill="#FFFFFF" stroke="#D1D3D4" stroke-width="0.25" stroke-miterlimit="10" width="8" height="8"/>
						
							<rect x="31.937" y="0.181" fill="#FFFFFF" stroke="#D1D3D4" stroke-width="0.25" stroke-miterlimit="10" width="8" height="8"/>
						
							<rect x="39.938" y="0.181" fill="#FFFFFF" stroke="#D1D3D4" stroke-width="0.25" stroke-miterlimit="10" width="8" height="8"/>
						
							<rect x="47.938" y="0.181" fill="#FFFFFF" stroke="#D1D3D4" stroke-width="0.25" stroke-miterlimit="10" width="8" height="8"/>
						
							<rect x="55.938" y="0.181" fill="#FFFFFF" stroke="#D1D3D4" stroke-width="0.25" stroke-miterlimit="10" width="8" height="8"/>
						
							<rect x="-0.062" y="8.181" fill="#FFFFFF" stroke="#D1D3D4" stroke-width="0.25" stroke-miterlimit="10" width="8" height="8"/>
						
							<rect x="7.938" y="8.181" fill="#FFFFFF" stroke="#D1D3D4" stroke-width="0.25" stroke-miterlimit="10" width="8" height="8"/>
						
							<rect x="15.938" y="8.181" fill="#FFFFFF" stroke="#D1D3D4" stroke-width="0.25" stroke-miterlimit="10" width="8" height="8"/>
						
							<rect x="23.938" y="8.181" fill="#FFFFFF" stroke="#D1D3D4" stroke-width="0.25" stroke-miterlimit="10" width="8" height="8"/>
						
							<rect x="31.937" y="8.181" fill="#FFFFFF" stroke="#D1D3D4" stroke-width="0.25" stroke-miterlimit="10" width="8" height="8"/>
						
							<rect x="39.938" y="8.181" fill="#FFFFFF" stroke="#D1D3D4" stroke-width="0.25" stroke-miterlimit="10" width="8" height="8"/>
						
							<rect x="47.938" y="8.181" fill="#FFFFFF" stroke="#D1D3D4" stroke-width="0.25" stroke-miterlimit="10" width="8" height="8"/>
						
							<rect x="55.938" y="8.181" fill="#FFFFFF" stroke="#D1D3D4" stroke-width="0.25" stroke-miterlimit="10" width="8" height="8"/>
						
							<rect x="-0.062" y="16.181" fill="#FFFFFF" stroke="#D1D3D4" stroke-width="0.25" stroke-miterlimit="10" width="8" height="8"/>
						
							<rect x="7.938" y="16.181" fill="#FFFFFF" stroke="#D1D3D4" stroke-width="0.25" stroke-miterlimit="10" width="8" height="8"/>
						
							<rect x="15.938" y="16.181" fill="#FFFFFF" stroke="#D1D3D4" stroke-width="0.25" stroke-miterlimit="10" width="8" height="8"/>
						
							<rect x="23.938" y="16.181" fill="#FFFFFF" stroke="#D1D3D4" stroke-width="0.25" stroke-miterlimit="10" width="8" height="8"/>
						
							<rect x="31.937" y="16.181" fill="#FFFFFF" stroke="#D1D3D4" stroke-width="0.25" stroke-miterlimit="10" width="8" height="8"/>
						
							<rect x="39.938" y="16.181" fill="#FFFFFF" stroke="#D1D3D4" stroke-width="0.25" stroke-miterlimit="10" width="8" height="8"/>
						
							<rect x="47.938" y="16.181" fill="#FFFFFF" stroke="#D1D3D4" stroke-width="0.25" stroke-miterlimit="10" width="8" height="8"/>
						
							<rect x="55.938" y="16.181" fill="#FFFFFF" stroke="#D1D3D4" stroke-width="0.25" stroke-miterlimit="10" width="8" height="8"/>
						
							<rect x="-0.062" y="24.181" fill="#FFFFFF" stroke="#D1D3D4" stroke-width="0.25" stroke-miterlimit="10" width="8" height="8"/>
						
							<rect x="7.938" y="24.181" fill="#FFFFFF" stroke="#D1D3D4" stroke-width="0.25" stroke-miterlimit="10" width="8" height="8"/>
						
							<rect x="15.938" y="24.181" fill="#FFFFFF" stroke="#D1D3D4" stroke-width="0.25" stroke-miterlimit="10" width="8" height="8"/>
						
							<rect x="23.938" y="24.181" fill="#FFFFFF" stroke="#D1D3D4" stroke-width="0.25" stroke-miterlimit="10" width="8" height="8"/>
						
							<rect x="31.937" y="24.181" fill="#FFFFFF" stroke="#D1D3D4" stroke-width="0.25" stroke-miterlimit="10" width="8" height="8"/>
						
							<rect x="39.938" y="24.181" fill="#FFFFFF" stroke="#D1D3D4" stroke-width="0.25" stroke-miterlimit="10" width="8" height="8"/>
						
							<rect x="47.938" y="24.181" fill="#FFFFFF" stroke="#D1D3D4" stroke-width="0.25" stroke-miterlimit="10" width="8" height="8"/>
						
							<rect x="55.938" y="24.181" fill="#FFFFFF" stroke="#D1D3D4" stroke-width="0.25" stroke-miterlimit="10" width="8" height="8"/>
						
							<rect x="-0.062" y="32.181" fill="#FFFFFF" stroke="#D1D3D4" stroke-width="0.25" stroke-miterlimit="10" width="8" height="8"/>
						
							<rect x="7.938" y="32.181" fill="#FFFFFF" stroke="#D1D3D4" stroke-width="0.25" stroke-miterlimit="10" width="8" height="8"/>
						
							<rect x="15.938" y="32.181" fill="#FFFFFF" stroke="#D1D3D4" stroke-width="0.25" stroke-miterlimit="10" width="8" height="8"/>
						
							<rect x="23.938" y="32.181" fill="#FFFFFF" stroke="#D1D3D4" stroke-width="0.25" stroke-miterlimit="10" width="8" height="8"/>
						
							<rect x="31.937" y="32.181" fill="#FFFFFF" stroke="#D1D3D4" stroke-width="0.25" stroke-miterlimit="10" width="8" height="8"/>
						
							<rect x="39.938" y="32.181" fill="#FFFFFF" stroke="#D1D3D4" stroke-width="0.25" stroke-miterlimit="10" width="8" height="8"/>
						
							<rect x="47.938" y="32.181" fill="#FFFFFF" stroke="#D1D3D4" stroke-width="0.25" stroke-miterlimit="10" width="8" height="8"/>
						
							<rect x="55.938" y="32.181" fill="#FFFFFF" stroke="#D1D3D4" stroke-width="0.25" stroke-miterlimit="10" width="8" height="8"/>
						
							<rect x="-0.062" y="40.182" fill="#FFFFFF" stroke="#D1D3D4" stroke-width="0.25" stroke-miterlimit="10" width="8" height="8"/>
						
							<rect x="7.938" y="40.182" fill="#FFFFFF" stroke="#D1D3D4" stroke-width="0.25" stroke-miterlimit="10" width="8" height="8"/>
						
							<rect x="15.938" y="40.182" fill="#FFFFFF" stroke="#D1D3D4" stroke-width="0.25" stroke-miterlimit="10" width="8" height="8"/>
						
							<rect x="23.938" y="40.182" fill="#FFFFFF" stroke="#D1D3D4" stroke-width="0.25" stroke-miterlimit="10" width="8" height="8"/>
						
							<rect x="31.937" y="40.182" fill="#FFFFFF" stroke="#D1D3D4" stroke-width="0.25" stroke-miterlimit="10" width="8" height="8"/>
						
							<rect x="39.938" y="40.182" fill="#FFFFFF" stroke="#D1D3D4" stroke-width="0.25" stroke-miterlimit="10" width="8" height="8"/>
						
							<rect x="47.938" y="40.182" fill="#FFFFFF" stroke="#D1D3D4" stroke-width="0.25" stroke-miterlimit="10" width="8" height="8"/>
						
							<rect x="55.938" y="40.182" fill="#FFFFFF" stroke="#D1D3D4" stroke-width="0.25" stroke-miterlimit="10" width="8" height="8"/>
						
							<rect x="-0.062" y="48.182" fill="#FFFFFF" stroke="#D1D3D4" stroke-width="0.25" stroke-miterlimit="10" width="8" height="8"/>
						
							<rect x="7.938" y="48.182" fill="#FFFFFF" stroke="#D1D3D4" stroke-width="0.25" stroke-miterlimit="10" width="8" height="8"/>
						
							<rect x="15.938" y="48.182" fill="#FFFFFF" stroke="#D1D3D4" stroke-width="0.25" stroke-miterlimit="10" width="8" height="8"/>
						
							<rect x="23.938" y="48.182" fill="#FFFFFF" stroke="#D1D3D4" stroke-width="0.25" stroke-miterlimit="10" width="8" height="8"/>
						
							<rect x="31.937" y="48.182" fill="#FFFFFF" stroke="#D1D3D4" stroke-width="0.25" stroke-miterlimit="10" width="8" height="8"/>
						
							<rect x="39.938" y="48.182" fill="#FFFFFF" stroke="#D1D3D4" stroke-width="0.25" stroke-miterlimit="10" width="8" height="8"/>
						
							<rect x="47.938" y="48.182" fill="#FFFFFF" stroke="#D1D3D4" stroke-width="0.25" stroke-miterlimit="10" width="8" height="8"/>
						
							<rect x="55.938" y="48.182" fill="#FFFFFF" stroke="#D1D3D4" stroke-width="0.25" stroke-miterlimit="10" width="8" height="8"/>
						
							<rect x="-0.062" y="56.182" fill="#FFFFFF" stroke="#D1D3D4" stroke-width="0.25" stroke-miterlimit="10" width="8" height="8"/>
						
							<rect x="7.938" y="56.182" fill="#FFFFFF" stroke="#D1D3D4" stroke-width="0.25" stroke-miterlimit="10" width="8" height="8"/>
						
							<rect x="15.938" y="56.182" fill="#FFFFFF" stroke="#D1D3D4" stroke-width="0.25" stroke-miterlimit="10" width="8" height="8"/>
						
							<rect x="23.938" y="56.182" fill="#FFFFFF" stroke="#D1D3D4" stroke-width="0.25" stroke-miterlimit="10" width="8" height="8"/>
						
							<rect x="31.937" y="56.182" fill="#FFFFFF" stroke="#D1D3D4" stroke-width="0.25" stroke-miterlimit="10" width="8" height="8"/>
						
							<rect x="39.938" y="56.182" fill="#FFFFFF" stroke="#D1D3D4" stroke-width="0.25" stroke-miterlimit="10" width="8" height="8"/>
						
							<rect x="47.938" y="56.182" fill="#FFFFFF" stroke="#D1D3D4" stroke-width="0.25" stroke-miterlimit="10" width="8" height="8"/>
						
							<rect x="55.938" y="56.182" fill="#FFFFFF" stroke="#D1D3D4" stroke-width="0.25" stroke-miterlimit="10" width="8" height="8"/>
					</g>
				</g>
			</g>
		</g>
	</g>
</g>
<g id="Layer_2">
	<path d="M51.412,26.786c-0.837,0-1.654,0.085-2.442,0.247L43.943,14H36.62v2.708h5.471l2.326,6.032l-17.618,6.136l-4.358-6.818
		l-2.388-4.019h2.868v-2.708h-9.18v2.708h3.164l2.815,4.737l-2.819,4.986c-1.463-0.628-3.074-0.977-4.765-0.977
		C5.445,26.786,0,32.238,0,38.939c0,6.699,5.445,12.151,12.137,12.151c6.001,0,10.998-4.384,11.965-10.122l7.204,0.406l-1.202,2.039
		h-1.535v2.708h4.242v-1.974l4.553-7.724h1.183v-2.708h-4.243v2.572l-1.328,2.252l-4.679-7.321l17.093-5.952l1.005,2.606
		c-4.195,1.915-7.119,6.154-7.119,11.065c0,6.699,5.444,12.151,12.136,12.151c6.692,0,12.137-5.452,12.137-12.151
		C63.548,32.238,58.104,26.786,51.412,26.786z M12.137,48.383c-5.201,0-9.433-4.236-9.433-9.443c0-5.209,4.231-9.445,9.433-9.445
		c1.207,0,2.36,0.23,3.421,0.646L9.889,40.168l11.492,0.648C20.509,45.127,16.696,48.383,12.137,48.383z M21.531,38.111
		l-7.145-0.402l3.524-6.232C19.929,33.047,21.296,35.418,21.531,38.111z M24.254,38.266c-0.207-3.765-2.131-7.078-5.001-9.165
		l2.103-3.719l8.432,13.195L24.254,38.266z M51.412,48.383c-5.201,0-9.433-4.236-9.433-9.443c0-3.762,2.207-7.015,5.392-8.533
		l3.917,10.16l2.521-0.977l-3.849-9.984c0.474-0.073,0.957-0.111,1.451-0.111c5.201,0,9.432,4.236,9.432,9.445
		C60.844,44.146,56.613,48.383,51.412,48.383z"/>
</g>
</svg>
