<?xml version="1.0" encoding="utf-8"?>
<!-- Generator: Adobe Illustrator 16.2.1, SVG Export Plug-In . SVG Version: 6.00 Build 0)  -->
<!DOCTYPE svg PUBLIC "-//W3C//DTD SVG 1.1//EN" "http://www.w3.org/Graphics/SVG/1.1/DTD/svg11.dtd" [
	<!ENTITY ns_flows "http://ns.adobe.com/Flows/1.0/">
	<!ENTITY ns_extend "http://ns.adobe.com/Extensibility/1.0/">
	<!ENTITY ns_ai "http://ns.adobe.com/AdobeIllustrator/10.0/">
	<!ENTITY ns_graphs "http://ns.adobe.com/Graphs/1.0/">
]>
<svg version="1.1" xmlns:x="&ns_extend;" xmlns:i="&ns_ai;" xmlns:graph="&ns_graphs;"
	 xmlns="http://www.w3.org/2000/svg" xmlns:xlink="http://www.w3.org/1999/xlink" xmlns:a="http://ns.adobe.com/AdobeSVGViewerExtensions/3.0/"
	 x="0px" y="0px" width="64px" height="64px" viewBox="0 0 64 64" enable-background="new 0 0 64 64" xml:space="preserve">
<g id="Layer_1">
	<g id="Layer_1_2_" display="none">
		<g id="Layer_1_1_" display="inline">
			<g>
				<rect x="-0.062" y="0.181" fill="#FFFFFF" stroke="#D1D3D4" stroke-width="0.25" stroke-miterlimit="10" width="8" height="8"/>
				<rect x="7.938" y="0.181" fill="#FFFFFF" stroke="#D1D3D4" stroke-width="0.25" stroke-miterlimit="10" width="8" height="8"/>
				<rect x="15.938" y="0.181" fill="#FFFFFF" stroke="#D1D3D4" stroke-width="0.25" stroke-miterlimit="10" width="8" height="8"/>
				<rect x="23.938" y="0.181" fill="#FFFFFF" stroke="#D1D3D4" stroke-width="0.25" stroke-miterlimit="10" width="8" height="8"/>
				<rect x="31.937" y="0.181" fill="#FFFFFF" stroke="#D1D3D4" stroke-width="0.25" stroke-miterlimit="10" width="8" height="8"/>
				<rect x="39.938" y="0.181" fill="#FFFFFF" stroke="#D1D3D4" stroke-width="0.25" stroke-miterlimit="10" width="8" height="8"/>
				<rect x="47.938" y="0.181" fill="#FFFFFF" stroke="#D1D3D4" stroke-width="0.25" stroke-miterlimit="10" width="8" height="8"/>
				<rect x="55.938" y="0.181" fill="#FFFFFF" stroke="#D1D3D4" stroke-width="0.25" stroke-miterlimit="10" width="8" height="8"/>
				<rect x="-0.062" y="8.181" fill="#FFFFFF" stroke="#D1D3D4" stroke-width="0.25" stroke-miterlimit="10" width="8" height="8"/>
				<rect x="7.938" y="8.181" fill="#FFFFFF" stroke="#D1D3D4" stroke-width="0.25" stroke-miterlimit="10" width="8" height="8"/>
				<rect x="15.938" y="8.181" fill="#FFFFFF" stroke="#D1D3D4" stroke-width="0.25" stroke-miterlimit="10" width="8" height="8"/>
				<rect x="23.938" y="8.181" fill="#FFFFFF" stroke="#D1D3D4" stroke-width="0.25" stroke-miterlimit="10" width="8" height="8"/>
				<rect x="31.937" y="8.181" fill="#FFFFFF" stroke="#D1D3D4" stroke-width="0.25" stroke-miterlimit="10" width="8" height="8"/>
				<rect x="39.938" y="8.181" fill="#FFFFFF" stroke="#D1D3D4" stroke-width="0.25" stroke-miterlimit="10" width="8" height="8"/>
				<rect x="47.938" y="8.181" fill="#FFFFFF" stroke="#D1D3D4" stroke-width="0.25" stroke-miterlimit="10" width="8" height="8"/>
				<rect x="55.938" y="8.181" fill="#FFFFFF" stroke="#D1D3D4" stroke-width="0.25" stroke-miterlimit="10" width="8" height="8"/>
				
					<rect x="-0.062" y="16.181" fill="#FFFFFF" stroke="#D1D3D4" stroke-width="0.25" stroke-miterlimit="10" width="8" height="8"/>
				<rect x="7.938" y="16.181" fill="#FFFFFF" stroke="#D1D3D4" stroke-width="0.25" stroke-miterlimit="10" width="8" height="8"/>
				
					<rect x="15.938" y="16.181" fill="#FFFFFF" stroke="#D1D3D4" stroke-width="0.25" stroke-miterlimit="10" width="8" height="8"/>
				
					<rect x="23.938" y="16.181" fill="#FFFFFF" stroke="#D1D3D4" stroke-width="0.25" stroke-miterlimit="10" width="8" height="8"/>
				
					<rect x="31.937" y="16.181" fill="#FFFFFF" stroke="#D1D3D4" stroke-width="0.25" stroke-miterlimit="10" width="8" height="8"/>
				
					<rect x="39.938" y="16.181" fill="#FFFFFF" stroke="#D1D3D4" stroke-width="0.25" stroke-miterlimit="10" width="8" height="8"/>
				
					<rect x="47.938" y="16.181" fill="#FFFFFF" stroke="#D1D3D4" stroke-width="0.25" stroke-miterlimit="10" width="8" height="8"/>
				
					<rect x="55.938" y="16.181" fill="#FFFFFF" stroke="#D1D3D4" stroke-width="0.25" stroke-miterlimit="10" width="8" height="8"/>
				
					<rect x="-0.062" y="24.181" fill="#FFFFFF" stroke="#D1D3D4" stroke-width="0.25" stroke-miterlimit="10" width="8" height="8"/>
				<rect x="7.938" y="24.181" fill="#FFFFFF" stroke="#D1D3D4" stroke-width="0.25" stroke-miterlimit="10" width="8" height="8"/>
				
					<rect x="15.938" y="24.181" fill="#FFFFFF" stroke="#D1D3D4" stroke-width="0.25" stroke-miterlimit="10" width="8" height="8"/>
				
					<rect x="23.938" y="24.181" fill="#FFFFFF" stroke="#D1D3D4" stroke-width="0.25" stroke-miterlimit="10" width="8" height="8"/>
				
					<rect x="31.937" y="24.181" fill="#FFFFFF" stroke="#D1D3D4" stroke-width="0.25" stroke-miterlimit="10" width="8" height="8"/>
				
					<rect x="39.938" y="24.181" fill="#FFFFFF" stroke="#D1D3D4" stroke-width="0.25" stroke-miterlimit="10" width="8" height="8"/>
				
					<rect x="47.938" y="24.181" fill="#FFFFFF" stroke="#D1D3D4" stroke-width="0.25" stroke-miterlimit="10" width="8" height="8"/>
				
					<rect x="55.938" y="24.181" fill="#FFFFFF" stroke="#D1D3D4" stroke-width="0.25" stroke-miterlimit="10" width="8" height="8"/>
				
					<rect x="-0.062" y="32.181" fill="#FFFFFF" stroke="#D1D3D4" stroke-width="0.25" stroke-miterlimit="10" width="8" height="8"/>
				<rect x="7.938" y="32.181" fill="#FFFFFF" stroke="#D1D3D4" stroke-width="0.25" stroke-miterlimit="10" width="8" height="8"/>
				
					<rect x="15.938" y="32.181" fill="#FFFFFF" stroke="#D1D3D4" stroke-width="0.25" stroke-miterlimit="10" width="8" height="8"/>
				
					<rect x="23.938" y="32.181" fill="#FFFFFF" stroke="#D1D3D4" stroke-width="0.25" stroke-miterlimit="10" width="8" height="8"/>
				
					<rect x="31.937" y="32.181" fill="#FFFFFF" stroke="#D1D3D4" stroke-width="0.25" stroke-miterlimit="10" width="8" height="8"/>
				
					<rect x="39.938" y="32.181" fill="#FFFFFF" stroke="#D1D3D4" stroke-width="0.25" stroke-miterlimit="10" width="8" height="8"/>
				
					<rect x="47.938" y="32.181" fill="#FFFFFF" stroke="#D1D3D4" stroke-width="0.25" stroke-miterlimit="10" width="8" height="8"/>
				
					<rect x="55.938" y="32.181" fill="#FFFFFF" stroke="#D1D3D4" stroke-width="0.25" stroke-miterlimit="10" width="8" height="8"/>
				
					<rect x="-0.062" y="40.182" fill="#FFFFFF" stroke="#D1D3D4" stroke-width="0.25" stroke-miterlimit="10" width="8" height="8"/>
				<rect x="7.938" y="40.182" fill="#FFFFFF" stroke="#D1D3D4" stroke-width="0.25" stroke-miterlimit="10" width="8" height="8"/>
				
					<rect x="15.938" y="40.182" fill="#FFFFFF" stroke="#D1D3D4" stroke-width="0.25" stroke-miterlimit="10" width="8" height="8"/>
				
					<rect x="23.938" y="40.182" fill="#FFFFFF" stroke="#D1D3D4" stroke-width="0.25" stroke-miterlimit="10" width="8" height="8"/>
				
					<rect x="31.937" y="40.182" fill="#FFFFFF" stroke="#D1D3D4" stroke-width="0.25" stroke-miterlimit="10" width="8" height="8"/>
				
					<rect x="39.938" y="40.182" fill="#FFFFFF" stroke="#D1D3D4" stroke-width="0.25" stroke-miterlimit="10" width="8" height="8"/>
				
					<rect x="47.938" y="40.182" fill="#FFFFFF" stroke="#D1D3D4" stroke-width="0.25" stroke-miterlimit="10" width="8" height="8"/>
				
					<rect x="55.938" y="40.182" fill="#FFFFFF" stroke="#D1D3D4" stroke-width="0.25" stroke-miterlimit="10" width="8" height="8"/>
				
					<rect x="-0.062" y="48.182" fill="#FFFFFF" stroke="#D1D3D4" stroke-width="0.25" stroke-miterlimit="10" width="8" height="8"/>
				<rect x="7.938" y="48.182" fill="#FFFFFF" stroke="#D1D3D4" stroke-width="0.25" stroke-miterlimit="10" width="8" height="8"/>
				
					<rect x="15.938" y="48.182" fill="#FFFFFF" stroke="#D1D3D4" stroke-width="0.25" stroke-miterlimit="10" width="8" height="8"/>
				
					<rect x="23.938" y="48.182" fill="#FFFFFF" stroke="#D1D3D4" stroke-width="0.25" stroke-miterlimit="10" width="8" height="8"/>
				
					<rect x="31.937" y="48.182" fill="#FFFFFF" stroke="#D1D3D4" stroke-width="0.25" stroke-miterlimit="10" width="8" height="8"/>
				
					<rect x="39.938" y="48.182" fill="#FFFFFF" stroke="#D1D3D4" stroke-width="0.25" stroke-miterlimit="10" width="8" height="8"/>
				
					<rect x="47.938" y="48.182" fill="#FFFFFF" stroke="#D1D3D4" stroke-width="0.25" stroke-miterlimit="10" width="8" height="8"/>
				
					<rect x="55.938" y="48.182" fill="#FFFFFF" stroke="#D1D3D4" stroke-width="0.25" stroke-miterlimit="10" width="8" height="8"/>
				
					<rect x="-0.062" y="56.182" fill="#FFFFFF" stroke="#D1D3D4" stroke-width="0.25" stroke-miterlimit="10" width="8" height="8"/>
				<rect x="7.938" y="56.182" fill="#FFFFFF" stroke="#D1D3D4" stroke-width="0.25" stroke-miterlimit="10" width="8" height="8"/>
				
					<rect x="15.938" y="56.182" fill="#FFFFFF" stroke="#D1D3D4" stroke-width="0.25" stroke-miterlimit="10" width="8" height="8"/>
				
					<rect x="23.938" y="56.182" fill="#FFFFFF" stroke="#D1D3D4" stroke-width="0.25" stroke-miterlimit="10" width="8" height="8"/>
				
					<rect x="31.937" y="56.182" fill="#FFFFFF" stroke="#D1D3D4" stroke-width="0.25" stroke-miterlimit="10" width="8" height="8"/>
				
					<rect x="39.938" y="56.182" fill="#FFFFFF" stroke="#D1D3D4" stroke-width="0.25" stroke-miterlimit="10" width="8" height="8"/>
				
					<rect x="47.938" y="56.182" fill="#FFFFFF" stroke="#D1D3D4" stroke-width="0.25" stroke-miterlimit="10" width="8" height="8"/>
				
					<rect x="55.938" y="56.182" fill="#FFFFFF" stroke="#D1D3D4" stroke-width="0.25" stroke-miterlimit="10" width="8" height="8"/>
			</g>
		</g>
	</g>
</g>
<g id="Layer_2">
	<path fill-rule="evenodd" clip-rule="evenodd" fill="#FFFFFF" d="M24.694,63.801V35.203H15v-11.76h9.444V12.287
		c0,0,1.41-11.23,11.147-12.287H48.26v11.228h-8.49c0,0-3.091,0.458-2.949,4.175v7.809h11.495l-1.62,11.684h-9.512v28.927
		L24.694,63.801z"/>
</g>
</svg>
