<?xml version="1.0" encoding="utf-8"?>
<!-- Generator: Adobe Illustrator 16.2.1, SVG Export Plug-In . SVG Version: 6.00 Build 0)  -->
<!DOCTYPE svg PUBLIC "-//W3C//DTD SVG 1.1//EN" "http://www.w3.org/Graphics/SVG/1.1/DTD/svg11.dtd" [
	<!ENTITY ns_flows "http://ns.adobe.com/Flows/1.0/">
	<!ENTITY ns_extend "http://ns.adobe.com/Extensibility/1.0/">
	<!ENTITY ns_ai "http://ns.adobe.com/AdobeIllustrator/10.0/">
	<!ENTITY ns_graphs "http://ns.adobe.com/Graphs/1.0/">
]>
<svg version="1.1" xmlns:x="&ns_extend;" xmlns:i="&ns_ai;" xmlns:graph="&ns_graphs;"
	 xmlns="http://www.w3.org/2000/svg" xmlns:xlink="http://www.w3.org/1999/xlink" xmlns:a="http://ns.adobe.com/AdobeSVGViewerExtensions/3.0/"
	 x="0px" y="0px" width="64px" height="64px" viewBox="0 0 64 64" enable-background="new 0 0 64 64" xml:space="preserve">
<g id="Layer_1" display="none">
	<g id="Layer_1_2_">
		<g id="Layer_1_1_" display="inline">
			<g>
				<rect x="-0.062" y="0.181" fill="#FFFFFF" stroke="#D1D3D4" stroke-width="0.25" stroke-miterlimit="10" width="8" height="8"/>
				<rect x="7.938" y="0.181" fill="#FFFFFF" stroke="#D1D3D4" stroke-width="0.25" stroke-miterlimit="10" width="8" height="8"/>
				<rect x="15.938" y="0.181" fill="#FFFFFF" stroke="#D1D3D4" stroke-width="0.25" stroke-miterlimit="10" width="8" height="8"/>
				<rect x="23.938" y="0.181" fill="#FFFFFF" stroke="#D1D3D4" stroke-width="0.25" stroke-miterlimit="10" width="8" height="8"/>
				<rect x="31.937" y="0.181" fill="#FFFFFF" stroke="#D1D3D4" stroke-width="0.25" stroke-miterlimit="10" width="8" height="8"/>
				<rect x="39.938" y="0.181" fill="#FFFFFF" stroke="#D1D3D4" stroke-width="0.25" stroke-miterlimit="10" width="8" height="8"/>
				<rect x="47.938" y="0.181" fill="#FFFFFF" stroke="#D1D3D4" stroke-width="0.25" stroke-miterlimit="10" width="8" height="8"/>
				<rect x="55.938" y="0.181" fill="#FFFFFF" stroke="#D1D3D4" stroke-width="0.25" stroke-miterlimit="10" width="8" height="8"/>
				<rect x="-0.062" y="8.181" fill="#FFFFFF" stroke="#D1D3D4" stroke-width="0.25" stroke-miterlimit="10" width="8" height="8"/>
				<rect x="7.938" y="8.181" fill="#FFFFFF" stroke="#D1D3D4" stroke-width="0.25" stroke-miterlimit="10" width="8" height="8"/>
				<rect x="15.938" y="8.181" fill="#FFFFFF" stroke="#D1D3D4" stroke-width="0.25" stroke-miterlimit="10" width="8" height="8"/>
				<rect x="23.938" y="8.181" fill="#FFFFFF" stroke="#D1D3D4" stroke-width="0.25" stroke-miterlimit="10" width="8" height="8"/>
				<rect x="31.937" y="8.181" fill="#FFFFFF" stroke="#D1D3D4" stroke-width="0.25" stroke-miterlimit="10" width="8" height="8"/>
				<rect x="39.938" y="8.181" fill="#FFFFFF" stroke="#D1D3D4" stroke-width="0.25" stroke-miterlimit="10" width="8" height="8"/>
				<rect x="47.938" y="8.181" fill="#FFFFFF" stroke="#D1D3D4" stroke-width="0.25" stroke-miterlimit="10" width="8" height="8"/>
				<rect x="55.938" y="8.181" fill="#FFFFFF" stroke="#D1D3D4" stroke-width="0.25" stroke-miterlimit="10" width="8" height="8"/>
				
					<rect x="-0.062" y="16.181" fill="#FFFFFF" stroke="#D1D3D4" stroke-width="0.25" stroke-miterlimit="10" width="8" height="8"/>
				<rect x="7.938" y="16.181" fill="#FFFFFF" stroke="#D1D3D4" stroke-width="0.25" stroke-miterlimit="10" width="8" height="8"/>
				
					<rect x="15.938" y="16.181" fill="#FFFFFF" stroke="#D1D3D4" stroke-width="0.25" stroke-miterlimit="10" width="8" height="8"/>
				
					<rect x="23.938" y="16.181" fill="#FFFFFF" stroke="#D1D3D4" stroke-width="0.25" stroke-miterlimit="10" width="8" height="8"/>
				
					<rect x="31.937" y="16.181" fill="#FFFFFF" stroke="#D1D3D4" stroke-width="0.25" stroke-miterlimit="10" width="8" height="8"/>
				
					<rect x="39.938" y="16.181" fill="#FFFFFF" stroke="#D1D3D4" stroke-width="0.25" stroke-miterlimit="10" width="8" height="8"/>
				
					<rect x="47.938" y="16.181" fill="#FFFFFF" stroke="#D1D3D4" stroke-width="0.25" stroke-miterlimit="10" width="8" height="8"/>
				
					<rect x="55.938" y="16.181" fill="#FFFFFF" stroke="#D1D3D4" stroke-width="0.25" stroke-miterlimit="10" width="8" height="8"/>
				
					<rect x="-0.062" y="24.181" fill="#FFFFFF" stroke="#D1D3D4" stroke-width="0.25" stroke-miterlimit="10" width="8" height="8"/>
				<rect x="7.938" y="24.181" fill="#FFFFFF" stroke="#D1D3D4" stroke-width="0.25" stroke-miterlimit="10" width="8" height="8"/>
				
					<rect x="15.938" y="24.181" fill="#FFFFFF" stroke="#D1D3D4" stroke-width="0.25" stroke-miterlimit="10" width="8" height="8"/>
				
					<rect x="23.938" y="24.181" fill="#FFFFFF" stroke="#D1D3D4" stroke-width="0.25" stroke-miterlimit="10" width="8" height="8"/>
				
					<rect x="31.937" y="24.181" fill="#FFFFFF" stroke="#D1D3D4" stroke-width="0.25" stroke-miterlimit="10" width="8" height="8"/>
				
					<rect x="39.938" y="24.181" fill="#FFFFFF" stroke="#D1D3D4" stroke-width="0.25" stroke-miterlimit="10" width="8" height="8"/>
				
					<rect x="47.938" y="24.181" fill="#FFFFFF" stroke="#D1D3D4" stroke-width="0.25" stroke-miterlimit="10" width="8" height="8"/>
				
					<rect x="55.938" y="24.181" fill="#FFFFFF" stroke="#D1D3D4" stroke-width="0.25" stroke-miterlimit="10" width="8" height="8"/>
				
					<rect x="-0.062" y="32.181" fill="#FFFFFF" stroke="#D1D3D4" stroke-width="0.25" stroke-miterlimit="10" width="8" height="8"/>
				<rect x="7.938" y="32.181" fill="#FFFFFF" stroke="#D1D3D4" stroke-width="0.25" stroke-miterlimit="10" width="8" height="8"/>
				
					<rect x="15.938" y="32.181" fill="#FFFFFF" stroke="#D1D3D4" stroke-width="0.25" stroke-miterlimit="10" width="8" height="8"/>
				
					<rect x="23.938" y="32.181" fill="#FFFFFF" stroke="#D1D3D4" stroke-width="0.25" stroke-miterlimit="10" width="8" height="8"/>
				
					<rect x="31.937" y="32.181" fill="#FFFFFF" stroke="#D1D3D4" stroke-width="0.25" stroke-miterlimit="10" width="8" height="8"/>
				
					<rect x="39.938" y="32.181" fill="#FFFFFF" stroke="#D1D3D4" stroke-width="0.25" stroke-miterlimit="10" width="8" height="8"/>
				
					<rect x="47.938" y="32.181" fill="#FFFFFF" stroke="#D1D3D4" stroke-width="0.25" stroke-miterlimit="10" width="8" height="8"/>
				
					<rect x="55.938" y="32.181" fill="#FFFFFF" stroke="#D1D3D4" stroke-width="0.25" stroke-miterlimit="10" width="8" height="8"/>
				
					<rect x="-0.062" y="40.182" fill="#FFFFFF" stroke="#D1D3D4" stroke-width="0.25" stroke-miterlimit="10" width="8" height="8"/>
				<rect x="7.938" y="40.182" fill="#FFFFFF" stroke="#D1D3D4" stroke-width="0.25" stroke-miterlimit="10" width="8" height="8"/>
				
					<rect x="15.938" y="40.182" fill="#FFFFFF" stroke="#D1D3D4" stroke-width="0.25" stroke-miterlimit="10" width="8" height="8"/>
				
					<rect x="23.938" y="40.182" fill="#FFFFFF" stroke="#D1D3D4" stroke-width="0.25" stroke-miterlimit="10" width="8" height="8"/>
				
					<rect x="31.937" y="40.182" fill="#FFFFFF" stroke="#D1D3D4" stroke-width="0.25" stroke-miterlimit="10" width="8" height="8"/>
				
					<rect x="39.938" y="40.182" fill="#FFFFFF" stroke="#D1D3D4" stroke-width="0.25" stroke-miterlimit="10" width="8" height="8"/>
				
					<rect x="47.938" y="40.182" fill="#FFFFFF" stroke="#D1D3D4" stroke-width="0.25" stroke-miterlimit="10" width="8" height="8"/>
				
					<rect x="55.938" y="40.182" fill="#FFFFFF" stroke="#D1D3D4" stroke-width="0.25" stroke-miterlimit="10" width="8" height="8"/>
				
					<rect x="-0.062" y="48.182" fill="#FFFFFF" stroke="#D1D3D4" stroke-width="0.25" stroke-miterlimit="10" width="8" height="8"/>
				<rect x="7.938" y="48.182" fill="#FFFFFF" stroke="#D1D3D4" stroke-width="0.25" stroke-miterlimit="10" width="8" height="8"/>
				
					<rect x="15.938" y="48.182" fill="#FFFFFF" stroke="#D1D3D4" stroke-width="0.25" stroke-miterlimit="10" width="8" height="8"/>
				
					<rect x="23.938" y="48.182" fill="#FFFFFF" stroke="#D1D3D4" stroke-width="0.25" stroke-miterlimit="10" width="8" height="8"/>
				
					<rect x="31.937" y="48.182" fill="#FFFFFF" stroke="#D1D3D4" stroke-width="0.25" stroke-miterlimit="10" width="8" height="8"/>
				
					<rect x="39.938" y="48.182" fill="#FFFFFF" stroke="#D1D3D4" stroke-width="0.25" stroke-miterlimit="10" width="8" height="8"/>
				
					<rect x="47.938" y="48.182" fill="#FFFFFF" stroke="#D1D3D4" stroke-width="0.25" stroke-miterlimit="10" width="8" height="8"/>
				
					<rect x="55.938" y="48.182" fill="#FFFFFF" stroke="#D1D3D4" stroke-width="0.25" stroke-miterlimit="10" width="8" height="8"/>
				
					<rect x="-0.062" y="56.182" fill="#FFFFFF" stroke="#D1D3D4" stroke-width="0.25" stroke-miterlimit="10" width="8" height="8"/>
				<rect x="7.938" y="56.182" fill="#FFFFFF" stroke="#D1D3D4" stroke-width="0.25" stroke-miterlimit="10" width="8" height="8"/>
				
					<rect x="15.938" y="56.182" fill="#FFFFFF" stroke="#D1D3D4" stroke-width="0.25" stroke-miterlimit="10" width="8" height="8"/>
				
					<rect x="23.938" y="56.182" fill="#FFFFFF" stroke="#D1D3D4" stroke-width="0.25" stroke-miterlimit="10" width="8" height="8"/>
				
					<rect x="31.937" y="56.182" fill="#FFFFFF" stroke="#D1D3D4" stroke-width="0.25" stroke-miterlimit="10" width="8" height="8"/>
				
					<rect x="39.938" y="56.182" fill="#FFFFFF" stroke="#D1D3D4" stroke-width="0.25" stroke-miterlimit="10" width="8" height="8"/>
				
					<rect x="47.938" y="56.182" fill="#FFFFFF" stroke="#D1D3D4" stroke-width="0.25" stroke-miterlimit="10" width="8" height="8"/>
				
					<rect x="55.938" y="56.182" fill="#FFFFFF" stroke="#D1D3D4" stroke-width="0.25" stroke-miterlimit="10" width="8" height="8"/>
			</g>
		</g>
	</g>
</g>
<g id="Layer_2">
	<g>
		<g>
			<path fill="#BDBDBD" d="M32.292,0.875C15.104,0.875,1.167,14.812,1.167,32s13.938,31.125,31.125,31.125
				c17.191,0,31.125-13.938,31.125-31.125S49.483,0.875,32.292,0.875z M32.292,58.78c-14.774,0-26.78-12.004-26.78-26.78
				S17.518,5.22,32.292,5.22c14.776,0,26.78,12.004,26.78,26.78S47.068,58.78,32.292,58.78z M32.292,7.696
				C18.902,7.696,7.988,18.61,7.988,32c0,13.391,10.914,24.304,24.304,24.304c13.391,0,24.304-10.913,24.304-24.304
				C56.596,18.61,45.683,7.696,32.292,7.696z M36.535,22.371c0.445,0.547,0.292,1.333-0.239,1.779
				c-0.879,0.506-1.487,0.101-1.73-0.243l-0.786-0.989c-0.446-0.547-0.296-1.338,0.238-1.779c0.536-0.446,1.338-0.292,1.783,0.239
				L36.535,22.371z M36.892,33.09c-0.206,0.499-0.839,0.945-1.624,0.653c-0.94-0.397-1.728-1.185-2.125-2.177
				c-0.243-0.644,0.05-1.381,0.689-1.625c0.645-0.24,1.382,0.052,1.621,0.689c0.153,0.34,0.445,0.644,0.79,0.786
				C36.839,31.708,37.131,32.445,36.892,33.09z M18.458,19.943c0.596-0.052,1.232,0.154,1.728,0.495
				c0.545,0.396,0.686,1.183,0.242,1.779c-0.814,0.952-1.779,0.243-1.779,0.243c-0.687,0.053-1.283-0.495-1.333-1.184
				C17.224,20.591,17.771,19.996,18.458,19.943z M13.909,35.457c-0.547-0.394-0.685-1.184-0.241-1.778
				c0.396-0.548,1.182-0.69,1.779-0.244l1.625,1.184c0.547,0.394,0.687,1.179,0.243,1.778c-0.243,0.341-0.942,0.774-1.729,0.24
				L13.909,35.457z M18.217,46.914c-0.243,0.243-0.789,0.762-1.78,0.053l-0.648-0.648c-0.494-0.494-0.494-1.285,0-1.778
				c0.497-0.495,1.283-0.495,1.78,0l0.648,0.648C18.711,45.634,18.711,46.468,18.217,46.914z M22.752,42.123
				c-0.839,0.678-1.538,0.203-1.779-0.048l-0.992-1.042c-0.496-0.499-0.496-1.284,0-1.778c0.497-0.499,1.283-0.499,1.78,0
				l0.991,1.041C23.246,40.844,23.246,41.682,22.752,42.123z M19.396,33.232c-2.221,0-4-1.78-4-4c0-2.225,1.779-4.004,4-4.004
				c2.226,0,4.004,1.779,4.004,4.004C23.4,31.453,21.622,33.232,19.396,33.232z M22.167,15.841c-0.241-0.648,0.05-1.385,0.687-1.628
				c0.788-0.34,1.574-0.547,2.425-0.685c0.687-0.102,1.335,0.393,1.437,1.042c0.101,0.688-0.393,1.333-1.041,1.434
				c-0.648,0.102-1.232,0.243-1.83,0.499C22.967,16.92,22.358,16.336,22.167,15.841z M29.522,51.907
				c-0.203,0.547-0.748,1.005-1.575,0.79l-2.273-0.738c-0.648-0.202-0.992-0.939-0.789-1.576c0.202-0.648,0.94-0.992,1.574-0.79
				l2.275,0.738C29.421,50.521,29.777,51.271,29.522,51.907z M31.198,37.934c-0.239,0.393-0.835,0.915-1.676,0.493
				c-0.735-0.441-1.435-0.987-2.019-1.624c-0.446-0.548-0.395-1.334,0.102-1.78c0.545-0.445,1.333-0.393,1.777,0.103
				c0.395,0.445,0.838,0.785,1.337,1.094C31.352,36.547,31.554,37.337,31.198,37.934z M31.198,27.108
				c-1.001,0.56-1.534,0.155-1.777-0.149c-0.545-0.648-0.991-1.285-1.334-2.022c-0.292-0.648-0.05-1.382,0.598-1.678
				c0.646-0.292,1.384-0.048,1.678,0.6c0.239,0.542,0.596,1.041,0.989,1.483C31.798,25.824,31.745,26.614,31.198,27.108z
				 M31.798,13.033c-0.102-0.685,0.34-1.333,1.041-1.435c0.94-0.154,1.934,0.203,2.517,0.94c0.445,0.543,0.39,1.334-0.153,1.779
				c-0.852,0.583-1.541,0.15-1.779-0.154c-0.053-0.053-0.15-0.102-0.239-0.102C32.535,14.164,31.899,13.718,31.798,13.033z
				 M36.535,49.491c-2.273,0-4.105-1.827-4.105-4.101s1.832-4.105,4.105-4.105s4.105,1.832,4.105,4.105
				C40.641,47.611,38.809,49.491,36.535,49.491z M42.469,39.011c-0.612,0.231-1.131-0.202-1.387-0.543
				c-0.494-0.203-0.839-0.685-0.786-1.235c0.053-0.686,0.596-1.229,1.334-1.18c0.839,0.053,1.572,0.648,1.779,1.487
				C43.559,38.173,43.17,38.873,42.469,39.011z M40.057,21.431c0-2.565,2.12-4.689,4.686-4.689s4.685,2.124,4.685,4.689
				c0,2.565-2.119,4.688-4.685,4.688C42.123,26.119,40.057,24.048,40.057,21.431z M50.724,40.154l-0.648,1.041
				c-0.798,0.928-1.532,0.548-1.727,0.397c-0.596-0.345-0.786-1.131-0.393-1.73l0.648-1.041c0.345-0.597,1.131-0.787,1.73-0.395
				C50.918,38.772,51.121,39.559,50.724,40.154z M49.735,33.435c-0.341-0.102-0.738-0.102-1.131-0.102
				c-0.686,0.054-1.285-0.445-1.334-1.13c-0.048-0.686,0.446-1.281,1.131-1.334c0.646-0.053,1.285,0,1.934,0.154
				c0.681,0.15,1.09,0.839,0.937,1.535C51.121,33.09,50.497,33.629,49.735,33.435z"/>
		</g>
	</g>
</g>
</svg>
