<?xml version="1.0" encoding="utf-8"?>
<!-- Generator: Adobe Illustrator 16.2.1, SVG Export Plug-In . SVG Version: 6.00 Build 0)  -->
<!DOCTYPE svg PUBLIC "-//W3C//DTD SVG 1.1//EN" "http://www.w3.org/Graphics/SVG/1.1/DTD/svg11.dtd" [
	<!ENTITY ns_flows "http://ns.adobe.com/Flows/1.0/">
	<!ENTITY ns_extend "http://ns.adobe.com/Extensibility/1.0/">
	<!ENTITY ns_ai "http://ns.adobe.com/AdobeIllustrator/10.0/">
	<!ENTITY ns_graphs "http://ns.adobe.com/Graphs/1.0/">
]>
<svg version="1.1" id="Layer_1" xmlns:x="&ns_extend;" xmlns:i="&ns_ai;" xmlns:graph="&ns_graphs;"
	 xmlns="http://www.w3.org/2000/svg" xmlns:xlink="http://www.w3.org/1999/xlink" xmlns:a="http://ns.adobe.com/AdobeSVGViewerExtensions/3.0/"
	 x="0px" y="0px" width="64px" height="64px" viewBox="0 0 64 64" enable-background="new 0 0 64 64" xml:space="preserve">
<g id="Layer_1_6_">
	<g id="Layer_1_5_">
		<g id="Layer_1_4_" display="none">
			<g id="Layer_1_3_" display="inline">
				<g id="Layer_1_2_">
					<g id="Layer_1_1_">
						<g>
							
								<rect x="-0.062" y="0.181" fill="#C30823" stroke="#D1D3D4" stroke-width="0.25" stroke-miterlimit="10" width="8" height="8"/>
							
								<rect x="7.938" y="0.181" fill="#C30823" stroke="#D1D3D4" stroke-width="0.25" stroke-miterlimit="10" width="8" height="8"/>
							
								<rect x="15.938" y="0.181" fill="#C30823" stroke="#D1D3D4" stroke-width="0.25" stroke-miterlimit="10" width="8" height="8"/>
							
								<rect x="23.938" y="0.181" fill="#C30823" stroke="#D1D3D4" stroke-width="0.25" stroke-miterlimit="10" width="8" height="8"/>
							
								<rect x="31.937" y="0.181" fill="#C30823" stroke="#D1D3D4" stroke-width="0.25" stroke-miterlimit="10" width="8" height="8"/>
							
								<rect x="39.938" y="0.181" fill="#C30823" stroke="#D1D3D4" stroke-width="0.25" stroke-miterlimit="10" width="8" height="8"/>
							
								<rect x="47.938" y="0.181" fill="#C30823" stroke="#D1D3D4" stroke-width="0.25" stroke-miterlimit="10" width="8" height="8"/>
							
								<rect x="55.938" y="0.181" fill="#C30823" stroke="#D1D3D4" stroke-width="0.25" stroke-miterlimit="10" width="8" height="8"/>
							
								<rect x="-0.062" y="8.181" fill="#C30823" stroke="#D1D3D4" stroke-width="0.25" stroke-miterlimit="10" width="8" height="8"/>
							
								<rect x="7.938" y="8.181" fill="#C30823" stroke="#D1D3D4" stroke-width="0.25" stroke-miterlimit="10" width="8" height="8"/>
							
								<rect x="15.938" y="8.181" fill="#C30823" stroke="#D1D3D4" stroke-width="0.25" stroke-miterlimit="10" width="8" height="8"/>
							
								<rect x="23.938" y="8.181" fill="#C30823" stroke="#D1D3D4" stroke-width="0.25" stroke-miterlimit="10" width="8" height="8"/>
							
								<rect x="31.937" y="8.181" fill="#C30823" stroke="#D1D3D4" stroke-width="0.25" stroke-miterlimit="10" width="8" height="8"/>
							
								<rect x="39.938" y="8.181" fill="#C30823" stroke="#D1D3D4" stroke-width="0.25" stroke-miterlimit="10" width="8" height="8"/>
							
								<rect x="47.938" y="8.181" fill="#C30823" stroke="#D1D3D4" stroke-width="0.25" stroke-miterlimit="10" width="8" height="8"/>
							
								<rect x="55.938" y="8.181" fill="#C30823" stroke="#D1D3D4" stroke-width="0.25" stroke-miterlimit="10" width="8" height="8"/>
							
								<rect x="-0.062" y="16.181" fill="#C30823" stroke="#D1D3D4" stroke-width="0.25" stroke-miterlimit="10" width="8" height="8"/>
							
								<rect x="7.938" y="16.181" fill="#C30823" stroke="#D1D3D4" stroke-width="0.25" stroke-miterlimit="10" width="8" height="8"/>
							
								<rect x="15.938" y="16.181" fill="#C30823" stroke="#D1D3D4" stroke-width="0.25" stroke-miterlimit="10" width="8" height="8"/>
							
								<rect x="23.938" y="16.181" fill="#C30823" stroke="#D1D3D4" stroke-width="0.25" stroke-miterlimit="10" width="8" height="8"/>
							
								<rect x="31.937" y="16.181" fill="#C30823" stroke="#D1D3D4" stroke-width="0.25" stroke-miterlimit="10" width="8" height="8"/>
							
								<rect x="39.938" y="16.181" fill="#C30823" stroke="#D1D3D4" stroke-width="0.25" stroke-miterlimit="10" width="8" height="8"/>
							
								<rect x="47.938" y="16.181" fill="#C30823" stroke="#D1D3D4" stroke-width="0.25" stroke-miterlimit="10" width="8" height="8"/>
							
								<rect x="55.938" y="16.181" fill="#C30823" stroke="#D1D3D4" stroke-width="0.25" stroke-miterlimit="10" width="8" height="8"/>
							
								<rect x="-0.062" y="24.181" fill="#C30823" stroke="#D1D3D4" stroke-width="0.25" stroke-miterlimit="10" width="8" height="8"/>
							
								<rect x="7.938" y="24.181" fill="#C30823" stroke="#D1D3D4" stroke-width="0.25" stroke-miterlimit="10" width="8" height="8"/>
							
								<rect x="15.938" y="24.181" fill="#C30823" stroke="#D1D3D4" stroke-width="0.25" stroke-miterlimit="10" width="8" height="8"/>
							
								<rect x="23.938" y="24.181" fill="#C30823" stroke="#D1D3D4" stroke-width="0.25" stroke-miterlimit="10" width="8" height="8"/>
							
								<rect x="31.937" y="24.181" fill="#C30823" stroke="#D1D3D4" stroke-width="0.25" stroke-miterlimit="10" width="8" height="8"/>
							
								<rect x="39.938" y="24.181" fill="#C30823" stroke="#D1D3D4" stroke-width="0.25" stroke-miterlimit="10" width="8" height="8"/>
							
								<rect x="47.938" y="24.181" fill="#C30823" stroke="#D1D3D4" stroke-width="0.25" stroke-miterlimit="10" width="8" height="8"/>
							
								<rect x="55.938" y="24.181" fill="#C30823" stroke="#D1D3D4" stroke-width="0.25" stroke-miterlimit="10" width="8" height="8"/>
							
								<rect x="-0.062" y="32.181" fill="#C30823" stroke="#D1D3D4" stroke-width="0.25" stroke-miterlimit="10" width="8" height="8"/>
							
								<rect x="7.938" y="32.181" fill="#C30823" stroke="#D1D3D4" stroke-width="0.25" stroke-miterlimit="10" width="8" height="8"/>
							
								<rect x="15.938" y="32.181" fill="#C30823" stroke="#D1D3D4" stroke-width="0.25" stroke-miterlimit="10" width="8" height="8"/>
							
								<rect x="23.938" y="32.181" fill="#C30823" stroke="#D1D3D4" stroke-width="0.25" stroke-miterlimit="10" width="8" height="8"/>
							
								<rect x="31.937" y="32.181" fill="#C30823" stroke="#D1D3D4" stroke-width="0.25" stroke-miterlimit="10" width="8" height="8"/>
							
								<rect x="39.938" y="32.181" fill="#C30823" stroke="#D1D3D4" stroke-width="0.25" stroke-miterlimit="10" width="8" height="8"/>
							
								<rect x="47.938" y="32.181" fill="#C30823" stroke="#D1D3D4" stroke-width="0.25" stroke-miterlimit="10" width="8" height="8"/>
							
								<rect x="55.938" y="32.181" fill="#C30823" stroke="#D1D3D4" stroke-width="0.25" stroke-miterlimit="10" width="8" height="8"/>
							
								<rect x="-0.062" y="40.182" fill="#C30823" stroke="#D1D3D4" stroke-width="0.25" stroke-miterlimit="10" width="8" height="8"/>
							
								<rect x="7.938" y="40.182" fill="#C30823" stroke="#D1D3D4" stroke-width="0.25" stroke-miterlimit="10" width="8" height="8"/>
							
								<rect x="15.938" y="40.182" fill="#C30823" stroke="#D1D3D4" stroke-width="0.25" stroke-miterlimit="10" width="8" height="8"/>
							
								<rect x="23.938" y="40.182" fill="#C30823" stroke="#D1D3D4" stroke-width="0.25" stroke-miterlimit="10" width="8" height="8"/>
							
								<rect x="31.937" y="40.182" fill="#C30823" stroke="#D1D3D4" stroke-width="0.25" stroke-miterlimit="10" width="8" height="8"/>
							
								<rect x="39.938" y="40.182" fill="#C30823" stroke="#D1D3D4" stroke-width="0.25" stroke-miterlimit="10" width="8" height="8"/>
							
								<rect x="47.938" y="40.182" fill="#C30823" stroke="#D1D3D4" stroke-width="0.25" stroke-miterlimit="10" width="8" height="8"/>
							
								<rect x="55.938" y="40.182" fill="#C30823" stroke="#D1D3D4" stroke-width="0.25" stroke-miterlimit="10" width="8" height="8"/>
							
								<rect x="-0.062" y="48.182" fill="#C30823" stroke="#D1D3D4" stroke-width="0.25" stroke-miterlimit="10" width="8" height="8"/>
							
								<rect x="7.938" y="48.182" fill="#C30823" stroke="#D1D3D4" stroke-width="0.25" stroke-miterlimit="10" width="8" height="8"/>
							
								<rect x="15.938" y="48.182" fill="#C30823" stroke="#D1D3D4" stroke-width="0.25" stroke-miterlimit="10" width="8" height="8"/>
							
								<rect x="23.938" y="48.182" fill="#C30823" stroke="#D1D3D4" stroke-width="0.25" stroke-miterlimit="10" width="8" height="8"/>
							
								<rect x="31.937" y="48.182" fill="#C30823" stroke="#D1D3D4" stroke-width="0.25" stroke-miterlimit="10" width="8" height="8"/>
							
								<rect x="39.938" y="48.182" fill="#C30823" stroke="#D1D3D4" stroke-width="0.25" stroke-miterlimit="10" width="8" height="8"/>
							
								<rect x="47.938" y="48.182" fill="#C30823" stroke="#D1D3D4" stroke-width="0.25" stroke-miterlimit="10" width="8" height="8"/>
							
								<rect x="55.938" y="48.182" fill="#C30823" stroke="#D1D3D4" stroke-width="0.25" stroke-miterlimit="10" width="8" height="8"/>
							
								<rect x="-0.062" y="56.182" fill="#C30823" stroke="#D1D3D4" stroke-width="0.25" stroke-miterlimit="10" width="8" height="8"/>
							
								<rect x="7.938" y="56.182" fill="#C30823" stroke="#D1D3D4" stroke-width="0.25" stroke-miterlimit="10" width="8" height="8"/>
							
								<rect x="15.938" y="56.182" fill="#C30823" stroke="#D1D3D4" stroke-width="0.25" stroke-miterlimit="10" width="8" height="8"/>
							
								<rect x="23.938" y="56.182" fill="#C30823" stroke="#D1D3D4" stroke-width="0.25" stroke-miterlimit="10" width="8" height="8"/>
							
								<rect x="31.937" y="56.182" fill="#C30823" stroke="#D1D3D4" stroke-width="0.25" stroke-miterlimit="10" width="8" height="8"/>
							
								<rect x="39.938" y="56.182" fill="#C30823" stroke="#D1D3D4" stroke-width="0.25" stroke-miterlimit="10" width="8" height="8"/>
							
								<rect x="47.938" y="56.182" fill="#C30823" stroke="#D1D3D4" stroke-width="0.25" stroke-miterlimit="10" width="8" height="8"/>
							
								<rect x="55.938" y="56.182" fill="#C30823" stroke="#D1D3D4" stroke-width="0.25" stroke-miterlimit="10" width="8" height="8"/>
						</g>
					</g>
				</g>
			</g>
		</g>
		<g id="Layer_2">
			<g>
				<g>
					<path fill="#C30823" d="M31.986,0.236c-17.535,0-31.75,14.215-31.75,31.75c0,17.534,14.215,31.75,31.75,31.75
						c17.534,0,31.75-14.217,31.75-31.75C63.736,14.451,49.521,0.236,31.986,0.236z"/>
				</g>
			</g>
		</g>
	</g>
</g>
<g id="Layer_8">
	<g>
		<path fill="#FFFFFF" d="M25.356,29.101c0.657,0,1.189,0.532,1.189,1.189s-0.533,1.19-1.189,1.19c-0.657,0-1.19-0.533-1.19-1.19
			C24.167,29.633,24.699,29.101,25.356,29.101"/>
		<path fill="#FFFFFF" d="M38.044,29.101c0.658,0,1.188,0.532,1.188,1.189s-0.53,1.19-1.188,1.19c-0.655,0-1.188-0.533-1.188-1.19
			C36.854,29.633,37.389,29.101,38.044,29.101"/>
		<path fill="#FFFFFF" d="M31.876,38.838c1.896,0,3.304-1.763,3.261-3.568c0-0.705-1.146-0.705-1.102,0
			c0.044,1.188-0.881,2.422-2.159,2.422c-1.277,0-2.202-1.188-2.202-2.379c0-0.705-1.102-0.705-1.102,0
			C28.528,37.163,29.981,38.881,31.876,38.838"/>
		<path fill="#FFFFFF" d="M46.547,18.175H16.854c-1.674,0-3.084,1.366-3.084,3.084v0.749c0,1.674,1.366,3.084,3.084,3.084h0.088
			c0.044,0.132,0.088,0.264,0.132,0.396l11.323,23.967c0.617,1.277,1.895,2.07,3.304,2.07c1.41,0,2.688-0.793,3.304-2.07
			l11.323-23.967c0.043-0.132,0.087-0.264,0.132-0.396h0.088c1.675,0,3.084-1.366,3.084-3.084v-0.749
			C49.587,19.541,48.223,18.175,46.547,18.175 M34.607,47.207C34.607,47.207,34.564,47.207,34.607,47.207
			c-1.409,0-2.512-1.1-2.512-2.467c0-1.365,1.103-2.467,2.469-2.467c0.748,0,1.453,0.353,1.938,0.925L34.607,47.207z M37.118,42.229
			c-0.66-0.66-1.586-1.058-2.554-1.058c-1.983,0-3.613,1.631-3.613,3.613c0,1.896,1.453,3.436,3.261,3.567l-0.265,0.571
			c-0.441,0.882-1.277,1.454-2.247,1.454c-1.014,0-1.851-0.527-2.247-1.454L18.175,25.048h1.983v0.132
			c0,1.498,1.233,2.687,2.687,2.687c1.498,0,2.688-1.189,2.688-2.687v-0.132h19.693L37.118,42.229z M21.303,25.18v-0.132h3.083
			v0.132c0,0.837-0.705,1.542-1.542,1.542C22.008,26.722,21.303,26.018,21.303,25.18 M48.441,22.008
			c0,1.057-0.881,1.938-1.938,1.938H16.854c-1.058,0-1.939-0.881-1.939-1.938v-0.749c0-1.058,0.881-1.939,1.939-1.939h29.693
			c1.059,0,1.938,0.881,1.938,1.939v0.749H48.441z"/>
	</g>
</g>
</svg>
