<?xml version="1.0" encoding="utf-8"?>
<!-- Generator: Adobe Illustrator 16.2.1, SVG Export Plug-In . SVG Version: 6.00 Build 0)  -->
<!DOCTYPE svg PUBLIC "-//W3C//DTD SVG 1.1//EN" "http://www.w3.org/Graphics/SVG/1.1/DTD/svg11.dtd" [
	<!ENTITY ns_flows "http://ns.adobe.com/Flows/1.0/">
	<!ENTITY ns_extend "http://ns.adobe.com/Extensibility/1.0/">
	<!ENTITY ns_ai "http://ns.adobe.com/AdobeIllustrator/10.0/">
	<!ENTITY ns_graphs "http://ns.adobe.com/Graphs/1.0/">
]>
<svg version="1.1" id="Layer_1" xmlns:x="&ns_extend;" xmlns:i="&ns_ai;" xmlns:graph="&ns_graphs;"
	 xmlns="http://www.w3.org/2000/svg" xmlns:xlink="http://www.w3.org/1999/xlink" xmlns:a="http://ns.adobe.com/AdobeSVGViewerExtensions/3.0/"
	 x="0px" y="0px" width="64px" height="64px" viewBox="0 0 64 64" enable-background="new 0 0 64 64" xml:space="preserve">
<g id="Layer_1_6_">
	<g id="Layer_1_5_">
		<g id="Layer_1_4_" display="none">
			<g id="Layer_1_3_" display="inline">
				<g id="Layer_1_2_">
					<g id="Layer_1_1_">
						<g>
							
								<rect x="-0.062" y="0.181" fill="#FFFFFF" stroke="#D1D3D4" stroke-width="0.25" stroke-miterlimit="10" width="8" height="8"/>
							
								<rect x="7.938" y="0.181" fill="#FFFFFF" stroke="#D1D3D4" stroke-width="0.25" stroke-miterlimit="10" width="8" height="8"/>
							
								<rect x="15.938" y="0.181" fill="#FFFFFF" stroke="#D1D3D4" stroke-width="0.25" stroke-miterlimit="10" width="8" height="8"/>
							
								<rect x="23.938" y="0.181" fill="#FFFFFF" stroke="#D1D3D4" stroke-width="0.25" stroke-miterlimit="10" width="8" height="8"/>
							
								<rect x="31.937" y="0.181" fill="#FFFFFF" stroke="#D1D3D4" stroke-width="0.25" stroke-miterlimit="10" width="8" height="8"/>
							
								<rect x="39.938" y="0.181" fill="#FFFFFF" stroke="#D1D3D4" stroke-width="0.25" stroke-miterlimit="10" width="8" height="8"/>
							
								<rect x="47.938" y="0.181" fill="#FFFFFF" stroke="#D1D3D4" stroke-width="0.25" stroke-miterlimit="10" width="8" height="8"/>
							
								<rect x="55.938" y="0.181" fill="#FFFFFF" stroke="#D1D3D4" stroke-width="0.25" stroke-miterlimit="10" width="8" height="8"/>
							
								<rect x="-0.062" y="8.181" fill="#FFFFFF" stroke="#D1D3D4" stroke-width="0.25" stroke-miterlimit="10" width="8" height="8"/>
							
								<rect x="7.938" y="8.181" fill="#FFFFFF" stroke="#D1D3D4" stroke-width="0.25" stroke-miterlimit="10" width="8" height="8"/>
							
								<rect x="15.938" y="8.181" fill="#FFFFFF" stroke="#D1D3D4" stroke-width="0.25" stroke-miterlimit="10" width="8" height="8"/>
							
								<rect x="23.938" y="8.181" fill="#FFFFFF" stroke="#D1D3D4" stroke-width="0.25" stroke-miterlimit="10" width="8" height="8"/>
							
								<rect x="31.937" y="8.181" fill="#FFFFFF" stroke="#D1D3D4" stroke-width="0.25" stroke-miterlimit="10" width="8" height="8"/>
							
								<rect x="39.938" y="8.181" fill="#FFFFFF" stroke="#D1D3D4" stroke-width="0.25" stroke-miterlimit="10" width="8" height="8"/>
							
								<rect x="47.938" y="8.181" fill="#FFFFFF" stroke="#D1D3D4" stroke-width="0.25" stroke-miterlimit="10" width="8" height="8"/>
							
								<rect x="55.938" y="8.181" fill="#FFFFFF" stroke="#D1D3D4" stroke-width="0.25" stroke-miterlimit="10" width="8" height="8"/>
							
								<rect x="-0.062" y="16.181" fill="#FFFFFF" stroke="#D1D3D4" stroke-width="0.25" stroke-miterlimit="10" width="8" height="8"/>
							
								<rect x="7.938" y="16.181" fill="#FFFFFF" stroke="#D1D3D4" stroke-width="0.25" stroke-miterlimit="10" width="8" height="8"/>
							
								<rect x="15.938" y="16.181" fill="#FFFFFF" stroke="#D1D3D4" stroke-width="0.25" stroke-miterlimit="10" width="8" height="8"/>
							
								<rect x="23.938" y="16.181" fill="#FFFFFF" stroke="#D1D3D4" stroke-width="0.25" stroke-miterlimit="10" width="8" height="8"/>
							
								<rect x="31.937" y="16.181" fill="#FFFFFF" stroke="#D1D3D4" stroke-width="0.25" stroke-miterlimit="10" width="8" height="8"/>
							
								<rect x="39.938" y="16.181" fill="#FFFFFF" stroke="#D1D3D4" stroke-width="0.25" stroke-miterlimit="10" width="8" height="8"/>
							
								<rect x="47.938" y="16.181" fill="#FFFFFF" stroke="#D1D3D4" stroke-width="0.25" stroke-miterlimit="10" width="8" height="8"/>
							
								<rect x="55.938" y="16.181" fill="#FFFFFF" stroke="#D1D3D4" stroke-width="0.25" stroke-miterlimit="10" width="8" height="8"/>
							
								<rect x="-0.062" y="24.181" fill="#FFFFFF" stroke="#D1D3D4" stroke-width="0.25" stroke-miterlimit="10" width="8" height="8"/>
							
								<rect x="7.938" y="24.181" fill="#FFFFFF" stroke="#D1D3D4" stroke-width="0.25" stroke-miterlimit="10" width="8" height="8"/>
							
								<rect x="15.938" y="24.181" fill="#FFFFFF" stroke="#D1D3D4" stroke-width="0.25" stroke-miterlimit="10" width="8" height="8"/>
							
								<rect x="23.938" y="24.181" fill="#FFFFFF" stroke="#D1D3D4" stroke-width="0.25" stroke-miterlimit="10" width="8" height="8"/>
							
								<rect x="31.937" y="24.181" fill="#FFFFFF" stroke="#D1D3D4" stroke-width="0.25" stroke-miterlimit="10" width="8" height="8"/>
							
								<rect x="39.938" y="24.181" fill="#FFFFFF" stroke="#D1D3D4" stroke-width="0.25" stroke-miterlimit="10" width="8" height="8"/>
							
								<rect x="47.938" y="24.181" fill="#FFFFFF" stroke="#D1D3D4" stroke-width="0.25" stroke-miterlimit="10" width="8" height="8"/>
							
								<rect x="55.938" y="24.181" fill="#FFFFFF" stroke="#D1D3D4" stroke-width="0.25" stroke-miterlimit="10" width="8" height="8"/>
							
								<rect x="-0.062" y="32.181" fill="#FFFFFF" stroke="#D1D3D4" stroke-width="0.25" stroke-miterlimit="10" width="8" height="8"/>
							
								<rect x="7.938" y="32.181" fill="#FFFFFF" stroke="#D1D3D4" stroke-width="0.25" stroke-miterlimit="10" width="8" height="8"/>
							
								<rect x="15.938" y="32.181" fill="#FFFFFF" stroke="#D1D3D4" stroke-width="0.25" stroke-miterlimit="10" width="8" height="8"/>
							
								<rect x="23.938" y="32.181" fill="#FFFFFF" stroke="#D1D3D4" stroke-width="0.25" stroke-miterlimit="10" width="8" height="8"/>
							
								<rect x="31.937" y="32.181" fill="#FFFFFF" stroke="#D1D3D4" stroke-width="0.25" stroke-miterlimit="10" width="8" height="8"/>
							
								<rect x="39.938" y="32.181" fill="#FFFFFF" stroke="#D1D3D4" stroke-width="0.25" stroke-miterlimit="10" width="8" height="8"/>
							
								<rect x="47.938" y="32.181" fill="#FFFFFF" stroke="#D1D3D4" stroke-width="0.25" stroke-miterlimit="10" width="8" height="8"/>
							
								<rect x="55.938" y="32.181" fill="#FFFFFF" stroke="#D1D3D4" stroke-width="0.25" stroke-miterlimit="10" width="8" height="8"/>
							
								<rect x="-0.062" y="40.182" fill="#FFFFFF" stroke="#D1D3D4" stroke-width="0.25" stroke-miterlimit="10" width="8" height="8"/>
							
								<rect x="7.938" y="40.182" fill="#FFFFFF" stroke="#D1D3D4" stroke-width="0.25" stroke-miterlimit="10" width="8" height="8"/>
							
								<rect x="15.938" y="40.182" fill="#FFFFFF" stroke="#D1D3D4" stroke-width="0.25" stroke-miterlimit="10" width="8" height="8"/>
							
								<rect x="23.938" y="40.182" fill="#FFFFFF" stroke="#D1D3D4" stroke-width="0.25" stroke-miterlimit="10" width="8" height="8"/>
							
								<rect x="31.937" y="40.182" fill="#FFFFFF" stroke="#D1D3D4" stroke-width="0.25" stroke-miterlimit="10" width="8" height="8"/>
							
								<rect x="39.938" y="40.182" fill="#FFFFFF" stroke="#D1D3D4" stroke-width="0.25" stroke-miterlimit="10" width="8" height="8"/>
							
								<rect x="47.938" y="40.182" fill="#FFFFFF" stroke="#D1D3D4" stroke-width="0.25" stroke-miterlimit="10" width="8" height="8"/>
							
								<rect x="55.938" y="40.182" fill="#FFFFFF" stroke="#D1D3D4" stroke-width="0.25" stroke-miterlimit="10" width="8" height="8"/>
							
								<rect x="-0.062" y="48.182" fill="#FFFFFF" stroke="#D1D3D4" stroke-width="0.25" stroke-miterlimit="10" width="8" height="8"/>
							
								<rect x="7.938" y="48.182" fill="#FFFFFF" stroke="#D1D3D4" stroke-width="0.25" stroke-miterlimit="10" width="8" height="8"/>
							
								<rect x="15.938" y="48.182" fill="#FFFFFF" stroke="#D1D3D4" stroke-width="0.25" stroke-miterlimit="10" width="8" height="8"/>
							
								<rect x="23.938" y="48.182" fill="#FFFFFF" stroke="#D1D3D4" stroke-width="0.25" stroke-miterlimit="10" width="8" height="8"/>
							
								<rect x="31.937" y="48.182" fill="#FFFFFF" stroke="#D1D3D4" stroke-width="0.25" stroke-miterlimit="10" width="8" height="8"/>
							
								<rect x="39.938" y="48.182" fill="#FFFFFF" stroke="#D1D3D4" stroke-width="0.25" stroke-miterlimit="10" width="8" height="8"/>
							
								<rect x="47.938" y="48.182" fill="#FFFFFF" stroke="#D1D3D4" stroke-width="0.25" stroke-miterlimit="10" width="8" height="8"/>
							
								<rect x="55.938" y="48.182" fill="#FFFFFF" stroke="#D1D3D4" stroke-width="0.25" stroke-miterlimit="10" width="8" height="8"/>
							
								<rect x="-0.062" y="56.182" fill="#FFFFFF" stroke="#D1D3D4" stroke-width="0.25" stroke-miterlimit="10" width="8" height="8"/>
							
								<rect x="7.938" y="56.182" fill="#FFFFFF" stroke="#D1D3D4" stroke-width="0.25" stroke-miterlimit="10" width="8" height="8"/>
							
								<rect x="15.938" y="56.182" fill="#FFFFFF" stroke="#D1D3D4" stroke-width="0.25" stroke-miterlimit="10" width="8" height="8"/>
							
								<rect x="23.938" y="56.182" fill="#FFFFFF" stroke="#D1D3D4" stroke-width="0.25" stroke-miterlimit="10" width="8" height="8"/>
							
								<rect x="31.937" y="56.182" fill="#FFFFFF" stroke="#D1D3D4" stroke-width="0.25" stroke-miterlimit="10" width="8" height="8"/>
							
								<rect x="39.938" y="56.182" fill="#FFFFFF" stroke="#D1D3D4" stroke-width="0.25" stroke-miterlimit="10" width="8" height="8"/>
							
								<rect x="47.938" y="56.182" fill="#FFFFFF" stroke="#D1D3D4" stroke-width="0.25" stroke-miterlimit="10" width="8" height="8"/>
							
								<rect x="55.938" y="56.182" fill="#FFFFFF" stroke="#D1D3D4" stroke-width="0.25" stroke-miterlimit="10" width="8" height="8"/>
						</g>
					</g>
				</g>
			</g>
		</g>
		<g id="Layer_2">
			<g>
				<g>
					<path d="M31.986,0.236c-17.535,0-31.75,14.215-31.75,31.75c0,17.534,14.215,31.75,31.75,31.75
						c17.534,0,31.75-14.217,31.75-31.75C63.736,14.451,49.521,0.236,31.986,0.236z M31.986,62.463
						c-16.832,0-30.477-13.646-30.477-30.477c0-16.832,13.645-30.477,30.477-30.477c16.831,0,30.477,13.645,30.477,30.477
						C62.463,48.816,48.816,62.463,31.986,62.463z"/>
				</g>
			</g>
		</g>
	</g>
</g>
<g id="Layer_7">
	<g>
		<path fill="#C30823" d="M14.716,29.987c-0.152,0.377-0.018,0.809,0.321,1.035l1.689,1.125l-0.978,1.88
			c-0.155,0.299-0.122,0.66,0.085,0.926c0.165,0.211,0.416,0.327,0.675,0.327c0.067,0,0.135-0.007,0.202-0.022
			c3.601-0.873,8.305-2.475,9.82-6.442c1.69,1.517,3.882,2.015,6.107,2.015c1.938,0,3.902-0.375,5.579-0.783
			c0.326-0.079,0.577-0.342,0.642-0.672c0.062-0.331-0.073-0.667-0.349-0.862l-1.729-1.226l0.986-1.775
			c0.196-0.355,0.117-0.8-0.188-1.065l-1.999-1.73l0.999-2.362c0.157-0.375,0.032-0.808-0.302-1.04l-1.731-1.202l0.985-1.914
			c0.154-0.299,0.119-0.66-0.088-0.924c-0.209-0.264-0.553-0.381-0.877-0.304c-4.182,1.014-8.328,2.372-9.813,6.468
			c-3.196-2.968-7.508-2.271-11.693-1.257c-0.326,0.08-0.576,0.342-0.641,0.671c-0.064,0.33,0.07,0.667,0.344,0.862l1.75,1.252
			l-0.988,1.86c-0.19,0.358-0.103,0.801,0.208,1.062l1.97,1.643L14.716,29.987z M15.368,25.019l1.014-1.909
			c0.202-0.38,0.092-0.851-0.258-1.101l-0.796-0.569c4.158-0.813,7.066-0.538,9.156,2.263c0.02,0.025,0.043,0.047,0.065,0.071
			c0.012,0.014,0.024,0.03,0.039,0.044c0.028,0.025,0.058,0.046,0.087,0.066c0.016,0.012,0.031,0.024,0.047,0.035
			c0.031,0.019,0.064,0.034,0.097,0.049c0.019,0.009,0.036,0.018,0.055,0.025c0.036,0.014,0.074,0.022,0.112,0.03
			c0.016,0.004,0.03,0.01,0.046,0.013c0.002,0,0.004,0,0.007,0c0.028,0.004,0.056,0.004,0.085,0.006
			c0.267,0.017,0.517-0.09,0.686-0.28c0.005-0.005,0.009-0.011,0.013-0.017c0.032-0.037,0.061-0.076,0.086-0.118
			c0.004-0.008,0.009-0.019,0.014-0.026c0.021-0.04,0.041-0.081,0.058-0.125c0.003-0.01,0.004-0.02,0.007-0.03
			c0.012-0.038,0.025-0.075,0.032-0.115c0.575-3.446,3.036-5.023,7.103-6.204l-0.447,0.869c-0.197,0.383-0.078,0.853,0.273,1.098
			l1.775,1.233l-0.97,2.296c-0.146,0.342-0.052,0.74,0.229,0.983l1.943,1.682l-1.021,1.838c-0.214,0.383-0.104,0.864,0.255,1.117
			l0.759,0.539c-4.626,0.835-7.474,0.122-9.11-2.23c-0.003-0.004-0.008-0.009-0.012-0.014c-0.019-0.025-0.041-0.049-0.062-0.072
			c-0.017-0.019-0.032-0.039-0.052-0.055c-0.021-0.02-0.044-0.035-0.067-0.053c-0.022-0.016-0.042-0.034-0.066-0.048
			c-0.022-0.014-0.047-0.024-0.071-0.036c-0.027-0.013-0.052-0.027-0.079-0.038c-0.022-0.008-0.047-0.013-0.069-0.019
			c-0.032-0.009-0.063-0.018-0.095-0.022c-0.007,0-0.011-0.003-0.019-0.004c-0.018-0.002-0.037,0-0.054-0.001
			c-0.032-0.002-0.063-0.004-0.096-0.003c-0.026,0.001-0.052,0.005-0.078,0.009c-0.03,0.004-0.058,0.008-0.087,0.015
			c-0.026,0.006-0.051,0.016-0.075,0.024c-0.027,0.01-0.056,0.019-0.083,0.032c-0.024,0.011-0.047,0.025-0.071,0.039
			c-0.019,0.011-0.039,0.02-0.058,0.032c-0.007,0.005-0.011,0.01-0.017,0.015c-0.021,0.015-0.039,0.033-0.059,0.05
			c-0.023,0.021-0.047,0.041-0.068,0.063c-0.015,0.017-0.028,0.037-0.042,0.055c-0.019,0.025-0.041,0.05-0.056,0.077
			c-0.013,0.021-0.023,0.044-0.035,0.067c-0.012,0.027-0.026,0.053-0.037,0.081c-0.01,0.024-0.013,0.05-0.021,0.076
			c-0.008,0.029-0.016,0.058-0.021,0.087c-0.002,0.007-0.004,0.013-0.005,0.021c-0.377,2.842-2.583,4.778-7.08,6.154l0.43-0.827
			c0.202-0.389,0.079-0.869-0.286-1.111l-1.75-1.166l0.958-2.387c0.139-0.345,0.039-0.74-0.247-0.979L15.368,25.019z"/>
		<path fill="#C30823" d="M22.745,26.676c0.067,0,0.135-0.008,0.202-0.024l6-1.453c0.46-0.112,0.744-0.576,0.632-1.037
			c-0.112-0.46-0.573-0.742-1.037-0.632l-6,1.453c-0.46,0.111-0.744,0.576-0.633,1.037C22.006,26.412,22.358,26.676,22.745,26.676"
			/>
		<path fill="#C30823" d="M26.952,31.968c-0.336,0-0.642,0.197-0.781,0.502c-0.139,0.304-0.088,0.664,0.131,0.917l1.407,1.629
			L26.31,36.59c-0.269,0.305-0.29,0.754-0.048,1.08l1.527,2.062l-1.537,2.152c-0.235,0.33-0.207,0.781,0.068,1.081l1.378,1.491
			l-1.394,1.6c-0.222,0.254-0.274,0.613-0.136,0.92c0.141,0.307,0.446,0.502,0.783,0.502c3.707,0,8.66-0.453,11.064-3.955
			c2.401,3.502,7.356,3.955,11.062,3.955c0.336,0,0.641-0.195,0.779-0.502c0.14-0.307,0.088-0.666-0.133-0.92l-1.394-1.6
			l1.376-1.491c0.275-0.3,0.305-0.75,0.066-1.081l-1.535-2.152l1.527-2.062c0.241-0.325,0.221-0.775-0.05-1.08l-1.397-1.574
			l1.406-1.629c0.221-0.253,0.271-0.611,0.131-0.917c-0.14-0.306-0.444-0.502-0.78-0.502c-4.304,0-8.654,0.346-11.062,3.979
			C35.607,32.314,31.256,31.968,26.952,31.968 M38.021,38.598c0.056,0,0.108-0.006,0.162-0.016c0.004,0,0.008-0.004,0.012-0.004
			c0.053-0.012,0.102-0.026,0.152-0.048c0,0,0.002-0.001,0.004-0.001c0.01-0.004,0.017-0.012,0.026-0.016
			c0.041-0.02,0.08-0.039,0.117-0.064c0.014-0.01,0.026-0.021,0.039-0.031c0.032-0.023,0.063-0.048,0.09-0.076
			c0.015-0.013,0.022-0.027,0.035-0.041c0.024-0.027,0.05-0.057,0.071-0.09c0.01-0.016,0.017-0.031,0.026-0.05
			c0.017-0.028,0.033-0.054,0.046-0.085c1.372-3.211,4.135-4.166,8.364-4.354l-0.638,0.738c-0.282,0.326-0.279,0.811,0.007,1.131
			l1.437,1.615l-1.484,2.003c-0.221,0.299-0.225,0.706-0.01,1.009l1.494,2.094l-1.425,1.547c-0.298,0.322-0.304,0.814-0.017,1.146
			l0.613,0.704c-4.696-0.277-7.295-1.641-8.33-4.314c-0.004-0.006-0.008-0.013-0.012-0.021c-0.01-0.021-0.021-0.042-0.031-0.063
			c-0.016-0.029-0.03-0.059-0.049-0.086c-0.012-0.016-0.023-0.029-0.035-0.043c-0.022-0.031-0.045-0.059-0.071-0.084
			c-0.013-0.013-0.025-0.021-0.038-0.033c-0.029-0.025-0.059-0.051-0.092-0.072c-0.014-0.01-0.028-0.016-0.043-0.025
			c-0.034-0.02-0.07-0.04-0.107-0.054c-0.005-0.002-0.009-0.005-0.012-0.009c-0.014-0.004-0.028-0.006-0.041-0.01
			c-0.035-0.012-0.071-0.021-0.105-0.029c-0.025-0.004-0.049-0.008-0.074-0.01c-0.028-0.004-0.061-0.008-0.09-0.008
			s-0.059,0.004-0.088,0.006c-0.025,0.004-0.051,0.008-0.074,0.012c-0.035,0.008-0.07,0.018-0.104,0.029
			c-0.015,0.004-0.028,0.006-0.042,0.01c-0.005,0.004-0.01,0.007-0.014,0.009c-0.035,0.014-0.071,0.034-0.106,0.054
			c-0.015,0.008-0.028,0.016-0.043,0.025c-0.033,0.021-0.063,0.047-0.094,0.072c-0.013,0.011-0.025,0.02-0.036,0.029
			c-0.027,0.029-0.051,0.059-0.074,0.09c-0.011,0.015-0.021,0.025-0.031,0.041c-0.02,0.027-0.035,0.057-0.051,0.09
			c-0.011,0.02-0.021,0.039-0.031,0.061c-0.004,0.009-0.009,0.014-0.012,0.021c-1.035,2.674-3.636,4.037-8.33,4.312l0.613-0.704
			c0.288-0.329,0.282-0.825-0.016-1.146l-1.426-1.545l1.494-2.094c0.216-0.303,0.213-0.71-0.009-1.01l-1.484-2.002l1.436-1.615
			c0.286-0.32,0.29-0.806,0.008-1.132l-0.64-0.737c4.231,0.188,6.995,1.14,8.364,4.354c0.016,0.029,0.031,0.054,0.047,0.082
			c0.01,0.017,0.019,0.035,0.029,0.053c0.02,0.031,0.043,0.059,0.066,0.085c0.013,0.017,0.025,0.031,0.039,0.046
			c0.027,0.026,0.054,0.047,0.084,0.07c0.015,0.013,0.029,0.025,0.047,0.037c0.031,0.021,0.066,0.04,0.102,0.056
			c0.014,0.009,0.025,0.019,0.041,0.023c0.002,0.001,0.006,0.001,0.008,0.002c0.035,0.015,0.071,0.024,0.111,0.034
			c0.018,0.004,0.033,0.013,0.053,0.015c0.021,0.006,0.045,0.005,0.066,0.008c0.032,0.005,0.066,0.011,0.102,0.011
			C38.02,38.6,38.021,38.598,38.021,38.598"/>
		<path fill="#C30823" d="M34.182,39.723c0,0.475,0.385,0.857,0.857,0.857h6.172c0.475,0,0.857-0.385,0.857-0.857
			s-0.385-0.857-0.857-0.857h-6.172C34.564,38.864,34.182,39.249,34.182,39.723"/>
	</g>
</g>
</svg>
