<?xml version="1.0" encoding="utf-8"?>
<!-- Generator: Adobe Illustrator 16.2.1, SVG Export Plug-In . SVG Version: 6.00 Build 0)  -->
<!DOCTYPE svg PUBLIC "-//W3C//DTD SVG 1.1//EN" "http://www.w3.org/Graphics/SVG/1.1/DTD/svg11.dtd" [
	<!ENTITY ns_flows "http://ns.adobe.com/Flows/1.0/">
	<!ENTITY ns_extend "http://ns.adobe.com/Extensibility/1.0/">
	<!ENTITY ns_ai "http://ns.adobe.com/AdobeIllustrator/10.0/">
	<!ENTITY ns_graphs "http://ns.adobe.com/Graphs/1.0/">
]>
<svg version="1.1" xmlns:x="&ns_extend;" xmlns:i="&ns_ai;" xmlns:graph="&ns_graphs;"
	 xmlns="http://www.w3.org/2000/svg" xmlns:xlink="http://www.w3.org/1999/xlink" xmlns:a="http://ns.adobe.com/AdobeSVGViewerExtensions/3.0/"
	 x="0px" y="0px" width="64px" height="64px" viewBox="0 0 64 64" enable-background="new 0 0 64 64" xml:space="preserve">
<g id="Layer_1">
	<g id="Layer_1_5_">
		<g id="Layer_1_4_" display="none">
			<g id="Layer_1_3_" display="inline">
				<g id="Layer_1_2_">
					<g id="Layer_1_1_">
						<g>
							
								<rect x="-0.062" y="0.181" fill="#FFFFFF" stroke="#D1D3D4" stroke-width="0.25" stroke-miterlimit="10" width="8" height="8"/>
							
								<rect x="7.938" y="0.181" fill="#FFFFFF" stroke="#D1D3D4" stroke-width="0.25" stroke-miterlimit="10" width="8" height="8"/>
							
								<rect x="15.938" y="0.181" fill="#FFFFFF" stroke="#D1D3D4" stroke-width="0.25" stroke-miterlimit="10" width="8" height="8"/>
							
								<rect x="23.938" y="0.181" fill="#FFFFFF" stroke="#D1D3D4" stroke-width="0.25" stroke-miterlimit="10" width="8" height="8"/>
							
								<rect x="31.937" y="0.181" fill="#FFFFFF" stroke="#D1D3D4" stroke-width="0.25" stroke-miterlimit="10" width="8" height="8"/>
							
								<rect x="39.938" y="0.181" fill="#FFFFFF" stroke="#D1D3D4" stroke-width="0.25" stroke-miterlimit="10" width="8" height="8"/>
							
								<rect x="47.938" y="0.181" fill="#FFFFFF" stroke="#D1D3D4" stroke-width="0.25" stroke-miterlimit="10" width="8" height="8"/>
							
								<rect x="55.938" y="0.181" fill="#FFFFFF" stroke="#D1D3D4" stroke-width="0.25" stroke-miterlimit="10" width="8" height="8"/>
							
								<rect x="-0.062" y="8.181" fill="#FFFFFF" stroke="#D1D3D4" stroke-width="0.25" stroke-miterlimit="10" width="8" height="8"/>
							
								<rect x="7.938" y="8.181" fill="#FFFFFF" stroke="#D1D3D4" stroke-width="0.25" stroke-miterlimit="10" width="8" height="8"/>
							
								<rect x="15.938" y="8.181" fill="#FFFFFF" stroke="#D1D3D4" stroke-width="0.25" stroke-miterlimit="10" width="8" height="8"/>
							
								<rect x="23.938" y="8.181" fill="#FFFFFF" stroke="#D1D3D4" stroke-width="0.25" stroke-miterlimit="10" width="8" height="8"/>
							
								<rect x="31.937" y="8.181" fill="#FFFFFF" stroke="#D1D3D4" stroke-width="0.25" stroke-miterlimit="10" width="8" height="8"/>
							
								<rect x="39.938" y="8.181" fill="#FFFFFF" stroke="#D1D3D4" stroke-width="0.25" stroke-miterlimit="10" width="8" height="8"/>
							
								<rect x="47.938" y="8.181" fill="#FFFFFF" stroke="#D1D3D4" stroke-width="0.25" stroke-miterlimit="10" width="8" height="8"/>
							
								<rect x="55.938" y="8.181" fill="#FFFFFF" stroke="#D1D3D4" stroke-width="0.25" stroke-miterlimit="10" width="8" height="8"/>
							
								<rect x="-0.062" y="16.181" fill="#FFFFFF" stroke="#D1D3D4" stroke-width="0.25" stroke-miterlimit="10" width="8" height="8"/>
							
								<rect x="7.938" y="16.181" fill="#FFFFFF" stroke="#D1D3D4" stroke-width="0.25" stroke-miterlimit="10" width="8" height="8"/>
							
								<rect x="15.938" y="16.181" fill="#FFFFFF" stroke="#D1D3D4" stroke-width="0.25" stroke-miterlimit="10" width="8" height="8"/>
							
								<rect x="23.938" y="16.181" fill="#FFFFFF" stroke="#D1D3D4" stroke-width="0.25" stroke-miterlimit="10" width="8" height="8"/>
							
								<rect x="31.937" y="16.181" fill="#FFFFFF" stroke="#D1D3D4" stroke-width="0.25" stroke-miterlimit="10" width="8" height="8"/>
							
								<rect x="39.938" y="16.181" fill="#FFFFFF" stroke="#D1D3D4" stroke-width="0.25" stroke-miterlimit="10" width="8" height="8"/>
							
								<rect x="47.938" y="16.181" fill="#FFFFFF" stroke="#D1D3D4" stroke-width="0.25" stroke-miterlimit="10" width="8" height="8"/>
							
								<rect x="55.938" y="16.181" fill="#FFFFFF" stroke="#D1D3D4" stroke-width="0.25" stroke-miterlimit="10" width="8" height="8"/>
							
								<rect x="-0.062" y="24.181" fill="#FFFFFF" stroke="#D1D3D4" stroke-width="0.25" stroke-miterlimit="10" width="8" height="8"/>
							
								<rect x="7.938" y="24.181" fill="#FFFFFF" stroke="#D1D3D4" stroke-width="0.25" stroke-miterlimit="10" width="8" height="8"/>
							
								<rect x="15.938" y="24.181" fill="#FFFFFF" stroke="#D1D3D4" stroke-width="0.25" stroke-miterlimit="10" width="8" height="8"/>
							
								<rect x="23.938" y="24.181" fill="#FFFFFF" stroke="#D1D3D4" stroke-width="0.25" stroke-miterlimit="10" width="8" height="8"/>
							
								<rect x="31.937" y="24.181" fill="#FFFFFF" stroke="#D1D3D4" stroke-width="0.25" stroke-miterlimit="10" width="8" height="8"/>
							
								<rect x="39.938" y="24.181" fill="#FFFFFF" stroke="#D1D3D4" stroke-width="0.25" stroke-miterlimit="10" width="8" height="8"/>
							
								<rect x="47.938" y="24.181" fill="#FFFFFF" stroke="#D1D3D4" stroke-width="0.25" stroke-miterlimit="10" width="8" height="8"/>
							
								<rect x="55.938" y="24.181" fill="#FFFFFF" stroke="#D1D3D4" stroke-width="0.25" stroke-miterlimit="10" width="8" height="8"/>
							
								<rect x="-0.062" y="32.181" fill="#FFFFFF" stroke="#D1D3D4" stroke-width="0.25" stroke-miterlimit="10" width="8" height="8"/>
							
								<rect x="7.938" y="32.181" fill="#FFFFFF" stroke="#D1D3D4" stroke-width="0.25" stroke-miterlimit="10" width="8" height="8"/>
							
								<rect x="15.938" y="32.181" fill="#FFFFFF" stroke="#D1D3D4" stroke-width="0.25" stroke-miterlimit="10" width="8" height="8"/>
							
								<rect x="23.938" y="32.181" fill="#FFFFFF" stroke="#D1D3D4" stroke-width="0.25" stroke-miterlimit="10" width="8" height="8"/>
							
								<rect x="31.937" y="32.181" fill="#FFFFFF" stroke="#D1D3D4" stroke-width="0.25" stroke-miterlimit="10" width="8" height="8"/>
							
								<rect x="39.938" y="32.181" fill="#FFFFFF" stroke="#D1D3D4" stroke-width="0.25" stroke-miterlimit="10" width="8" height="8"/>
							
								<rect x="47.938" y="32.181" fill="#FFFFFF" stroke="#D1D3D4" stroke-width="0.25" stroke-miterlimit="10" width="8" height="8"/>
							
								<rect x="55.938" y="32.181" fill="#FFFFFF" stroke="#D1D3D4" stroke-width="0.25" stroke-miterlimit="10" width="8" height="8"/>
							
								<rect x="-0.062" y="40.182" fill="#FFFFFF" stroke="#D1D3D4" stroke-width="0.25" stroke-miterlimit="10" width="8" height="8"/>
							
								<rect x="7.938" y="40.182" fill="#FFFFFF" stroke="#D1D3D4" stroke-width="0.25" stroke-miterlimit="10" width="8" height="8"/>
							
								<rect x="15.938" y="40.182" fill="#FFFFFF" stroke="#D1D3D4" stroke-width="0.25" stroke-miterlimit="10" width="8" height="8"/>
							
								<rect x="23.938" y="40.182" fill="#FFFFFF" stroke="#D1D3D4" stroke-width="0.25" stroke-miterlimit="10" width="8" height="8"/>
							
								<rect x="31.937" y="40.182" fill="#FFFFFF" stroke="#D1D3D4" stroke-width="0.25" stroke-miterlimit="10" width="8" height="8"/>
							
								<rect x="39.938" y="40.182" fill="#FFFFFF" stroke="#D1D3D4" stroke-width="0.25" stroke-miterlimit="10" width="8" height="8"/>
							
								<rect x="47.938" y="40.182" fill="#FFFFFF" stroke="#D1D3D4" stroke-width="0.25" stroke-miterlimit="10" width="8" height="8"/>
							
								<rect x="55.938" y="40.182" fill="#FFFFFF" stroke="#D1D3D4" stroke-width="0.25" stroke-miterlimit="10" width="8" height="8"/>
							
								<rect x="-0.062" y="48.182" fill="#FFFFFF" stroke="#D1D3D4" stroke-width="0.25" stroke-miterlimit="10" width="8" height="8"/>
							
								<rect x="7.938" y="48.182" fill="#FFFFFF" stroke="#D1D3D4" stroke-width="0.25" stroke-miterlimit="10" width="8" height="8"/>
							
								<rect x="15.938" y="48.182" fill="#FFFFFF" stroke="#D1D3D4" stroke-width="0.25" stroke-miterlimit="10" width="8" height="8"/>
							
								<rect x="23.938" y="48.182" fill="#FFFFFF" stroke="#D1D3D4" stroke-width="0.25" stroke-miterlimit="10" width="8" height="8"/>
							
								<rect x="31.937" y="48.182" fill="#FFFFFF" stroke="#D1D3D4" stroke-width="0.25" stroke-miterlimit="10" width="8" height="8"/>
							
								<rect x="39.938" y="48.182" fill="#FFFFFF" stroke="#D1D3D4" stroke-width="0.25" stroke-miterlimit="10" width="8" height="8"/>
							
								<rect x="47.938" y="48.182" fill="#FFFFFF" stroke="#D1D3D4" stroke-width="0.25" stroke-miterlimit="10" width="8" height="8"/>
							
								<rect x="55.938" y="48.182" fill="#FFFFFF" stroke="#D1D3D4" stroke-width="0.25" stroke-miterlimit="10" width="8" height="8"/>
							
								<rect x="-0.062" y="56.182" fill="#FFFFFF" stroke="#D1D3D4" stroke-width="0.25" stroke-miterlimit="10" width="8" height="8"/>
							
								<rect x="7.938" y="56.182" fill="#FFFFFF" stroke="#D1D3D4" stroke-width="0.25" stroke-miterlimit="10" width="8" height="8"/>
							
								<rect x="15.938" y="56.182" fill="#FFFFFF" stroke="#D1D3D4" stroke-width="0.25" stroke-miterlimit="10" width="8" height="8"/>
							
								<rect x="23.938" y="56.182" fill="#FFFFFF" stroke="#D1D3D4" stroke-width="0.25" stroke-miterlimit="10" width="8" height="8"/>
							
								<rect x="31.937" y="56.182" fill="#FFFFFF" stroke="#D1D3D4" stroke-width="0.25" stroke-miterlimit="10" width="8" height="8"/>
							
								<rect x="39.938" y="56.182" fill="#FFFFFF" stroke="#D1D3D4" stroke-width="0.25" stroke-miterlimit="10" width="8" height="8"/>
							
								<rect x="47.938" y="56.182" fill="#FFFFFF" stroke="#D1D3D4" stroke-width="0.25" stroke-miterlimit="10" width="8" height="8"/>
							
								<rect x="55.938" y="56.182" fill="#FFFFFF" stroke="#D1D3D4" stroke-width="0.25" stroke-miterlimit="10" width="8" height="8"/>
						</g>
					</g>
				</g>
			</g>
		</g>
		<g id="Layer_2">
			<g>
				<g>
					<path d="M31.986,0.236c-17.535,0-31.75,14.215-31.75,31.75c0,17.534,14.215,31.75,31.75,31.75
						c17.534,0,31.75-14.217,31.75-31.75C63.736,14.451,49.521,0.236,31.986,0.236z M31.986,62.463
						c-16.832,0-30.477-13.646-30.477-30.477c0-16.832,13.645-30.477,30.477-30.477c16.831,0,30.477,13.645,30.477,30.477
						C62.463,48.816,48.816,62.463,31.986,62.463z"/>
				</g>
			</g>
		</g>
	</g>
</g>
<g id="Layer_2_1_">
	<path fill="#C30823" d="M34.233,31.341c0.199,0.103,0.413,0.152,0.622,0.152c0.494,0,0.969-0.269,1.21-0.737l0.167-0.322
		c0.344-0.667,0.082-1.488-0.586-1.832c-0.667-0.344-1.487-0.082-1.832,0.585l-0.166,0.322
		C33.304,30.177,33.565,30.997,34.233,31.341z M30.979,37.637c0.199,0.104,0.413,0.152,0.623,0.152c0.493,0,0.968-0.269,1.21-0.736
		l0.166-0.321c0.345-0.667,0.083-1.487-0.584-1.832c-0.668-0.346-1.488-0.084-1.833,0.584l-0.167,0.321
		C30.05,36.473,30.312,37.292,30.979,37.637z M25.999,31.079c0.2,0.103,0.413,0.152,0.624,0.152c0.493,0,0.968-0.268,1.209-0.736
		l0.167-0.322c0.345-0.667,0.083-1.487-0.584-1.832s-1.488-0.083-1.833,0.584l-0.167,0.322
		C25.069,29.915,25.331,30.734,25.999,31.079z M51.054,22.136c0,6.802-1.82,13.476-5.263,19.301
		c-3.342,5.653-8.117,10.374-13.809,13.651c-0.208,0.12-0.622,0.253-1.033,0.135c-0.347-0.1-0.646-0.322-0.825-0.635L11.848,22.813
		c-0.242-0.421-0.241-0.938,0.002-1.358c0.243-0.42,0.692-0.679,1.177-0.679h36.666C50.444,20.776,51.054,21.385,51.054,22.136z
		 M48.306,23.496H15.379l13.636,23.708c6.982-4.451,11.79-11.565,13.271-19.716c0.135-0.739,0.841-1.229,1.583-1.095
		c0.738,0.134,1.229,0.842,1.095,1.581c-1.625,8.94-6.913,16.737-14.591,21.591l1.419,2.466
		C41.644,45.836,47.854,35.106,48.306,23.496z"/>
</g>
<g id="Layer_3" display="none">
	<path display="inline" fill="#C30823" d="M47.758,40.852l-0.661-0.1c-1.9-0.292-5.258,0.701-7.856,1.661
		c-0.262-0.28-0.584-0.553-0.968-0.864c-0.267-0.216-1.063-0.856-5.709-1.885c-0.097-0.397-0.24-0.807-0.452-1.177
		c-0.242-0.424-0.649-0.802-1.191-1.139c1.393-0.282,1.741-1.92,1.816-3.178c0.138,0.006,0.276,0.015,0.415,0.015
		c1.809,0,3.524-0.581,4.829-1.637c1.61-1.303,3.062-2.909,2.771-5.809c-0.25-2.51-6.99-12.629-9.246-13.881
		c-0.345-0.192-0.745-0.29-1.186-0.29c-1.874,0-4.369,1.798-6.785,3.538c-0.998,0.72-1.941,1.398-2.616,1.769
		c-2.001,1.099-3.11,2.187-3.389,3.326c-0.083,0.336-0.076,0.62-0.038,0.852c-2.028,1.784-3.78,4.797-4.542,7.085
		c-0.458,1.372-0.442,2.55,0.047,3.501c0.415,0.81,1.059,1.212,1.429,1.387c-0.138,3.167,0.789,6.291,1.217,7.548
		c0.509,1.49,1.423,2.052,2.192,2.246c1.138,2.283,2.823,4.09,5.029,5.362c0.622,0.36,1.265,0.542,1.911,0.542
		c0.11,0,0.21-0.015,0.313-0.025c2.998,2.144,5.843,2.454,8.48,2.454l0.953-0.005c0.187,0,0.362,0.003,0.532,0.007l0.185,0.003
		c0.863,0,1.567-0.189,2.106-0.557c1.877,0.777,4.488,1.281,6.759,1.281c3.121,0,6.234-1.726,7.076-3.274
		c0.196-0.361,0.223-0.779,0.077-1.176c-0.109-0.298-0.339-0.906-2.149-1.83c1.834-0.953,3.131-1.914,3.525-2.339
		c0.586-0.63,0.455-1.251,0.373-1.489C52.607,41.632,51.021,41.345,47.758,40.852 M21.898,19.658
		c0.784-0.43,1.775-1.145,2.826-1.902c1.848-1.331,4.378-3.154,5.596-3.154c0.087,0,0.16,0.013,0.2,0.034
		c1.657,0.92,8.028,10.467,8.21,12.306c0.165,1.65-0.348,2.667-2.028,4.027c-0.547,0.442-1.735,1.185-3.551,1.185
		c-0.326,0-0.655-0.026-0.985-0.074l-0.252-0.045c-0.719-0.128-1.449-0.372-2.179-0.718c-0.044-0.021-0.088-0.042-0.135-0.064
		c-0.231-0.113-0.462-0.235-0.693-0.371c-0.188-0.109-0.382-0.236-0.578-0.369c-0.096-0.066-0.196-0.138-0.295-0.209
		c-0.089-0.065-0.182-0.132-0.274-0.201c-0.14-0.105-0.281-0.214-0.426-0.33c-0.032-0.025-0.063-0.051-0.094-0.076
		c-0.917-0.741-1.912-1.666-2.912-2.672l-0.161-0.161c-0.119-0.121-0.238-0.244-0.359-0.368c-0.167-0.174-0.335-0.348-0.498-0.521
		c-0.011-0.011-0.021-0.021-0.03-0.032c-1.804-1.911-3.301-3.714-3.766-4.284C19.581,21.444,19.948,20.728,21.898,19.658
		 M15.509,32.285l-0.08-0.048l-0.017-0.006l-0.343-0.193c-0.089-0.077-0.188-0.178-0.264-0.326c-0.225-0.44-0.201-1.107,0.074-1.93
		c0.632-1.896,2.093-4.468,3.741-6.014c1.459,1.735,4.556,5.271,7.375,7.537c0.003,0.003,0.007,0.006,0.012,0.009
		c0.208,0.167,0.414,0.328,0.62,0.48c0.007,0.006,0.015,0.013,0.023,0.018c0.192,0.142,0.382,0.276,0.57,0.403
		c0.038,0.025,0.076,0.051,0.113,0.076c0.184,0.121,0.363,0.237,0.541,0.34c0.002,0.001,0.004,0.003,0.007,0.004
		c0.012,0.007,0.023,0.013,0.035,0.02c0.22,0.127,0.439,0.246,0.659,0.357c0.028,0.015,0.057,0.027,0.087,0.042
		c0.208,0.103,0.417,0.2,0.625,0.29c0.012,0.006,0.024,0.011,0.038,0.015c0.463,0.198,0.928,0.358,1.39,0.486
		c-0.041,1.018-0.213,1.409-0.284,1.528c-0.131,0.013-0.362,0.029-0.713,0.038l-0.105,0.001c-0.118,0.003-0.242,0.004-0.373,0.004
		h-0.065c-0.112,0-0.231-0.002-0.35-0.005c-0.669-0.013-1.968-0.062-3.564-0.244c-2.009-0.231-4.265-0.646-6.331-1.333
		c-0.041-0.012-0.08-0.027-0.12-0.04c-0.185-0.062-0.365-0.13-0.547-0.197c-0.792-0.298-1.562-0.642-2.276-1.045L15.509,32.285z
		 M18.55,41.877h-0.002l-0.123-0.005c-0.246-0.032-0.595-0.188-0.857-0.955c-0.67-1.96-1.06-4.046-1.115-5.854
		c4.629,2.037,10.383,2.337,12.251,2.379l-0.016,0.047c-0.001,0.007-0.005,0.013-0.007,0.019c-0.033,0.09-0.091,0.197-0.244,0.308
		v0.001c-0.054,0.038-0.118,0.077-0.197,0.114c-2.339,1.134-8.02,3.365-8.077,3.388l-0.193,0.102
		C19.825,41.517,19.17,41.877,18.55,41.877 M25.106,47.648c-0.103,0.025-0.211,0.044-0.331,0.044c-0.283,0-0.584-0.09-0.894-0.27
		c-1.617-0.933-2.904-2.203-3.843-3.787c0.444-0.163,0.791-0.358,0.959-0.462c0.55-0.217,3.27-1.291,5.615-2.291
		c0.338-0.145,0.671-0.287,0.986-0.426c0.022-0.009,0.043-0.02,0.065-0.028c0.55-0.242,1.053-0.471,1.461-0.669
		c0.168-0.081,0.324-0.173,0.468-0.274s0.277-0.213,0.396-0.332c0.24,0.168,0.33,0.292,0.357,0.342
		c0.183,0.319,0.277,0.748,0.327,1.137l0.001,0.011c0.027,0.205,0.04,0.393,0.045,0.539l-4.907,6.083
		C25.757,47.316,25.488,47.553,25.106,47.648 M37.937,45.022c-0.001,0.006-0.001,0.009-0.002,0.015
		c-0.006,0.037-0.017,0.084-0.024,0.123c-0.044,0.262-0.116,0.568-0.228,0.931c-0.015,0.05-0.034,0.104-0.051,0.154
		c-0.049,0.155-0.102,0.313-0.161,0.483c-0.025,0.072-0.052,0.145-0.079,0.218c-0.062,0.168-0.128,0.342-0.198,0.524
		c-0.018,0.043-0.035,0.087-0.052,0.13c-0.233,0.584-0.452,1.077-0.565,1.327c-0.027,0.061-0.06,0.129-0.081,0.177l-0.002,0.003
		l-0.116,0.209l0.003,0.032l-0.003,0.006l0.021,0.238c-0.001,0.019-0.008,0.124-0.076,0.22c-0.009,0.012-0.016,0.026-0.027,0.038
		c-0.161,0.176-0.546,0.276-1.055,0.276l-0.125-0.001c-0.188-0.006-0.385-0.007-0.591-0.007l-0.954,0.003
		c-1.872,0-4.015-0.126-6.308-1.434c0.032-0.031,0.052-0.054,0.062-0.062l0.023-0.03c0.005-0.005,0.014-0.015,0.017-0.018
		l5.297-6.564l0.081-0.099l0.004-0.126c2.833,0.657,4.002,1.142,4.257,1.349c0.513,0.416,0.775,0.635,0.899,0.859l0.019,0.043
		C37.97,44.153,38.022,44.379,37.937,45.022 M49.129,48.967c-0.748,0.734-2.751,1.884-5.022,1.884c-1.849,0-4.087-0.407-5.69-1.009
		c0.002-0.021,0.005-0.043,0.007-0.064c0.075-0.165,0.191-0.426,0.328-0.744c0.031,0.003,0.064,0.003,0.096,0.005
		c0.141,0.011,0.282,0.015,0.425,0.021c0.176,0.009,0.35,0.017,0.526,0.019c0.05,0,0.096,0.005,0.146,0.005
		c0.102,0,0.201-0.009,0.303-0.012c0.201-0.003,0.4-0.01,0.604-0.021c0.165-0.011,0.329-0.023,0.492-0.038
		c0.178-0.017,0.356-0.037,0.538-0.061c0.179-0.022,0.356-0.045,0.533-0.073c0.151-0.023,0.304-0.053,0.455-0.081
		c0.207-0.037,0.413-0.075,0.616-0.12c0.099-0.021,0.197-0.047,0.296-0.069c0.262-0.062,0.521-0.125,0.777-0.196
		c0.021-0.007,0.043-0.014,0.065-0.02c0.699-0.197,1.372-0.425,2.016-0.674C48.004,48.267,48.766,48.7,49.129,48.967 M46.542,45.564
		l-0.292,0.119c-1.073,0.436-2.126,0.77-3.146,0.998c-0.033,0.007-0.065,0.012-0.098,0.02c-0.283,0.062-0.562,0.113-0.839,0.159
		c-0.077,0.013-0.154,0.024-0.23,0.035c-0.239,0.036-0.476,0.063-0.709,0.087c-0.086,0.008-0.169,0.018-0.255,0.024
		c-0.232,0.019-0.462,0.029-0.69,0.035c-0.079,0.003-0.158,0.007-0.237,0.009c-0.18,0.001-0.354-0.009-0.531-0.015
		c0.011-0.031,0.019-0.06,0.029-0.09c0.027-0.085,0.054-0.169,0.079-0.254c0.026-0.083,0.051-0.165,0.073-0.246
		c0.026-0.094,0.052-0.187,0.076-0.278c0.014-0.05,0.025-0.098,0.037-0.146c0.021-0.089,0.04-0.176,0.06-0.261
		c0.007-0.035,0.016-0.072,0.022-0.106c0.023-0.118,0.043-0.233,0.059-0.343c0.022-0.173,0.038-0.333,0.049-0.487
		c0.002-0.033,0.004-0.068,0.007-0.102c0.009-0.151,0.013-0.296,0.009-0.431c2.738-1.012,4.95-1.564,6.283-1.564
		c0.186,0,0.351,0.012,0.493,0.034l0.666,0.1c0.944,0.143,2.228,0.337,3.048,0.546C49.704,43.977,48.287,44.828,46.542,45.564"/>
</g>
<g id="Layer_4" display="none">
	<path display="inline" fill="#CB0924" d="M39.267,15.139c-2.627-0.122-10.692-0.428-17.841,9.593
		c-2.139,2.994-6.599,10.571-3.238,17.598c-0.733,0.794-1.345,1.465-1.833,2.016c-0.367,0.429-0.367,1.1,0.062,1.467
		c0.183,0.184,0.427,0.244,0.671,0.244c0.306,0,0.55-0.123,0.794-0.366c1.589-1.772,4.46-4.827,7.577-8.066
		c2.017,1.223,3.85,1.712,6.11,1.712c0.489,0,0.978,0,1.528-0.062s0.977-0.55,0.915-1.101c-0.06-0.55-0.55-0.977-1.099-0.916
		c-2.322,0.184-4.033-0.122-5.927-1.161c4.644-4.766,9.532-9.776,11.792-12.037c0.428-0.428,0.428-1.039,0-1.466
		c-0.428-0.428-1.039-0.428-1.465,0c-1.713,1.71-4.646,4.705-7.884,8.004c-0.183-1.405-0.061-3.177,0.367-4.094
		c0.244-0.55,0-1.161-0.489-1.406c-0.55-0.244-1.161,0-1.405,0.489c-0.794,1.649-0.855,4.766-0.183,6.661v0.061
		c-2.812,2.872-5.684,5.865-7.944,8.31c-2.261-5.865,1.528-12.159,3.361-14.726c5.805-8.188,11.976-8.86,16.069-8.677
		c1.895,0.061,3.85,1.039,5.071,2.444c0.673,0.794,1.468,2.017,1.345,3.666c-0.123,1.956-1.527,3.666-2.689,4.767
		c-2.259,2.077-5.131,3.482-8.126,4.032c-0.549,0.123-0.977,0.611-0.854,1.222c0.121,0.551,0.61,0.978,1.222,0.856
		c2.017-0.306,4.032-1.038,5.805-2.078c0.917,1.65,1.954,4.644,0.366,7.516c-2.016,3.605-7.577,5.928-11.426,4.766
		c-0.55-0.183-2.627-0.854-4.827-2.382c-0.489-0.306-1.1-0.185-1.467,0.306c-0.306,0.487-0.183,1.099,0.306,1.465
		c1.65,1.101,3.666,2.139,5.377,2.628c0.856,0.245,1.833,0.428,2.811,0.428c4.278,0,9.043-2.505,11.059-6.11
		c1.589-2.871,1.467-6.354-0.428-9.653c0.551-0.429,1.162-0.855,1.649-1.345c2.017-1.894,3.179-4.033,3.361-6.11
		c0.123-1.833-0.55-3.666-1.894-5.194C44.218,16.361,41.773,15.2,39.267,15.139"/>
	<rect x="8" y="7" display="inline" fill="none" width="51.861" height="51.955"/>
</g>
<g id="Layer_5" display="none">
	<g display="inline">
		<path fill="#C30823" d="M26.858,17.09c-0.343-0.343-0.897-0.341-1.24,0.001c-1.64,1.641-1.64,4.309,0,5.946
			c0.001,0.001,0.002,0.002,0.003,0.003l0.003,0.003c0.957,0.961,0.959,2.519,0.005,3.471c-0.344,0.342-0.344,0.897-0.001,1.24
			c0.171,0.171,0.396,0.256,0.62,0.256s0.448-0.085,0.62-0.255c1.638-1.636,1.637-4.306-0.002-5.951
			c-0.002-0.002-0.005-0.003-0.008-0.006c-0.001-0.001-0.002-0.003-0.003-0.005c-0.954-0.956-0.953-2.509,0.003-3.465
			C27.2,17.987,27.2,17.432,26.858,17.09"/>
		<path fill="#C30823" d="M32.612,17.09c-0.342-0.341-0.896-0.341-1.239,0.001c-0.795,0.795-1.232,1.852-1.232,2.974
			c0,1.116,0.432,2.165,1.217,2.958c0.007,0.008,0.014,0.015,0.022,0.022v0.001c0.957,0.96,0.959,2.516,0.004,3.47
			c-0.343,0.342-0.343,0.897,0,1.24c0.171,0.171,0.396,0.256,0.619,0.256c0.226,0,0.449-0.085,0.62-0.255
			c1.621-1.621,1.635-4.25,0.045-5.897c-0.001-0.001-0.001-0.002-0.002-0.004c-0.018-0.019-0.034-0.038-0.054-0.057
			c-0.463-0.462-0.719-1.078-0.719-1.732s0.255-1.271,0.72-1.735C32.956,17.987,32.955,17.432,32.612,17.09"/>
		<path fill="#C30823" d="M38.369,17.09c-0.343-0.341-0.897-0.341-1.24,0.001c-0.795,0.795-1.233,1.852-1.233,2.974
			c0,1.115,0.433,2.165,1.217,2.957c0.003,0.004,0.008,0.007,0.013,0.011c0.004,0.003,0.006,0.008,0.01,0.012
			c0.957,0.96,0.959,2.517,0.004,3.471c-0.343,0.342-0.343,0.897,0,1.24c0.171,0.171,0.396,0.256,0.619,0.256
			c0.225,0,0.449-0.085,0.62-0.255c1.631-1.629,1.635-4.28,0.021-5.926c-0.002-0.002-0.003-0.004-0.004-0.006
			c-0.01-0.009-0.017-0.018-0.026-0.027c-0.463-0.462-0.72-1.078-0.72-1.732s0.256-1.271,0.721-1.735
			C38.711,17.987,38.711,17.432,38.369,17.09"/>
		<path fill="#C30823" d="M14.586,31.669c0.721,5.733,4.257,10.742,9.342,13.379v3.386h13.121c1.663,0,3.016-1.354,3.016-3.018
			v-0.368c5.087-2.637,8.621-7.646,9.344-13.379l0.124-0.987h-35.07L14.586,31.669z M47.511,32.435
			c-0.975,5.097-4.431,9.443-9.221,11.524h-2.807v1.753h2.788c-0.134,0.553-0.63,0.967-1.223,0.967H25.682v-0.966h3.288v-1.754
			h-3.267c-4.79-2.081-8.246-6.426-9.222-11.523L47.511,32.435L47.511,32.435z"/>
		<path fill="#C30823" d="M39.703,40.919c0.141,0,0.283-0.034,0.414-0.104c2.164-1.159,3.75-3.184,4.349-5.556
			c0.119-0.47-0.165-0.947-0.634-1.065c-0.471-0.117-0.948,0.165-1.066,0.635c-0.479,1.896-1.744,3.514-3.476,4.44
			c-0.427,0.229-0.588,0.76-0.359,1.187C39.088,40.751,39.392,40.919,39.703,40.919"/>
		<path fill="#C30823" d="M37.581,40.222c0.574,0,1.04,0.466,1.04,1.04s-0.466,1.039-1.04,1.039s-1.04-0.465-1.04-1.039
			S37.007,40.222,37.581,40.222"/>
	</g>
</g>
<g id="Layer_6" display="none">
	<g display="inline">
		<path fill="#C30823" d="M50.817,36.42l-2.45-1.469v-1.205h1.289c0.285,0,0.555-0.135,0.728-0.363
			c0.173-0.227,0.231-0.522,0.154-0.797c-1.043-3.776-3.976-6.958-7.909-8.995c-0.095-0.092-0.207-0.167-0.338-0.212
			c-0.05-0.016-0.101-0.027-0.149-0.036c-2.522-1.22-5.429-1.975-8.497-2.131c0,0-0.002,0-0.004-0.001
			c-0.133-0.036-0.266-0.039-0.392-0.018c-0.266-0.01-0.531-0.014-0.799-0.014c-0.836,0-1.66,0.045-2.471,0.133v-3.365
			c0.062-0.02,0.122-0.047,0.181-0.081l5.021-2.936l-7.033-2.678v9.332c-1.3,0.246-2.553,0.602-3.739,1.054
			c-0.081,0.019-0.159,0.047-0.23,0.087c-4.883,1.924-8.61,5.497-9.818,9.861c-0.076,0.275-0.019,0.571,0.155,0.797
			c0.172,0.229,0.441,0.363,0.728,0.363h1.264v1.006l-2.78,1.668c-0.433,0.26-0.574,0.821-0.314,1.257
			c0.172,0.285,0.476,0.442,0.787,0.442c0.16,0,0.322-0.042,0.469-0.13l1.838-1.104v2.316c0,0.048,0.008,0.095,0.015,0.14h-0.258
			c-0.505,0-0.915,0.41-0.915,0.916v1.735c0,1.929,1.57,3.5,3.5,3.5h27.197c1.932,0,3.503-1.571,3.503-3.5v-1.735
			c0-0.506-0.41-0.916-0.916-0.916h-0.282c0.007-0.045,0.014-0.092,0.014-0.14v-2.117l1.509,0.904
			c0.147,0.088,0.309,0.13,0.469,0.13c0.312,0,0.615-0.157,0.786-0.444C51.391,37.242,51.249,36.68,50.817,36.42 M29.978,14.908
			l0.977,0.372l-0.977,0.572V14.908z M47.72,41.993c0,0.92-0.75,1.669-1.672,1.669H18.85c-0.921,0-1.67-0.749-1.67-1.669v-0.821
			h30.54V41.993z M20.957,37.989c0.004,0.004,0.01,0.004,0.015,0.007c0.016,0.01,0.035,0.019,0.052,0.026
			c0.049,0.022,0.097,0.043,0.147,0.058c0.021,0.007,0.041,0.011,0.062,0.016c0.053,0.011,0.104,0.018,0.157,0.02
			c0.013,0,0.025,0.004,0.038,0.004c0.006,0,0.012-0.002,0.019-0.002c0.072-0.001,0.144-0.011,0.213-0.027
			c0.011-0.004,0.022-0.01,0.033-0.013c0.062-0.019,0.121-0.044,0.177-0.075c0.01-0.006,0.019-0.008,0.029-0.013l3.145-1.885
			l3.142,1.885c0.012,0.007,0.025,0.012,0.038,0.018c0.031,0.016,0.061,0.031,0.093,0.043c0.026,0.012,0.052,0.02,0.078,0.028
			c0.029,0.01,0.059,0.016,0.088,0.021c0.03,0.007,0.059,0.011,0.089,0.014c0.028,0.002,0.056,0.003,0.085,0.003
			c0.03,0,0.06-0.001,0.09-0.003c0.029-0.003,0.056-0.008,0.083-0.013c0.032-0.007,0.062-0.013,0.093-0.023
			c0.025-0.008,0.049-0.015,0.074-0.026c0.033-0.012,0.064-0.028,0.096-0.045c0.011-0.006,0.024-0.01,0.036-0.017l3.145-1.885
			l3.146,1.885c0.004,0.004,0.01,0.004,0.015,0.006c0.048,0.029,0.101,0.047,0.153,0.067c0.022,0.007,0.045,0.021,0.069,0.027
			c0.062,0.017,0.128,0.021,0.192,0.024c0.013,0.002,0.026,0.006,0.039,0.006h0.002h0.001c0.013,0,0.026-0.004,0.039-0.006
			c0.064-0.003,0.131-0.008,0.192-0.024c0.024-0.007,0.046-0.02,0.067-0.027c0.055-0.021,0.107-0.038,0.157-0.067
			c0.005-0.002,0.008-0.002,0.012-0.006l3.144-1.885l3.144,1.885c0.013,0.009,0.026,0.012,0.039,0.019
			c0.03,0.016,0.062,0.031,0.092,0.043c0.026,0.011,0.051,0.019,0.076,0.026c0.03,0.011,0.062,0.017,0.095,0.023
			c0.027,0.006,0.054,0.01,0.079,0.013c0.032,0.002,0.062,0.003,0.094,0.003c0.029,0,0.056-0.001,0.084-0.003
			c0.029-0.003,0.059-0.008,0.088-0.014c0.031-0.006,0.061-0.012,0.088-0.021c0.027-0.009,0.053-0.017,0.078-0.027
			c0.032-0.013,0.063-0.028,0.095-0.045c0.011-0.006,0.023-0.01,0.035-0.017l2.949-1.77v2.982c0,0.048,0.007,0.095,0.015,0.14
			H18.324c0.008-0.045,0.014-0.092,0.014-0.14V36.42L20.957,37.989z M18.337,34.285v-0.539h28.198v0.401
			c-0.095,0.021-0.189,0.052-0.277,0.104l-3.144,1.886l-3.143-1.887c-0.29-0.174-0.652-0.174-0.94,0l-3.145,1.887l-3.146-1.887
			c-0.289-0.174-0.651-0.174-0.94,0l-3.146,1.887l-3.141-1.886c-0.291-0.175-0.653-0.175-0.942-0.001l-3.146,1.887L18.337,34.285z
			 M16.522,31.914c1.144-2.783,3.519-5.119,6.588-6.702l-1.074,3.322c-0.155,0.482,0.108,0.997,0.589,1.152
			c0.094,0.032,0.188,0.046,0.282,0.046c0.386,0,0.746-0.248,0.87-0.635l1.57-4.859c1.141-0.412,2.345-0.727,3.597-0.932
			c0.039,0.003,0.077,0.011,0.117,0.011c0.143,0,0.275-0.034,0.393-0.092c0.896-0.125,1.812-0.197,2.743-0.208l-1.514,5.558
			c-0.133,0.488,0.154,0.99,0.642,1.124c0.081,0.023,0.163,0.033,0.24,0.033c0.403,0,0.772-0.269,0.884-0.674l1.629-5.98
			c2.43,0.184,4.727,0.772,6.766,1.682l-1.295,3.759c-0.164,0.479,0.09,0.999,0.569,1.164c0.098,0.034,0.197,0.051,0.296,0.051
			c0.38,0,0.735-0.239,0.865-0.618l1.215-3.524c2.727,1.569,4.825,3.758,5.88,6.325L16.522,31.914L16.522,31.914z"/>
	</g>
</g>
<g id="Layer_7" display="none">
	<g display="inline">
		<path fill="#C30823" d="M14.716,29.987c-0.152,0.377-0.018,0.809,0.321,1.035l1.689,1.125l-0.978,1.881
			c-0.155,0.298-0.122,0.66,0.085,0.925c0.165,0.211,0.416,0.327,0.675,0.327c0.067,0,0.135-0.007,0.202-0.022
			c3.601-0.873,8.305-2.475,9.82-6.442c1.69,1.517,3.882,2.015,6.107,2.015c1.938,0,3.902-0.375,5.579-0.783
			c0.326-0.079,0.577-0.342,0.642-0.672c0.062-0.331-0.074-0.667-0.349-0.862l-1.73-1.226l0.986-1.775
			c0.197-0.355,0.118-0.8-0.188-1.065l-1.999-1.73l0.999-2.362c0.157-0.375,0.032-0.808-0.302-1.04l-1.731-1.202L35.53,16.2
			c0.153-0.299,0.118-0.66-0.089-0.924c-0.208-0.264-0.552-0.381-0.877-0.304c-4.181,1.014-8.327,2.372-9.813,6.468
			c-3.196-2.968-7.508-2.271-11.693-1.257c-0.326,0.08-0.576,0.342-0.641,0.671c-0.064,0.33,0.07,0.667,0.344,0.862l1.75,1.252
			l-0.988,1.86c-0.19,0.358-0.103,0.801,0.208,1.062l1.97,1.643L14.716,29.987z M15.368,25.019l1.014-1.909
			c0.202-0.38,0.092-0.851-0.258-1.101l-0.796-0.569c4.158-0.813,7.066-0.538,9.156,2.263c0.02,0.025,0.043,0.047,0.065,0.071
			c0.012,0.014,0.024,0.03,0.039,0.044c0.028,0.025,0.058,0.046,0.087,0.066c0.016,0.012,0.031,0.024,0.047,0.035
			c0.031,0.019,0.064,0.034,0.097,0.049c0.019,0.009,0.036,0.018,0.055,0.025c0.036,0.014,0.074,0.022,0.112,0.03
			c0.016,0.004,0.03,0.01,0.046,0.013c0.002,0,0.004,0,0.007,0c0.028,0.004,0.056,0.004,0.085,0.006
			c0.267,0.017,0.517-0.09,0.686-0.28c0.005-0.005,0.009-0.011,0.013-0.017c0.032-0.037,0.061-0.076,0.086-0.118
			c0.004-0.008,0.009-0.019,0.014-0.026c0.021-0.04,0.041-0.081,0.058-0.125c0.003-0.01,0.004-0.02,0.007-0.03
			c0.012-0.038,0.025-0.075,0.032-0.115c0.575-3.446,3.036-5.023,7.103-6.204l-0.447,0.869c-0.197,0.383-0.079,0.853,0.273,1.098
			l1.776,1.233l-0.97,2.296c-0.145,0.342-0.052,0.74,0.229,0.983l1.944,1.682l-1.021,1.838c-0.213,0.383-0.104,0.864,0.255,1.117
			l0.759,0.539c-4.626,0.835-7.474,0.122-9.11-2.23c-0.003-0.004-0.008-0.009-0.012-0.014c-0.019-0.025-0.041-0.049-0.062-0.072
			c-0.017-0.019-0.032-0.039-0.052-0.055c-0.021-0.02-0.044-0.035-0.067-0.053c-0.022-0.016-0.042-0.034-0.066-0.048
			c-0.022-0.014-0.047-0.024-0.071-0.036c-0.027-0.013-0.052-0.027-0.079-0.038c-0.022-0.008-0.047-0.013-0.069-0.019
			c-0.032-0.009-0.063-0.018-0.095-0.022c-0.007,0-0.011-0.003-0.019-0.004c-0.018-0.002-0.037,0-0.054-0.001
			c-0.032-0.002-0.063-0.004-0.096-0.003c-0.026,0.001-0.052,0.005-0.078,0.009c-0.03,0.004-0.058,0.008-0.087,0.015
			c-0.026,0.006-0.051,0.016-0.075,0.024c-0.027,0.01-0.056,0.019-0.083,0.032c-0.024,0.011-0.047,0.025-0.071,0.039
			c-0.019,0.011-0.039,0.02-0.058,0.032c-0.007,0.005-0.011,0.01-0.017,0.015c-0.021,0.015-0.039,0.033-0.059,0.05
			c-0.023,0.021-0.047,0.041-0.068,0.063c-0.015,0.017-0.028,0.037-0.042,0.055c-0.019,0.025-0.041,0.05-0.056,0.077
			c-0.013,0.021-0.023,0.044-0.035,0.067c-0.012,0.027-0.026,0.053-0.037,0.081c-0.01,0.024-0.013,0.05-0.021,0.076
			c-0.008,0.029-0.016,0.058-0.021,0.087c-0.002,0.007-0.004,0.013-0.005,0.021c-0.377,2.842-2.583,4.778-7.08,6.154l0.43-0.827
			c0.202-0.389,0.079-0.869-0.286-1.111L16.57,29.98l0.958-2.387c0.139-0.345,0.039-0.74-0.247-0.979L15.368,25.019z"/>
		<path fill="#C30823" d="M22.745,26.676c0.067,0,0.135-0.008,0.202-0.024l6-1.453c0.46-0.112,0.744-0.576,0.632-1.037
			c-0.112-0.46-0.573-0.742-1.037-0.632l-6,1.453c-0.46,0.111-0.744,0.576-0.633,1.037C22.006,26.412,22.358,26.676,22.745,26.676"
			/>
		<path fill="#C30823" d="M26.952,31.968c-0.336,0-0.642,0.197-0.781,0.502c-0.139,0.304-0.088,0.664,0.131,0.917l1.407,1.629
			L26.31,36.59c-0.269,0.304-0.29,0.754-0.048,1.08l1.527,2.062l-1.537,2.153c-0.235,0.33-0.207,0.781,0.068,1.081l1.378,1.491
			l-1.394,1.6c-0.222,0.253-0.274,0.613-0.136,0.919c0.141,0.307,0.446,0.503,0.783,0.503c3.707,0,8.66-0.453,11.064-3.956
			c2.402,3.503,7.357,3.956,11.063,3.956c0.336,0,0.641-0.196,0.78-0.503c0.139-0.306,0.087-0.666-0.134-0.919l-1.393-1.6
			l1.376-1.491c0.276-0.3,0.305-0.75,0.067-1.081l-1.535-2.153l1.526-2.062c0.242-0.325,0.222-0.776-0.049-1.08l-1.398-1.574
			l1.407-1.629c0.22-0.253,0.271-0.612,0.13-0.917c-0.139-0.306-0.444-0.502-0.78-0.502c-4.304,0-8.654,0.346-11.062,3.979
			C35.607,32.314,31.256,31.968,26.952,31.968 M38.021,38.598c0.056,0,0.109-0.006,0.163-0.016c0.004,0,0.008-0.004,0.011-0.004
			c0.053-0.011,0.102-0.026,0.152-0.048c0.001,0,0.002-0.001,0.004-0.001c0.01-0.004,0.017-0.011,0.027-0.015
			c0.041-0.02,0.08-0.039,0.117-0.065c0.014-0.009,0.027-0.021,0.039-0.031c0.032-0.023,0.063-0.048,0.09-0.076
			c0.014-0.013,0.023-0.028,0.035-0.041c0.024-0.028,0.05-0.057,0.071-0.09c0.01-0.015,0.017-0.032,0.027-0.05
			c0.017-0.028,0.033-0.053,0.046-0.085c1.372-3.211,4.134-4.166,8.364-4.353l-0.638,0.738c-0.282,0.326-0.279,0.81,0.007,1.131
			l1.437,1.615l-1.484,2.003c-0.221,0.299-0.225,0.706-0.01,1.009l1.494,2.093l-1.425,1.547c-0.298,0.322-0.304,0.815-0.017,1.146
			l0.613,0.704c-4.696-0.277-7.294-1.641-8.33-4.314c-0.003-0.007-0.008-0.013-0.011-0.021c-0.01-0.021-0.021-0.042-0.032-0.063
			c-0.015-0.03-0.03-0.059-0.049-0.087c-0.011-0.015-0.023-0.028-0.035-0.043c-0.022-0.03-0.045-0.058-0.071-0.084
			c-0.013-0.012-0.025-0.021-0.038-0.032c-0.029-0.026-0.059-0.051-0.092-0.073c-0.014-0.01-0.028-0.016-0.043-0.025
			c-0.034-0.02-0.07-0.04-0.107-0.054c-0.005-0.002-0.009-0.005-0.012-0.009c-0.014-0.004-0.028-0.005-0.041-0.009
			c-0.035-0.012-0.071-0.022-0.106-0.03c-0.024-0.004-0.048-0.008-0.073-0.01c-0.029-0.004-0.061-0.007-0.09-0.007
			c-0.03,0-0.059,0.003-0.088,0.006c-0.025,0.003-0.051,0.007-0.075,0.011c-0.035,0.008-0.07,0.018-0.104,0.03
			c-0.014,0.004-0.028,0.006-0.042,0.009c-0.005,0.004-0.009,0.007-0.013,0.009c-0.036,0.014-0.072,0.034-0.107,0.054
			c-0.015,0.008-0.029,0.015-0.043,0.025c-0.033,0.022-0.063,0.047-0.094,0.073c-0.012,0.01-0.025,0.019-0.036,0.029
			c-0.027,0.029-0.051,0.059-0.074,0.09c-0.011,0.014-0.022,0.025-0.032,0.04c-0.019,0.028-0.034,0.057-0.05,0.09
			c-0.011,0.02-0.022,0.039-0.031,0.061c-0.004,0.009-0.009,0.013-0.012,0.021c-1.036,2.674-3.636,4.037-8.33,4.313l0.613-0.704
			c0.288-0.329,0.282-0.825-0.016-1.146l-1.426-1.545l1.494-2.093c0.216-0.303,0.213-0.71-0.009-1.01l-1.484-2.002l1.436-1.615
			c0.286-0.321,0.29-0.806,0.008-1.132l-0.64-0.737c4.231,0.188,6.994,1.139,8.364,4.353c0.015,0.03,0.031,0.054,0.046,0.082
			c0.011,0.017,0.019,0.036,0.03,0.053c0.02,0.031,0.043,0.058,0.066,0.085c0.013,0.016,0.025,0.031,0.04,0.046
			c0.026,0.026,0.053,0.047,0.083,0.07c0.015,0.013,0.029,0.025,0.047,0.037c0.032,0.022,0.066,0.04,0.102,0.056
			c0.014,0.008,0.025,0.018,0.041,0.023c0.002,0.001,0.005,0.001,0.007,0.002c0.035,0.015,0.072,0.024,0.112,0.034
			c0.017,0.004,0.033,0.013,0.052,0.015c0.021,0.006,0.045,0.005,0.067,0.008c0.032,0.005,0.066,0.011,0.101,0.011
			C38.019,38.599,38.021,38.598,38.021,38.598"/>
		<path fill="#C30823" d="M34.182,39.723c0,0.474,0.384,0.857,0.857,0.857h6.172c0.474,0,0.858-0.384,0.858-0.857
			c0-0.473-0.385-0.858-0.858-0.858h-6.172C34.565,38.864,34.182,39.249,34.182,39.723"/>
	</g>
</g>
<g id="Layer_8" display="none">
	<g display="inline">
		<path fill="#C30823" d="M26.356,30.101c0.657,0,1.189,0.532,1.189,1.189c0,0.657-0.533,1.19-1.189,1.19
			c-0.657,0-1.19-0.533-1.19-1.19C25.167,30.633,25.699,30.101,26.356,30.101"/>
		<path fill="#C30823" d="M39.044,30.101c0.658,0,1.189,0.532,1.189,1.189c0,0.657-0.531,1.19-1.189,1.19
			c-0.656,0-1.189-0.533-1.189-1.19C37.854,30.633,38.388,30.101,39.044,30.101"/>
		<path fill="#C30823" d="M32.876,39.838c1.895,0,3.304-1.763,3.261-3.568c0-0.705-1.146-0.705-1.102,0
			c0.044,1.188-0.881,2.422-2.159,2.422c-1.277,0-2.202-1.188-2.202-2.379c0-0.705-1.102-0.705-1.102,0
			C29.528,38.163,30.981,39.881,32.876,39.838"/>
		<path fill="#C30823" d="M47.547,19.175H17.854c-1.674,0-3.084,1.366-3.084,3.084v0.749c0,1.674,1.366,3.084,3.084,3.084h0.088
			c0.044,0.132,0.088,0.264,0.132,0.396l11.323,23.967c0.617,1.277,1.895,2.07,3.304,2.07c1.41,0,2.688-0.793,3.304-2.07
			l11.323-23.967c0.043-0.132,0.087-0.264,0.132-0.396h0.088c1.675,0,3.084-1.366,3.084-3.084v-0.749
			C50.587,20.541,49.222,19.175,47.547,19.175 M35.607,48.207C35.607,48.207,35.564,48.207,35.607,48.207
			c-1.409,0-2.511-1.1-2.511-2.467c0-1.365,1.102-2.467,2.468-2.467c0.749,0,1.453,0.353,1.938,0.925L35.607,48.207z M38.118,43.229
			c-0.66-0.661-1.586-1.058-2.554-1.058c-1.983,0-3.613,1.631-3.613,3.613c0,1.895,1.454,3.436,3.261,3.568l-0.265,0.572
			c-0.441,0.881-1.277,1.454-2.247,1.454c-1.014,0-1.851-0.528-2.247-1.454L19.175,26.048h1.983v0.132
			c0,1.498,1.233,2.687,2.687,2.687c1.498,0,2.688-1.189,2.688-2.687v-0.132h19.693L38.118,43.229z M22.303,26.18v-0.132h3.083
			v0.132c0,0.837-0.705,1.542-1.542,1.542C23.008,27.722,22.303,27.018,22.303,26.18 M49.441,23.008
			c0,1.057-0.881,1.938-1.938,1.938H17.854c-1.058,0-1.939-0.881-1.939-1.938v-0.749c0-1.058,0.881-1.939,1.939-1.939h29.693
			c1.058,0,1.938,0.881,1.938,1.939v0.749H49.441z"/>
	</g>
</g>
<g id="Layer_9" display="none">
	<g display="inline">
		<path fill="#C30823" d="M33.894,29.586c-2.239,0.174-3.958,0.119-3.975,0.118c-0.5-0.01-0.935,0.381-0.952,0.889
			c-0.017,0.509,0.38,0.935,0.889,0.952c0.029,0.001,0.322,0.011,0.81,0.011c0.746,0,1.951-0.022,3.372-0.132
			c0.507-0.038,0.886-0.482,0.847-0.988C34.844,29.928,34.405,29.549,33.894,29.586"/>
		<path fill="#C30823" d="M50.418,35.508h-1.825c0.702-0.962,1.276-2.367,1.119-4.34c-0.219-2.76-2.292-3.956-4.146-4.368
			c0.708-1.236,0.837-2.664,0.361-4.288c-0.877-2.537-3.465-3.118-4.906-3.243c-0.018-0.153-0.042-0.306-0.079-0.459
			c-0.454-1.895-2.234-2.996-2.279-3.023c-8.83-5.855-16.269,0.327-16.342,0.39c-0.304,0.259-0.404,0.683-0.252,1.051
			c0.152,0.369,0.531,0.598,0.924,0.567c0.29-0.023,2.842-0.152,3.248,2.062c0.206,1.123-1.142,1.542-1.287,1.584
			c-0.641,0.171-6.275,1.77-6.75,4.975c-0.158,1.064-0.037,1.962,0.245,2.719c-1.567,0.238-3.308,1.09-3.63,3.29
			c-0.192,1.307,0.085,2.324,0.487,3.082h-1.23c-0.509,0-0.92,0.413-0.92,0.921c0,0.509,0.412,0.921,0.92,0.921h36.342
			c0.509,0,0.921-0.412,0.921-0.921C51.338,35.921,50.927,35.508,50.418,35.508 M16.641,32.694c0.246-1.687,2.179-1.81,2.958-1.788
			c0.81,0.798,1.794,1.259,2.518,1.438c0.075,0.019,0.149,0.027,0.223,0.027c0.411,0,0.783-0.278,0.89-0.693
			c0.125-0.491-0.173-0.992-0.664-1.119c-0.172-0.045-1.091-0.312-1.786-1.069c-0.029-0.042-0.062-0.081-0.099-0.119
			c-0.492-0.591-0.84-1.447-0.657-2.684c0.234-1.583,3.742-3.019,5.408-3.467c1.086-0.295,3.031-1.448,2.619-3.693
			c-0.319-1.743-1.421-2.692-2.603-3.168c2.458-1.228,7.002-2.481,12.222,0.98c0.251,0.156,2.413,1.583,1.106,3.702
			c-1.206,1.952-4.281,2.111-4.31,2.113c-0.508,0.021-0.903,0.448-0.884,0.957s0.447,0.906,0.956,0.883
			c0.168-0.006,4.079-0.193,5.805-2.986c0.187-0.302,0.331-0.605,0.443-0.91c1,0.075,2.849,0.424,3.385,1.974
			c0.33,1.13,0.251,2.077-0.243,2.89c-0.854,1.406-3.012,2.487-6.238,3.123c-0.5,0.099-0.824,0.582-0.727,1.082
			c0.088,0.438,0.472,0.742,0.903,0.742c0.059,0,0.118-0.005,0.178-0.018c2.662-0.524,4.687-1.338,6.058-2.426
			c0.899,0.033,3.572,0.339,3.771,2.849c0.216,2.705-1.429,3.89-1.948,4.194h-28.31C17.235,35.186,16.406,34.285,16.641,32.694"/>
		<path fill="#C30823" d="M47.709,39.159c-0.461-0.218-1.009-0.019-1.226,0.44l-2.798,5.948c-0.862,1.657-1.132,1.97-4.463,1.97
			h-13.95c-3.332,0-3.6-0.312-4.448-1.937L18.011,39.6c-0.217-0.461-0.766-0.658-1.225-0.44c-0.46,0.216-0.658,0.765-0.441,1.226
			l2.831,6.015c1.285,2.463,2.31,2.961,6.098,2.961h13.951c3.788,0,4.813-0.498,6.113-2.994l2.814-5.981
			C48.367,39.924,48.17,39.375,47.709,39.159"/>
	</g>
</g>
<g id="Layer_10" display="none">
	<path display="inline" fill="#C30823" d="M25.601,49.171l-1.105-7.786h13.127l-1.1,7.803L25.601,49.171z M23.525,34.492h15.074
		l-0.735,5.212H24.26L23.525,34.492z M22.508,27.319h17.108l-0.783,5.51H23.285L22.508,27.319z M20.982,23.146h20.26v2.492H20.978
		L20.982,23.146z M39.851,13.657l-9.582,2.341v5.463H19.297v5.858h1.509l3.333,23.534h13.843l3.331-23.534h1.61v-5.854H31.95v-4.148
		l8.3-2.025L39.851,13.657z"/>
</g>
</svg>
