<?xml version="1.0" encoding="utf-8"?>
<!-- Generator: Adobe Illustrator 16.2.1, SVG Export Plug-In . SVG Version: 6.00 Build 0)  -->
<!DOCTYPE svg PUBLIC "-//W3C//DTD SVG 1.1//EN" "http://www.w3.org/Graphics/SVG/1.1/DTD/svg11.dtd" [
	<!ENTITY ns_flows "http://ns.adobe.com/Flows/1.0/">
	<!ENTITY ns_extend "http://ns.adobe.com/Extensibility/1.0/">
	<!ENTITY ns_ai "http://ns.adobe.com/AdobeIllustrator/10.0/">
	<!ENTITY ns_graphs "http://ns.adobe.com/Graphs/1.0/">
]>
<svg version="1.1" id="Layer_1" xmlns:x="&ns_extend;" xmlns:i="&ns_ai;" xmlns:graph="&ns_graphs;"
	 xmlns="http://www.w3.org/2000/svg" xmlns:xlink="http://www.w3.org/1999/xlink" xmlns:a="http://ns.adobe.com/AdobeSVGViewerExtensions/3.0/"
	 x="0px" y="0px" width="64px" height="64px" viewBox="0 0 64 64" enable-background="new 0 0 64 64" xml:space="preserve">
<g id="Layer_1_6_">
	<g id="Layer_1_5_">
		<g id="Layer_1_4_" display="none">
			<g id="Layer_1_3_" display="inline">
				<g id="Layer_1_2_">
					<g id="Layer_1_1_">
						<g>
							
								<rect x="-0.062" y="0.181" fill="#FFFFFF" stroke="#D1D3D4" stroke-width="0.25" stroke-miterlimit="10" width="8" height="8"/>
							
								<rect x="7.938" y="0.181" fill="#FFFFFF" stroke="#D1D3D4" stroke-width="0.25" stroke-miterlimit="10" width="8" height="8"/>
							
								<rect x="15.938" y="0.181" fill="#FFFFFF" stroke="#D1D3D4" stroke-width="0.25" stroke-miterlimit="10" width="8" height="8"/>
							
								<rect x="23.938" y="0.181" fill="#FFFFFF" stroke="#D1D3D4" stroke-width="0.25" stroke-miterlimit="10" width="8" height="8"/>
							
								<rect x="31.937" y="0.181" fill="#FFFFFF" stroke="#D1D3D4" stroke-width="0.25" stroke-miterlimit="10" width="8" height="8"/>
							
								<rect x="39.938" y="0.181" fill="#FFFFFF" stroke="#D1D3D4" stroke-width="0.25" stroke-miterlimit="10" width="8" height="8"/>
							
								<rect x="47.938" y="0.181" fill="#FFFFFF" stroke="#D1D3D4" stroke-width="0.25" stroke-miterlimit="10" width="8" height="8"/>
							
								<rect x="55.938" y="0.181" fill="#FFFFFF" stroke="#D1D3D4" stroke-width="0.25" stroke-miterlimit="10" width="8" height="8"/>
							
								<rect x="-0.062" y="8.181" fill="#FFFFFF" stroke="#D1D3D4" stroke-width="0.25" stroke-miterlimit="10" width="8" height="8"/>
							
								<rect x="7.938" y="8.181" fill="#FFFFFF" stroke="#D1D3D4" stroke-width="0.25" stroke-miterlimit="10" width="8" height="8"/>
							
								<rect x="15.938" y="8.181" fill="#FFFFFF" stroke="#D1D3D4" stroke-width="0.25" stroke-miterlimit="10" width="8" height="8"/>
							
								<rect x="23.938" y="8.181" fill="#FFFFFF" stroke="#D1D3D4" stroke-width="0.25" stroke-miterlimit="10" width="8" height="8"/>
							
								<rect x="31.937" y="8.181" fill="#FFFFFF" stroke="#D1D3D4" stroke-width="0.25" stroke-miterlimit="10" width="8" height="8"/>
							
								<rect x="39.938" y="8.181" fill="#FFFFFF" stroke="#D1D3D4" stroke-width="0.25" stroke-miterlimit="10" width="8" height="8"/>
							
								<rect x="47.938" y="8.181" fill="#FFFFFF" stroke="#D1D3D4" stroke-width="0.25" stroke-miterlimit="10" width="8" height="8"/>
							
								<rect x="55.938" y="8.181" fill="#FFFFFF" stroke="#D1D3D4" stroke-width="0.25" stroke-miterlimit="10" width="8" height="8"/>
							
								<rect x="-0.062" y="16.181" fill="#FFFFFF" stroke="#D1D3D4" stroke-width="0.25" stroke-miterlimit="10" width="8" height="8"/>
							
								<rect x="7.938" y="16.181" fill="#FFFFFF" stroke="#D1D3D4" stroke-width="0.25" stroke-miterlimit="10" width="8" height="8"/>
							
								<rect x="15.938" y="16.181" fill="#FFFFFF" stroke="#D1D3D4" stroke-width="0.25" stroke-miterlimit="10" width="8" height="8"/>
							
								<rect x="23.938" y="16.181" fill="#FFFFFF" stroke="#D1D3D4" stroke-width="0.25" stroke-miterlimit="10" width="8" height="8"/>
							
								<rect x="31.937" y="16.181" fill="#FFFFFF" stroke="#D1D3D4" stroke-width="0.25" stroke-miterlimit="10" width="8" height="8"/>
							
								<rect x="39.938" y="16.181" fill="#FFFFFF" stroke="#D1D3D4" stroke-width="0.25" stroke-miterlimit="10" width="8" height="8"/>
							
								<rect x="47.938" y="16.181" fill="#FFFFFF" stroke="#D1D3D4" stroke-width="0.25" stroke-miterlimit="10" width="8" height="8"/>
							
								<rect x="55.938" y="16.181" fill="#FFFFFF" stroke="#D1D3D4" stroke-width="0.25" stroke-miterlimit="10" width="8" height="8"/>
							
								<rect x="-0.062" y="24.181" fill="#FFFFFF" stroke="#D1D3D4" stroke-width="0.25" stroke-miterlimit="10" width="8" height="8"/>
							
								<rect x="7.938" y="24.181" fill="#FFFFFF" stroke="#D1D3D4" stroke-width="0.25" stroke-miterlimit="10" width="8" height="8"/>
							
								<rect x="15.938" y="24.181" fill="#FFFFFF" stroke="#D1D3D4" stroke-width="0.25" stroke-miterlimit="10" width="8" height="8"/>
							
								<rect x="23.938" y="24.181" fill="#FFFFFF" stroke="#D1D3D4" stroke-width="0.25" stroke-miterlimit="10" width="8" height="8"/>
							
								<rect x="31.937" y="24.181" fill="#FFFFFF" stroke="#D1D3D4" stroke-width="0.25" stroke-miterlimit="10" width="8" height="8"/>
							
								<rect x="39.938" y="24.181" fill="#FFFFFF" stroke="#D1D3D4" stroke-width="0.25" stroke-miterlimit="10" width="8" height="8"/>
							
								<rect x="47.938" y="24.181" fill="#FFFFFF" stroke="#D1D3D4" stroke-width="0.25" stroke-miterlimit="10" width="8" height="8"/>
							
								<rect x="55.938" y="24.181" fill="#FFFFFF" stroke="#D1D3D4" stroke-width="0.25" stroke-miterlimit="10" width="8" height="8"/>
							
								<rect x="-0.062" y="32.181" fill="#FFFFFF" stroke="#D1D3D4" stroke-width="0.25" stroke-miterlimit="10" width="8" height="8"/>
							
								<rect x="7.938" y="32.181" fill="#FFFFFF" stroke="#D1D3D4" stroke-width="0.25" stroke-miterlimit="10" width="8" height="8"/>
							
								<rect x="15.938" y="32.181" fill="#FFFFFF" stroke="#D1D3D4" stroke-width="0.25" stroke-miterlimit="10" width="8" height="8"/>
							
								<rect x="23.938" y="32.181" fill="#FFFFFF" stroke="#D1D3D4" stroke-width="0.25" stroke-miterlimit="10" width="8" height="8"/>
							
								<rect x="31.937" y="32.181" fill="#FFFFFF" stroke="#D1D3D4" stroke-width="0.25" stroke-miterlimit="10" width="8" height="8"/>
							
								<rect x="39.938" y="32.181" fill="#FFFFFF" stroke="#D1D3D4" stroke-width="0.25" stroke-miterlimit="10" width="8" height="8"/>
							
								<rect x="47.938" y="32.181" fill="#FFFFFF" stroke="#D1D3D4" stroke-width="0.25" stroke-miterlimit="10" width="8" height="8"/>
							
								<rect x="55.938" y="32.181" fill="#FFFFFF" stroke="#D1D3D4" stroke-width="0.25" stroke-miterlimit="10" width="8" height="8"/>
							
								<rect x="-0.062" y="40.182" fill="#FFFFFF" stroke="#D1D3D4" stroke-width="0.25" stroke-miterlimit="10" width="8" height="8"/>
							
								<rect x="7.938" y="40.182" fill="#FFFFFF" stroke="#D1D3D4" stroke-width="0.25" stroke-miterlimit="10" width="8" height="8"/>
							
								<rect x="15.938" y="40.182" fill="#FFFFFF" stroke="#D1D3D4" stroke-width="0.25" stroke-miterlimit="10" width="8" height="8"/>
							
								<rect x="23.938" y="40.182" fill="#FFFFFF" stroke="#D1D3D4" stroke-width="0.25" stroke-miterlimit="10" width="8" height="8"/>
							
								<rect x="31.937" y="40.182" fill="#FFFFFF" stroke="#D1D3D4" stroke-width="0.25" stroke-miterlimit="10" width="8" height="8"/>
							
								<rect x="39.938" y="40.182" fill="#FFFFFF" stroke="#D1D3D4" stroke-width="0.25" stroke-miterlimit="10" width="8" height="8"/>
							
								<rect x="47.938" y="40.182" fill="#FFFFFF" stroke="#D1D3D4" stroke-width="0.25" stroke-miterlimit="10" width="8" height="8"/>
							
								<rect x="55.938" y="40.182" fill="#FFFFFF" stroke="#D1D3D4" stroke-width="0.25" stroke-miterlimit="10" width="8" height="8"/>
							
								<rect x="-0.062" y="48.182" fill="#FFFFFF" stroke="#D1D3D4" stroke-width="0.25" stroke-miterlimit="10" width="8" height="8"/>
							
								<rect x="7.938" y="48.182" fill="#FFFFFF" stroke="#D1D3D4" stroke-width="0.25" stroke-miterlimit="10" width="8" height="8"/>
							
								<rect x="15.938" y="48.182" fill="#FFFFFF" stroke="#D1D3D4" stroke-width="0.25" stroke-miterlimit="10" width="8" height="8"/>
							
								<rect x="23.938" y="48.182" fill="#FFFFFF" stroke="#D1D3D4" stroke-width="0.25" stroke-miterlimit="10" width="8" height="8"/>
							
								<rect x="31.937" y="48.182" fill="#FFFFFF" stroke="#D1D3D4" stroke-width="0.25" stroke-miterlimit="10" width="8" height="8"/>
							
								<rect x="39.938" y="48.182" fill="#FFFFFF" stroke="#D1D3D4" stroke-width="0.25" stroke-miterlimit="10" width="8" height="8"/>
							
								<rect x="47.938" y="48.182" fill="#FFFFFF" stroke="#D1D3D4" stroke-width="0.25" stroke-miterlimit="10" width="8" height="8"/>
							
								<rect x="55.938" y="48.182" fill="#FFFFFF" stroke="#D1D3D4" stroke-width="0.25" stroke-miterlimit="10" width="8" height="8"/>
							
								<rect x="-0.062" y="56.182" fill="#FFFFFF" stroke="#D1D3D4" stroke-width="0.25" stroke-miterlimit="10" width="8" height="8"/>
							
								<rect x="7.938" y="56.182" fill="#FFFFFF" stroke="#D1D3D4" stroke-width="0.25" stroke-miterlimit="10" width="8" height="8"/>
							
								<rect x="15.938" y="56.182" fill="#FFFFFF" stroke="#D1D3D4" stroke-width="0.25" stroke-miterlimit="10" width="8" height="8"/>
							
								<rect x="23.938" y="56.182" fill="#FFFFFF" stroke="#D1D3D4" stroke-width="0.25" stroke-miterlimit="10" width="8" height="8"/>
							
								<rect x="31.937" y="56.182" fill="#FFFFFF" stroke="#D1D3D4" stroke-width="0.25" stroke-miterlimit="10" width="8" height="8"/>
							
								<rect x="39.938" y="56.182" fill="#FFFFFF" stroke="#D1D3D4" stroke-width="0.25" stroke-miterlimit="10" width="8" height="8"/>
							
								<rect x="47.938" y="56.182" fill="#FFFFFF" stroke="#D1D3D4" stroke-width="0.25" stroke-miterlimit="10" width="8" height="8"/>
							
								<rect x="55.938" y="56.182" fill="#FFFFFF" stroke="#D1D3D4" stroke-width="0.25" stroke-miterlimit="10" width="8" height="8"/>
						</g>
					</g>
				</g>
			</g>
		</g>
		<g id="Layer_2">
			<g>
				<g>
					<path d="M31.986,0.236c-17.535,0-31.75,14.215-31.75,31.75c0,17.534,14.215,31.75,31.75,31.75
						c17.534,0,31.75-14.217,31.75-31.75C63.736,14.451,49.521,0.236,31.986,0.236z M31.986,62.463
						c-16.832,0-30.477-13.646-30.477-30.477c0-16.832,13.645-30.477,30.477-30.477c16.831,0,30.477,13.645,30.477,30.477
						C62.463,48.816,48.816,62.463,31.986,62.463z"/>
				</g>
			</g>
		</g>
	</g>
</g>
<g id="Layer_6">
	<g>
		<path fill="#C30823" d="M50.816,36.42l-2.449-1.469v-1.205h1.289c0.285,0,0.555-0.135,0.728-0.363
			c0.173-0.227,0.231-0.521,0.154-0.797c-1.043-3.776-3.976-6.958-7.909-8.995c-0.095-0.092-0.207-0.167-0.338-0.212
			c-0.05-0.016-0.102-0.027-0.148-0.036c-2.522-1.22-5.43-1.975-8.498-2.131c0,0-0.002,0-0.004-0.001
			c-0.133-0.036-0.266-0.039-0.392-0.018c-0.267-0.01-0.531-0.014-0.799-0.014c-0.836,0-1.66,0.045-2.471,0.133v-3.365
			c0.062-0.021,0.122-0.047,0.181-0.081l5.021-2.936l-7.034-2.678v9.332c-1.3,0.246-2.553,0.602-3.739,1.054
			c-0.081,0.019-0.159,0.047-0.23,0.087c-4.883,1.924-8.61,5.497-9.818,9.861c-0.076,0.275-0.019,0.571,0.155,0.797
			c0.172,0.229,0.441,0.363,0.728,0.363h1.264v1.006l-2.78,1.668c-0.433,0.26-0.574,0.821-0.314,1.257
			c0.172,0.285,0.476,0.442,0.787,0.442c0.16,0,0.322-0.042,0.469-0.13l1.838-1.104v2.316c0,0.048,0.008,0.095,0.015,0.14h-0.258
			c-0.505,0-0.915,0.41-0.915,0.916v1.735c0,1.929,1.57,3.5,3.5,3.5h27.197c1.932,0,3.503-1.571,3.503-3.5v-1.735
			c0-0.506-0.409-0.916-0.916-0.916h-0.282c0.008-0.045,0.015-0.092,0.015-0.14v-2.117l1.509,0.904
			c0.146,0.088,0.309,0.13,0.469,0.13c0.312,0,0.615-0.157,0.786-0.444C51.391,37.242,51.249,36.68,50.816,36.42 M29.978,14.908
			l0.977,0.372l-0.977,0.572V14.908z M47.721,41.993c0,0.92-0.75,1.669-1.673,1.669H18.85c-0.921,0-1.67-0.749-1.67-1.669v-0.821
			h30.541V41.993z M20.957,37.989c0.004,0.004,0.01,0.004,0.015,0.007c0.016,0.01,0.035,0.02,0.052,0.025
			c0.049,0.022,0.097,0.043,0.147,0.059c0.021,0.007,0.041,0.011,0.062,0.016c0.053,0.012,0.104,0.019,0.157,0.021
			c0.013,0,0.025,0.004,0.038,0.004c0.006,0,0.012-0.002,0.019-0.002c0.072-0.001,0.144-0.011,0.213-0.027
			c0.011-0.004,0.022-0.01,0.033-0.013c0.062-0.02,0.121-0.044,0.177-0.075c0.01-0.006,0.019-0.008,0.029-0.013l3.145-1.885
			l3.142,1.885c0.012,0.007,0.025,0.012,0.038,0.018c0.031,0.016,0.061,0.031,0.093,0.043c0.026,0.012,0.052,0.02,0.078,0.028
			c0.029,0.01,0.059,0.016,0.088,0.021c0.03,0.008,0.059,0.012,0.089,0.015c0.028,0.002,0.056,0.003,0.085,0.003
			c0.03,0,0.06-0.001,0.09-0.003c0.029-0.003,0.056-0.009,0.083-0.013c0.032-0.008,0.062-0.014,0.093-0.023
			c0.025-0.008,0.049-0.016,0.074-0.026c0.033-0.012,0.064-0.028,0.096-0.045c0.011-0.006,0.024-0.01,0.036-0.017l3.145-1.885
			l3.146,1.885c0.004,0.004,0.01,0.004,0.016,0.006c0.047,0.029,0.101,0.047,0.152,0.066c0.021,0.008,0.045,0.021,0.069,0.027
			c0.062,0.018,0.128,0.021,0.192,0.024c0.012,0.002,0.025,0.006,0.039,0.006h0.002l0,0c0.014,0,0.026-0.004,0.039-0.006
			c0.064-0.003,0.131-0.009,0.192-0.024c0.024-0.007,0.046-0.02,0.067-0.027c0.055-0.021,0.106-0.037,0.156-0.066
			c0.006-0.002,0.008-0.002,0.012-0.006l3.145-1.885l3.145,1.885c0.013,0.009,0.025,0.012,0.039,0.019
			c0.029,0.017,0.062,0.031,0.092,0.043c0.025,0.011,0.051,0.019,0.076,0.026c0.029,0.011,0.062,0.017,0.095,0.023
			c0.026,0.006,0.054,0.01,0.079,0.013c0.031,0.002,0.062,0.003,0.094,0.003c0.029,0,0.057-0.001,0.084-0.003
			c0.029-0.003,0.059-0.009,0.088-0.015c0.031-0.006,0.061-0.012,0.088-0.021s0.053-0.017,0.078-0.027
			c0.032-0.013,0.062-0.028,0.096-0.045c0.01-0.006,0.022-0.01,0.034-0.017l2.949-1.77v2.981c0,0.048,0.007,0.095,0.015,0.14H18.324
			c0.008-0.045,0.014-0.092,0.014-0.14V36.42L20.957,37.989z M18.337,34.285v-0.539h28.198v0.4
			c-0.096,0.021-0.189,0.053-0.277,0.104l-3.145,1.886l-3.143-1.887c-0.289-0.174-0.652-0.174-0.939,0l-3.145,1.887L32.74,34.25
			c-0.289-0.174-0.651-0.174-0.94,0l-3.146,1.887l-3.141-1.886c-0.291-0.175-0.653-0.175-0.942-0.001l-3.146,1.887L18.337,34.285z
			 M16.522,31.914c1.144-2.783,3.519-5.119,6.588-6.702l-1.074,3.322c-0.155,0.482,0.108,0.997,0.589,1.152
			c0.094,0.032,0.188,0.046,0.282,0.046c0.386,0,0.746-0.248,0.87-0.635l1.57-4.859c1.141-0.412,2.345-0.727,3.597-0.932
			c0.039,0.003,0.077,0.011,0.117,0.011c0.143,0,0.275-0.034,0.393-0.092c0.896-0.125,1.812-0.197,2.743-0.208l-1.514,5.558
			c-0.133,0.488,0.154,0.99,0.642,1.124c0.081,0.023,0.163,0.033,0.24,0.033c0.403,0,0.772-0.269,0.884-0.674l1.629-5.98
			c2.43,0.184,4.727,0.772,6.766,1.682l-1.295,3.759c-0.164,0.479,0.09,0.999,0.569,1.164c0.098,0.034,0.196,0.051,0.296,0.051
			c0.38,0,0.734-0.239,0.865-0.618l1.215-3.524c2.727,1.569,4.824,3.758,5.88,6.325L16.522,31.914L16.522,31.914z"/>
	</g>
</g>
</svg>
