<?xml version="1.0" encoding="utf-8"?>
<!-- Generator: Adobe Illustrator 16.2.1, SVG Export Plug-In . SVG Version: 6.00 Build 0)  -->
<!DOCTYPE svg PUBLIC "-//W3C//DTD SVG 1.1//EN" "http://www.w3.org/Graphics/SVG/1.1/DTD/svg11.dtd" [
	<!ENTITY ns_flows "http://ns.adobe.com/Flows/1.0/">
	<!ENTITY ns_extend "http://ns.adobe.com/Extensibility/1.0/">
	<!ENTITY ns_ai "http://ns.adobe.com/AdobeIllustrator/10.0/">
	<!ENTITY ns_graphs "http://ns.adobe.com/Graphs/1.0/">
]>
<svg version="1.1" id="Layer_1" xmlns:x="&ns_extend;" xmlns:i="&ns_ai;" xmlns:graph="&ns_graphs;"
	 xmlns="http://www.w3.org/2000/svg" xmlns:xlink="http://www.w3.org/1999/xlink" xmlns:a="http://ns.adobe.com/AdobeSVGViewerExtensions/3.0/"
	 x="0px" y="0px" width="64px" height="64px" viewBox="0 0 64 64" enable-background="new 0 0 64 64" xml:space="preserve">
<g id="Layer_1_6_">
	<g id="Layer_1_5_">
		<g id="Layer_1_4_" display="none">
			<g id="Layer_1_3_" display="inline">
				<g id="Layer_1_2_">
					<g id="Layer_1_1_">
						<g>
							
								<rect x="-0.062" y="0.181" fill="#FFFFFF" stroke="#D1D3D4" stroke-width="0.25" stroke-miterlimit="10" width="8" height="8"/>
							
								<rect x="7.938" y="0.181" fill="#FFFFFF" stroke="#D1D3D4" stroke-width="0.25" stroke-miterlimit="10" width="8" height="8"/>
							
								<rect x="15.938" y="0.181" fill="#FFFFFF" stroke="#D1D3D4" stroke-width="0.25" stroke-miterlimit="10" width="8" height="8"/>
							
								<rect x="23.938" y="0.181" fill="#FFFFFF" stroke="#D1D3D4" stroke-width="0.25" stroke-miterlimit="10" width="8" height="8"/>
							
								<rect x="31.937" y="0.181" fill="#FFFFFF" stroke="#D1D3D4" stroke-width="0.25" stroke-miterlimit="10" width="8" height="8"/>
							
								<rect x="39.938" y="0.181" fill="#FFFFFF" stroke="#D1D3D4" stroke-width="0.25" stroke-miterlimit="10" width="8" height="8"/>
							
								<rect x="47.938" y="0.181" fill="#FFFFFF" stroke="#D1D3D4" stroke-width="0.25" stroke-miterlimit="10" width="8" height="8"/>
							
								<rect x="55.938" y="0.181" fill="#FFFFFF" stroke="#D1D3D4" stroke-width="0.25" stroke-miterlimit="10" width="8" height="8"/>
							
								<rect x="-0.062" y="8.181" fill="#FFFFFF" stroke="#D1D3D4" stroke-width="0.25" stroke-miterlimit="10" width="8" height="8"/>
							
								<rect x="7.938" y="8.181" fill="#FFFFFF" stroke="#D1D3D4" stroke-width="0.25" stroke-miterlimit="10" width="8" height="8"/>
							
								<rect x="15.938" y="8.181" fill="#FFFFFF" stroke="#D1D3D4" stroke-width="0.25" stroke-miterlimit="10" width="8" height="8"/>
							
								<rect x="23.938" y="8.181" fill="#FFFFFF" stroke="#D1D3D4" stroke-width="0.25" stroke-miterlimit="10" width="8" height="8"/>
							
								<rect x="31.937" y="8.181" fill="#FFFFFF" stroke="#D1D3D4" stroke-width="0.25" stroke-miterlimit="10" width="8" height="8"/>
							
								<rect x="39.938" y="8.181" fill="#FFFFFF" stroke="#D1D3D4" stroke-width="0.25" stroke-miterlimit="10" width="8" height="8"/>
							
								<rect x="47.938" y="8.181" fill="#FFFFFF" stroke="#D1D3D4" stroke-width="0.25" stroke-miterlimit="10" width="8" height="8"/>
							
								<rect x="55.938" y="8.181" fill="#FFFFFF" stroke="#D1D3D4" stroke-width="0.25" stroke-miterlimit="10" width="8" height="8"/>
							
								<rect x="-0.062" y="16.181" fill="#FFFFFF" stroke="#D1D3D4" stroke-width="0.25" stroke-miterlimit="10" width="8" height="8"/>
							
								<rect x="7.938" y="16.181" fill="#FFFFFF" stroke="#D1D3D4" stroke-width="0.25" stroke-miterlimit="10" width="8" height="8"/>
							
								<rect x="15.938" y="16.181" fill="#FFFFFF" stroke="#D1D3D4" stroke-width="0.25" stroke-miterlimit="10" width="8" height="8"/>
							
								<rect x="23.938" y="16.181" fill="#FFFFFF" stroke="#D1D3D4" stroke-width="0.25" stroke-miterlimit="10" width="8" height="8"/>
							
								<rect x="31.937" y="16.181" fill="#FFFFFF" stroke="#D1D3D4" stroke-width="0.25" stroke-miterlimit="10" width="8" height="8"/>
							
								<rect x="39.938" y="16.181" fill="#FFFFFF" stroke="#D1D3D4" stroke-width="0.25" stroke-miterlimit="10" width="8" height="8"/>
							
								<rect x="47.938" y="16.181" fill="#FFFFFF" stroke="#D1D3D4" stroke-width="0.25" stroke-miterlimit="10" width="8" height="8"/>
							
								<rect x="55.938" y="16.181" fill="#FFFFFF" stroke="#D1D3D4" stroke-width="0.25" stroke-miterlimit="10" width="8" height="8"/>
							
								<rect x="-0.062" y="24.181" fill="#FFFFFF" stroke="#D1D3D4" stroke-width="0.25" stroke-miterlimit="10" width="8" height="8"/>
							
								<rect x="7.938" y="24.181" fill="#FFFFFF" stroke="#D1D3D4" stroke-width="0.25" stroke-miterlimit="10" width="8" height="8"/>
							
								<rect x="15.938" y="24.181" fill="#FFFFFF" stroke="#D1D3D4" stroke-width="0.25" stroke-miterlimit="10" width="8" height="8"/>
							
								<rect x="23.938" y="24.181" fill="#FFFFFF" stroke="#D1D3D4" stroke-width="0.25" stroke-miterlimit="10" width="8" height="8"/>
							
								<rect x="31.937" y="24.181" fill="#FFFFFF" stroke="#D1D3D4" stroke-width="0.25" stroke-miterlimit="10" width="8" height="8"/>
							
								<rect x="39.938" y="24.181" fill="#FFFFFF" stroke="#D1D3D4" stroke-width="0.25" stroke-miterlimit="10" width="8" height="8"/>
							
								<rect x="47.938" y="24.181" fill="#FFFFFF" stroke="#D1D3D4" stroke-width="0.25" stroke-miterlimit="10" width="8" height="8"/>
							
								<rect x="55.938" y="24.181" fill="#FFFFFF" stroke="#D1D3D4" stroke-width="0.25" stroke-miterlimit="10" width="8" height="8"/>
							
								<rect x="-0.062" y="32.181" fill="#FFFFFF" stroke="#D1D3D4" stroke-width="0.25" stroke-miterlimit="10" width="8" height="8"/>
							
								<rect x="7.938" y="32.181" fill="#FFFFFF" stroke="#D1D3D4" stroke-width="0.25" stroke-miterlimit="10" width="8" height="8"/>
							
								<rect x="15.938" y="32.181" fill="#FFFFFF" stroke="#D1D3D4" stroke-width="0.25" stroke-miterlimit="10" width="8" height="8"/>
							
								<rect x="23.938" y="32.181" fill="#FFFFFF" stroke="#D1D3D4" stroke-width="0.25" stroke-miterlimit="10" width="8" height="8"/>
							
								<rect x="31.937" y="32.181" fill="#FFFFFF" stroke="#D1D3D4" stroke-width="0.25" stroke-miterlimit="10" width="8" height="8"/>
							
								<rect x="39.938" y="32.181" fill="#FFFFFF" stroke="#D1D3D4" stroke-width="0.25" stroke-miterlimit="10" width="8" height="8"/>
							
								<rect x="47.938" y="32.181" fill="#FFFFFF" stroke="#D1D3D4" stroke-width="0.25" stroke-miterlimit="10" width="8" height="8"/>
							
								<rect x="55.938" y="32.181" fill="#FFFFFF" stroke="#D1D3D4" stroke-width="0.25" stroke-miterlimit="10" width="8" height="8"/>
							
								<rect x="-0.062" y="40.182" fill="#FFFFFF" stroke="#D1D3D4" stroke-width="0.25" stroke-miterlimit="10" width="8" height="8"/>
							
								<rect x="7.938" y="40.182" fill="#FFFFFF" stroke="#D1D3D4" stroke-width="0.25" stroke-miterlimit="10" width="8" height="8"/>
							
								<rect x="15.938" y="40.182" fill="#FFFFFF" stroke="#D1D3D4" stroke-width="0.25" stroke-miterlimit="10" width="8" height="8"/>
							
								<rect x="23.938" y="40.182" fill="#FFFFFF" stroke="#D1D3D4" stroke-width="0.25" stroke-miterlimit="10" width="8" height="8"/>
							
								<rect x="31.937" y="40.182" fill="#FFFFFF" stroke="#D1D3D4" stroke-width="0.25" stroke-miterlimit="10" width="8" height="8"/>
							
								<rect x="39.938" y="40.182" fill="#FFFFFF" stroke="#D1D3D4" stroke-width="0.25" stroke-miterlimit="10" width="8" height="8"/>
							
								<rect x="47.938" y="40.182" fill="#FFFFFF" stroke="#D1D3D4" stroke-width="0.25" stroke-miterlimit="10" width="8" height="8"/>
							
								<rect x="55.938" y="40.182" fill="#FFFFFF" stroke="#D1D3D4" stroke-width="0.25" stroke-miterlimit="10" width="8" height="8"/>
							
								<rect x="-0.062" y="48.182" fill="#FFFFFF" stroke="#D1D3D4" stroke-width="0.25" stroke-miterlimit="10" width="8" height="8"/>
							
								<rect x="7.938" y="48.182" fill="#FFFFFF" stroke="#D1D3D4" stroke-width="0.25" stroke-miterlimit="10" width="8" height="8"/>
							
								<rect x="15.938" y="48.182" fill="#FFFFFF" stroke="#D1D3D4" stroke-width="0.25" stroke-miterlimit="10" width="8" height="8"/>
							
								<rect x="23.938" y="48.182" fill="#FFFFFF" stroke="#D1D3D4" stroke-width="0.25" stroke-miterlimit="10" width="8" height="8"/>
							
								<rect x="31.937" y="48.182" fill="#FFFFFF" stroke="#D1D3D4" stroke-width="0.25" stroke-miterlimit="10" width="8" height="8"/>
							
								<rect x="39.938" y="48.182" fill="#FFFFFF" stroke="#D1D3D4" stroke-width="0.25" stroke-miterlimit="10" width="8" height="8"/>
							
								<rect x="47.938" y="48.182" fill="#FFFFFF" stroke="#D1D3D4" stroke-width="0.25" stroke-miterlimit="10" width="8" height="8"/>
							
								<rect x="55.938" y="48.182" fill="#FFFFFF" stroke="#D1D3D4" stroke-width="0.25" stroke-miterlimit="10" width="8" height="8"/>
							
								<rect x="-0.062" y="56.182" fill="#FFFFFF" stroke="#D1D3D4" stroke-width="0.25" stroke-miterlimit="10" width="8" height="8"/>
							
								<rect x="7.938" y="56.182" fill="#FFFFFF" stroke="#D1D3D4" stroke-width="0.25" stroke-miterlimit="10" width="8" height="8"/>
							
								<rect x="15.938" y="56.182" fill="#FFFFFF" stroke="#D1D3D4" stroke-width="0.25" stroke-miterlimit="10" width="8" height="8"/>
							
								<rect x="23.938" y="56.182" fill="#FFFFFF" stroke="#D1D3D4" stroke-width="0.25" stroke-miterlimit="10" width="8" height="8"/>
							
								<rect x="31.937" y="56.182" fill="#FFFFFF" stroke="#D1D3D4" stroke-width="0.25" stroke-miterlimit="10" width="8" height="8"/>
							
								<rect x="39.938" y="56.182" fill="#FFFFFF" stroke="#D1D3D4" stroke-width="0.25" stroke-miterlimit="10" width="8" height="8"/>
							
								<rect x="47.938" y="56.182" fill="#FFFFFF" stroke="#D1D3D4" stroke-width="0.25" stroke-miterlimit="10" width="8" height="8"/>
							
								<rect x="55.938" y="56.182" fill="#FFFFFF" stroke="#D1D3D4" stroke-width="0.25" stroke-miterlimit="10" width="8" height="8"/>
						</g>
					</g>
				</g>
			</g>
		</g>
		<g id="Layer_2">
			<g>
				<g>
					<path d="M31.986,0.236c-17.535,0-31.75,14.215-31.75,31.75c0,17.534,14.215,31.75,31.75,31.75
						c17.534,0,31.75-14.217,31.75-31.75C63.736,14.451,49.521,0.236,31.986,0.236z M31.986,62.463
						c-16.832,0-30.477-13.646-30.477-30.477c0-16.832,13.645-30.477,30.477-30.477c16.831,0,30.477,13.645,30.477,30.477
						C62.463,48.816,48.816,62.463,31.986,62.463z"/>
				</g>
			</g>
		</g>
	</g>
</g>
<g id="Layer_5">
	<g>
		<path fill="#C30823" d="M26.858,17.09c-0.343-0.343-0.897-0.341-1.24,0.001c-1.64,1.641-1.64,4.309,0,5.946
			c0.001,0.001,0.002,0.002,0.003,0.003l0.003,0.003c0.957,0.961,0.959,2.519,0.005,3.471c-0.344,0.342-0.344,0.897-0.001,1.24
			c0.171,0.171,0.396,0.256,0.62,0.256s0.448-0.085,0.62-0.255c1.638-1.636,1.637-4.306-0.002-5.951
			c-0.002-0.002-0.005-0.003-0.008-0.006c-0.001-0.001-0.002-0.003-0.003-0.005c-0.954-0.956-0.953-2.509,0.003-3.465
			C27.2,17.987,27.2,17.432,26.858,17.09"/>
		<path fill="#C30823" d="M32.611,17.09c-0.341-0.341-0.896-0.341-1.238,0.001c-0.795,0.795-1.232,1.852-1.232,2.974
			c0,1.116,0.432,2.165,1.217,2.958c0.007,0.008,0.014,0.015,0.022,0.022v0.001c0.957,0.96,0.959,2.516,0.004,3.47
			c-0.343,0.342-0.343,0.897,0,1.24c0.171,0.171,0.396,0.256,0.619,0.256c0.226,0,0.449-0.085,0.62-0.255
			c1.621-1.621,1.635-4.25,0.045-5.897c-0.001-0.001-0.001-0.002-0.002-0.004c-0.018-0.019-0.034-0.038-0.055-0.057
			c-0.462-0.462-0.718-1.078-0.718-1.732c0-0.654,0.255-1.271,0.72-1.735C32.956,17.987,32.955,17.432,32.611,17.09"/>
		<path fill="#C30823" d="M38.369,17.09c-0.344-0.341-0.896-0.341-1.24,0.001c-0.795,0.795-1.232,1.852-1.232,2.974
			c0,1.115,0.433,2.165,1.217,2.957c0.003,0.004,0.008,0.007,0.013,0.011c0.004,0.003,0.006,0.008,0.011,0.012
			c0.956,0.96,0.959,2.517,0.004,3.471c-0.344,0.342-0.344,0.897,0,1.24c0.17,0.171,0.396,0.256,0.618,0.256
			c0.226,0,0.449-0.085,0.62-0.255c1.631-1.629,1.635-4.28,0.021-5.926c-0.002-0.002-0.004-0.004-0.004-0.006
			c-0.01-0.009-0.018-0.018-0.026-0.027c-0.463-0.462-0.72-1.078-0.72-1.732s0.256-1.271,0.721-1.735
			C38.711,17.987,38.711,17.432,38.369,17.09"/>
		<path fill="#C30823" d="M14.586,31.669c0.721,5.733,4.257,10.742,9.342,13.379v3.386h13.121c1.663,0,3.016-1.354,3.016-3.018
			v-0.368c5.088-2.637,8.621-7.646,9.345-13.379l0.124-0.987h-35.07L14.586,31.669z M47.512,32.435
			c-0.976,5.097-4.432,9.443-9.222,11.524h-2.808v1.753h2.789c-0.135,0.554-0.631,0.968-1.224,0.968H25.682v-0.967h3.288v-1.754
			h-3.267c-4.79-2.081-8.246-6.426-9.222-11.523L47.512,32.435L47.512,32.435z"/>
		<path fill="#C30823" d="M39.703,40.919c0.141,0,0.283-0.034,0.414-0.104c2.164-1.158,3.75-3.184,4.349-5.556
			c0.119-0.47-0.165-0.946-0.634-1.065c-0.471-0.116-0.948,0.166-1.066,0.636c-0.479,1.896-1.744,3.514-3.476,4.44
			c-0.427,0.229-0.588,0.76-0.358,1.187C39.088,40.751,39.393,40.919,39.703,40.919"/>
		<path fill="#C30823" d="M37.581,40.223c0.573,0,1.04,0.465,1.04,1.039s-0.467,1.039-1.04,1.039c-0.574,0-1.04-0.465-1.04-1.039
			S37.007,40.223,37.581,40.223"/>
	</g>
</g>
</svg>
